<svg width="1529" height="688" viewBox="0 0 1529 688" fill="none" xmlns="http://www.w3.org/2000/svg">
<rect x="735.973" y="11.6132" width="10.531" height="593.328" fill="black"/>
<rect width="11.6132" height="161.054" transform="matrix(0.00349903 0.999994 -0.999994 0.00351664 898.079 118.243)" fill="#7461E2"/>
<rect width="11.6132" height="161.054" transform="matrix(0.00349903 0.999994 -0.999994 0.00351664 898.079 505.701)" fill="#7461E2"/>
<ellipse cx="741.766" cy="17.4198" rx="17.3761" ry="17.4198" fill="black"/>
<ellipse cx="741.766" cy="607.58" rx="17.3761" ry="17.4198" fill="black"/>
<ellipse cx="897.624" cy="511.508" rx="17.3761" ry="17.4198" fill="#7461E2"/>
<ellipse cx="741.766" cy="122.994" rx="17.3761" ry="17.4198" fill="#7461E2"/>
<ellipse cx="741.766" cy="299.303" rx="17.3761" ry="17.4198" fill="#7461E2"/>
<ellipse cx="741.766" cy="511.508" rx="17.3761" ry="17.4198" fill="#7461E2"/>
<ellipse cx="897.624" cy="122.994" rx="17.3761" ry="17.4198" fill="#7461E2"/>
<rect width="11.6132" height="161.054" transform="matrix(0.00349903 0.999994 -0.999994 0.00351664 735.902 294.552)" fill="#7461E2"/>
<ellipse cx="575.376" cy="300.303" rx="17.3761" ry="17.4198" fill="#7461E2"/>
<g filter="url(#filter0_d_563_16)">
<rect x="949" y="35" width="502" height="208" rx="55" fill="#F0F1F8"/>
</g>
<path d="M1086.44 80.06V101H1082.24V92.09H1073.27V101H1069.07V80.06H1073.27V88.67H1082.24V80.06H1086.44ZM1092.7 82.4C1091.96 82.4 1091.34 82.17 1090.84 81.71C1090.36 81.23 1090.12 80.64 1090.12 79.94C1090.12 79.24 1090.36 78.66 1090.84 78.2C1091.34 77.72 1091.96 77.48 1092.7 77.48C1093.44 77.48 1094.05 77.72 1094.53 78.2C1095.03 78.66 1095.28 79.24 1095.28 79.94C1095.28 80.64 1095.03 81.23 1094.53 81.71C1094.05 82.17 1093.44 82.4 1092.7 82.4ZM1094.77 84.38V101H1090.57V84.38H1094.77ZM1105.43 84.11C1106.67 84.11 1107.76 84.36 1108.7 84.86C1109.64 85.34 1110.38 85.97 1110.92 86.75V84.38H1115.15V101.12C1115.15 102.66 1114.84 104.03 1114.22 105.23C1113.6 106.45 1112.67 107.41 1111.43 108.11C1110.19 108.83 1108.69 109.19 1106.93 109.19C1104.57 109.19 1102.63 108.64 1101.11 107.54C1099.61 106.44 1098.76 104.94 1098.56 103.04H1102.73C1102.95 103.8 1103.42 104.4 1104.14 104.84C1104.88 105.3 1105.77 105.53 1106.81 105.53C1108.03 105.53 1109.02 105.16 1109.78 104.42C1110.54 103.7 1110.92 102.6 1110.92 101.12V98.54C1110.38 99.32 1109.63 99.97 1108.67 100.49C1107.73 101.01 1106.65 101.27 1105.43 101.27C1104.03 101.27 1102.75 100.91 1101.59 100.19C1100.43 99.47 1099.51 98.46 1098.83 97.16C1098.17 95.84 1097.84 94.33 1097.84 92.63C1097.84 90.95 1098.17 89.46 1098.83 88.16C1099.51 86.86 1100.42 85.86 1101.56 85.16C1102.72 84.46 1104.01 84.11 1105.43 84.11ZM1110.92 92.69C1110.92 91.67 1110.72 90.8 1110.32 90.08C1109.92 89.34 1109.38 88.78 1108.7 88.4C1108.02 88 1107.29 87.8 1106.51 87.8C1105.73 87.8 1105.01 87.99 1104.35 88.37C1103.69 88.75 1103.15 89.31 1102.73 90.05C1102.33 90.77 1102.13 91.63 1102.13 92.63C1102.13 93.63 1102.33 94.51 1102.73 95.27C1103.15 96.01 1103.69 96.58 1104.35 96.98C1105.03 97.38 1105.75 97.58 1106.51 97.58C1107.29 97.58 1108.02 97.39 1108.7 97.01C1109.38 96.61 1109.92 96.05 1110.32 95.33C1110.72 94.59 1110.92 93.71 1110.92 92.69ZM1128.62 84.14C1129.88 84.14 1131 84.42 1131.98 84.98C1132.96 85.52 1133.72 86.33 1134.26 87.41C1134.82 88.47 1135.1 89.75 1135.1 91.25V101H1130.9V91.82C1130.9 90.5 1130.57 89.49 1129.91 88.79C1129.25 88.07 1128.35 87.71 1127.21 87.71C1126.05 87.71 1125.13 88.07 1124.45 88.79C1123.79 89.49 1123.46 90.5 1123.46 91.82V101H1119.26V78.8H1123.46V86.45C1124 85.73 1124.72 85.17 1125.62 84.77C1126.52 84.35 1127.52 84.14 1128.62 84.14ZM1154.54 92.33C1154.54 92.93 1154.5 93.47 1154.42 93.95H1142.27C1142.37 95.15 1142.79 96.09 1143.53 96.77C1144.27 97.45 1145.18 97.79 1146.26 97.79C1147.82 97.79 1148.93 97.12 1149.59 95.78H1154.12C1153.64 97.38 1152.72 98.7 1151.36 99.74C1150 100.76 1148.33 101.27 1146.35 101.27C1144.75 101.27 1143.31 100.92 1142.03 100.22C1140.77 99.5 1139.78 98.49 1139.06 97.19C1138.36 95.89 1138.01 94.39 1138.01 92.69C1138.01 90.97 1138.36 89.46 1139.06 88.16C1139.76 86.86 1140.74 85.86 1142 85.16C1143.26 84.46 1144.71 84.11 1146.35 84.11C1147.93 84.11 1149.34 84.45 1150.58 85.13C1151.84 85.81 1152.81 86.78 1153.49 88.04C1154.19 89.28 1154.54 90.71 1154.54 92.33ZM1150.19 91.13C1150.17 90.05 1149.78 89.19 1149.02 88.55C1148.26 87.89 1147.33 87.56 1146.23 87.56C1145.19 87.56 1144.31 87.88 1143.59 88.52C1142.89 89.14 1142.46 90.01 1142.3 91.13H1150.19ZM1161.81 86.96C1162.35 86.08 1163.05 85.39 1163.91 84.89C1164.79 84.39 1165.79 84.14 1166.91 84.14V88.55H1165.8C1164.48 88.55 1163.48 88.86 1162.8 89.48C1162.14 90.1 1161.81 91.18 1161.81 92.72V101H1157.61V84.38H1161.81V86.96ZM1181.08 83.45V88.7H1188.13V92.03H1181.08V97.58H1189.03V101H1176.88V80.03H1189.03V83.45H1181.08ZM1191.77 92.63C1191.77 90.95 1192.1 89.46 1192.76 88.16C1193.44 86.86 1194.36 85.86 1195.52 85.16C1196.68 84.46 1197.97 84.11 1199.39 84.11C1200.47 84.11 1201.5 84.35 1202.48 84.83C1203.46 85.29 1204.24 85.91 1204.82 86.69V78.8H1209.08V101H1204.82V98.54C1204.3 99.36 1203.57 100.02 1202.63 100.52C1201.69 101.02 1200.6 101.27 1199.36 101.27C1197.96 101.27 1196.68 100.91 1195.52 100.19C1194.36 99.47 1193.44 98.46 1192.76 97.16C1192.1 95.84 1191.77 94.33 1191.77 92.63ZM1204.85 92.69C1204.85 91.67 1204.65 90.8 1204.25 90.08C1203.85 89.34 1203.31 88.78 1202.63 88.4C1201.95 88 1201.22 87.8 1200.44 87.8C1199.66 87.8 1198.94 87.99 1198.28 88.37C1197.62 88.75 1197.08 89.31 1196.66 90.05C1196.26 90.77 1196.06 91.63 1196.06 92.63C1196.06 93.63 1196.26 94.51 1196.66 95.27C1197.08 96.01 1197.62 96.58 1198.28 96.98C1198.96 97.38 1199.68 97.58 1200.44 97.58C1201.22 97.58 1201.95 97.39 1202.63 97.01C1203.31 96.61 1203.85 96.05 1204.25 95.33C1204.65 94.59 1204.85 93.71 1204.85 92.69ZM1228.87 84.38V101H1224.64V98.9C1224.1 99.62 1223.39 100.19 1222.51 100.61C1221.65 101.01 1220.71 101.21 1219.69 101.21C1218.39 101.21 1217.24 100.94 1216.24 100.4C1215.24 99.84 1214.45 99.03 1213.87 97.97C1213.31 96.89 1213.03 95.61 1213.03 94.13V84.38H1217.23V93.53C1217.23 94.85 1217.56 95.87 1218.22 96.59C1218.88 97.29 1219.78 97.64 1220.92 97.64C1222.08 97.64 1222.99 97.29 1223.65 96.59C1224.31 95.87 1224.64 94.85 1224.64 93.53V84.38H1228.87ZM1231.94 92.69C1231.94 90.97 1232.29 89.47 1232.99 88.19C1233.69 86.89 1234.66 85.89 1235.9 85.19C1237.14 84.47 1238.56 84.11 1240.16 84.11C1242.22 84.11 1243.92 84.63 1245.26 85.67C1246.62 86.69 1247.53 88.13 1247.99 89.99H1243.46C1243.22 89.27 1242.81 88.71 1242.23 88.31C1241.67 87.89 1240.97 87.68 1240.13 87.68C1238.93 87.68 1237.98 88.12 1237.28 89C1236.58 89.86 1236.23 91.09 1236.23 92.69C1236.23 94.27 1236.58 95.5 1237.28 96.38C1237.98 97.24 1238.93 97.67 1240.13 97.67C1241.83 97.67 1242.94 96.91 1243.46 95.39H1247.99C1247.53 97.19 1246.62 98.62 1245.26 99.68C1243.9 100.74 1242.2 101.27 1240.16 101.27C1238.56 101.27 1237.14 100.92 1235.9 100.22C1234.66 99.5 1233.69 98.5 1232.99 97.22C1232.29 95.92 1231.94 94.41 1231.94 92.69ZM1249.98 92.63C1249.98 90.95 1250.31 89.46 1250.97 88.16C1251.65 86.86 1252.56 85.86 1253.7 85.16C1254.86 84.46 1256.15 84.11 1257.57 84.11C1258.81 84.11 1259.89 84.36 1260.81 84.86C1261.75 85.36 1262.5 85.99 1263.06 86.75V84.38H1267.29V101H1263.06V98.57C1262.52 99.35 1261.77 100 1260.81 100.52C1259.87 101.02 1258.78 101.27 1257.54 101.27C1256.14 101.27 1254.86 100.91 1253.7 100.19C1252.56 99.47 1251.65 98.46 1250.97 97.16C1250.31 95.84 1249.98 94.33 1249.98 92.63ZM1263.06 92.69C1263.06 91.67 1262.86 90.8 1262.46 90.08C1262.06 89.34 1261.52 88.78 1260.84 88.4C1260.16 88 1259.43 87.8 1258.65 87.8C1257.87 87.8 1257.15 87.99 1256.49 88.37C1255.83 88.75 1255.29 89.31 1254.87 90.05C1254.47 90.77 1254.27 91.63 1254.27 92.63C1254.27 93.63 1254.47 94.51 1254.87 95.27C1255.29 96.01 1255.83 96.58 1256.49 96.98C1257.17 97.38 1257.89 97.58 1258.65 97.58C1259.43 97.58 1260.16 97.39 1260.84 97.01C1261.52 96.61 1262.06 96.05 1262.46 95.33C1262.86 94.59 1263.06 93.71 1263.06 92.69ZM1276.28 87.83V95.87C1276.28 96.43 1276.41 96.84 1276.67 97.1C1276.95 97.34 1277.41 97.46 1278.05 97.46H1280V101H1277.36C1273.82 101 1272.05 99.28 1272.05 95.84V87.83H1270.07V84.38H1272.05V80.27H1276.28V84.38H1280V87.83H1276.28ZM1285.16 82.4C1284.42 82.4 1283.8 82.17 1283.3 81.71C1282.82 81.23 1282.58 80.64 1282.58 79.94C1282.58 79.24 1282.82 78.66 1283.3 78.2C1283.8 77.72 1284.42 77.48 1285.16 77.48C1285.9 77.48 1286.51 77.72 1286.99 78.2C1287.49 78.66 1287.74 79.24 1287.74 79.94C1287.74 80.64 1287.49 81.23 1286.99 81.71C1286.51 82.17 1285.9 82.4 1285.16 82.4ZM1287.23 84.38V101H1283.03V84.38H1287.23ZM1298.75 101.27C1297.15 101.27 1295.71 100.92 1294.43 100.22C1293.15 99.5 1292.14 98.49 1291.4 97.19C1290.68 95.89 1290.32 94.39 1290.32 92.69C1290.32 90.99 1290.69 89.49 1291.43 88.19C1292.19 86.89 1293.22 85.89 1294.52 85.19C1295.82 84.47 1297.27 84.11 1298.87 84.11C1300.47 84.11 1301.92 84.47 1303.22 85.19C1304.52 85.89 1305.54 86.89 1306.28 88.19C1307.04 89.49 1307.42 90.99 1307.42 92.69C1307.42 94.39 1307.03 95.89 1306.25 97.19C1305.49 98.49 1304.45 99.5 1303.13 100.22C1301.83 100.92 1300.37 101.27 1298.75 101.27ZM1298.75 97.61C1299.51 97.61 1300.22 97.43 1300.88 97.07C1301.56 96.69 1302.1 96.13 1302.5 95.39C1302.9 94.65 1303.1 93.75 1303.1 92.69C1303.1 91.11 1302.68 89.9 1301.84 89.06C1301.02 88.2 1300.01 87.77 1298.81 87.77C1297.61 87.77 1296.6 88.2 1295.78 89.06C1294.98 89.9 1294.58 91.11 1294.58 92.69C1294.58 94.27 1294.97 95.49 1295.75 96.35C1296.55 97.19 1297.55 97.61 1298.75 97.61ZM1319.72 84.14C1321.7 84.14 1323.3 84.77 1324.52 86.03C1325.74 87.27 1326.35 89.01 1326.35 91.25V101H1322.15V91.82C1322.15 90.5 1321.82 89.49 1321.16 88.79C1320.5 88.07 1319.6 87.71 1318.46 87.71C1317.3 87.71 1316.38 88.07 1315.7 88.79C1315.04 89.49 1314.71 90.5 1314.71 91.82V101H1310.51V84.38H1314.71V86.45C1315.27 85.73 1315.98 85.17 1316.84 84.77C1317.72 84.35 1318.68 84.14 1319.72 84.14Z" fill="black"/>
<path d="M994.368 126.878V145H992.002V126.878H994.368ZM1005.34 130.492C1007.08 130.492 1008.48 131.021 1009.55 132.078C1010.63 133.118 1011.17 134.626 1011.17 136.602V145H1008.83V136.94C1008.83 135.519 1008.47 134.435 1007.76 133.69C1007.05 132.927 1006.08 132.546 1004.85 132.546C1003.6 132.546 1002.6 132.936 1001.86 133.716C1001.13 134.496 1000.77 135.631 1000.77 137.122V145H998.4V130.752H1000.77V132.78C1001.23 132.052 1001.87 131.489 1002.66 131.09C1003.48 130.691 1004.37 130.492 1005.34 130.492ZM1020.08 145.234C1018.98 145.234 1018 145.052 1017.14 144.688C1016.27 144.307 1015.59 143.787 1015.08 143.128C1014.58 142.452 1014.3 141.681 1014.25 140.814H1016.7C1016.76 141.525 1017.09 142.105 1017.68 142.556C1018.29 143.007 1019.08 143.232 1020.05 143.232C1020.95 143.232 1021.66 143.033 1022.18 142.634C1022.7 142.235 1022.96 141.733 1022.96 141.126C1022.96 140.502 1022.68 140.043 1022.13 139.748C1021.57 139.436 1020.72 139.133 1019.56 138.838C1018.5 138.561 1017.63 138.283 1016.96 138.006C1016.3 137.711 1015.72 137.287 1015.24 136.732C1014.77 136.16 1014.54 135.415 1014.54 134.496C1014.54 133.768 1014.75 133.101 1015.19 132.494C1015.62 131.887 1016.24 131.411 1017.03 131.064C1017.83 130.7 1018.74 130.518 1019.76 130.518C1021.34 130.518 1022.61 130.917 1023.59 131.714C1024.56 132.511 1025.08 133.603 1025.15 134.99H1022.78C1022.73 134.245 1022.42 133.647 1021.87 133.196C1021.33 132.745 1020.6 132.52 1019.69 132.52C1018.84 132.52 1018.16 132.702 1017.66 133.066C1017.15 133.43 1016.9 133.907 1016.9 134.496C1016.9 134.964 1017.05 135.354 1017.35 135.666C1017.66 135.961 1018.04 136.203 1018.49 136.394C1018.96 136.567 1019.6 136.767 1020.41 136.992C1021.44 137.269 1022.27 137.547 1022.91 137.824C1023.55 138.084 1024.1 138.483 1024.55 139.02C1025.02 139.557 1025.26 140.259 1025.28 141.126C1025.28 141.906 1025.06 142.608 1024.63 143.232C1024.19 143.856 1023.58 144.35 1022.78 144.714C1022 145.061 1021.1 145.234 1020.08 145.234ZM1031.5 132.702V141.1C1031.5 141.793 1031.65 142.287 1031.94 142.582C1032.24 142.859 1032.75 142.998 1033.48 142.998H1035.22V145H1033.09C1031.77 145 1030.78 144.697 1030.12 144.09C1029.46 143.483 1029.14 142.487 1029.14 141.1V132.702H1027.29V130.752H1029.14V127.164H1031.5V130.752H1035.22V132.702H1031.5ZM1039.31 128.438C1038.86 128.438 1038.48 128.282 1038.16 127.97C1037.85 127.658 1037.7 127.277 1037.7 126.826C1037.7 126.375 1037.85 125.994 1038.16 125.682C1038.48 125.37 1038.86 125.214 1039.31 125.214C1039.74 125.214 1040.11 125.37 1040.4 125.682C1040.71 125.994 1040.87 126.375 1040.87 126.826C1040.87 127.277 1040.71 127.658 1040.4 127.97C1040.11 128.282 1039.74 128.438 1039.31 128.438ZM1040.45 130.752V145H1038.09V130.752H1040.45ZM1047.37 132.702V141.1C1047.37 141.793 1047.52 142.287 1047.81 142.582C1048.11 142.859 1048.62 142.998 1049.35 142.998H1051.09V145H1048.96C1047.64 145 1046.65 144.697 1045.99 144.09C1045.33 143.483 1045 142.487 1045 141.1V132.702H1043.16V130.752H1045V127.164H1047.37V130.752H1051.09V132.702H1047.37ZM1066.59 130.752V145H1064.23V142.894C1063.77 143.622 1063.14 144.194 1062.33 144.61C1061.53 145.009 1060.65 145.208 1059.68 145.208C1058.57 145.208 1057.57 144.983 1056.69 144.532C1055.8 144.064 1055.1 143.371 1054.58 142.452C1054.08 141.533 1053.83 140.415 1053.83 139.098V130.752H1056.17V138.786C1056.17 140.19 1056.52 141.273 1057.23 142.036C1057.94 142.781 1058.91 143.154 1060.14 143.154C1061.41 143.154 1062.41 142.764 1063.13 141.984C1063.86 141.204 1064.23 140.069 1064.23 138.578V130.752H1066.59ZM1073.47 132.702V141.1C1073.47 141.793 1073.62 142.287 1073.91 142.582C1074.21 142.859 1074.72 142.998 1075.45 142.998H1077.19V145H1075.06C1073.74 145 1072.75 144.697 1072.09 144.09C1071.44 143.483 1071.11 142.487 1071.11 141.1V132.702H1069.26V130.752H1071.11V127.164H1073.47V130.752H1077.19V132.702H1073.47ZM1093.06 137.33C1093.06 137.781 1093.03 138.257 1092.98 138.76H1081.59C1081.68 140.164 1082.15 141.265 1083.02 142.062C1083.9 142.842 1084.97 143.232 1086.22 143.232C1087.24 143.232 1088.09 142.998 1088.77 142.53C1089.46 142.045 1089.95 141.403 1090.22 140.606H1092.77C1092.39 141.975 1091.63 143.093 1090.48 143.96C1089.34 144.809 1087.92 145.234 1086.22 145.234C1084.87 145.234 1083.65 144.931 1082.58 144.324C1081.52 143.717 1080.69 142.859 1080.08 141.75C1079.48 140.623 1079.17 139.323 1079.17 137.85C1079.17 136.377 1079.47 135.085 1080.06 133.976C1080.65 132.867 1081.47 132.017 1082.53 131.428C1083.6 130.821 1084.83 130.518 1086.22 130.518C1087.57 130.518 1088.77 130.813 1089.81 131.402C1090.85 131.991 1091.64 132.806 1092.2 133.846C1092.77 134.869 1093.06 136.03 1093.06 137.33ZM1090.61 136.836C1090.61 135.935 1090.41 135.163 1090.01 134.522C1089.62 133.863 1089.07 133.369 1088.38 133.04C1087.7 132.693 1086.95 132.52 1086.11 132.52C1084.92 132.52 1083.9 132.901 1083.05 133.664C1082.21 134.427 1081.74 135.484 1081.62 136.836H1090.61ZM1109.33 145.234C1107.99 145.234 1106.78 144.931 1105.69 144.324C1104.61 143.717 1103.76 142.859 1103.14 141.75C1102.53 140.623 1102.23 139.323 1102.23 137.85C1102.23 136.394 1102.54 135.111 1103.16 134.002C1103.8 132.875 1104.67 132.017 1105.76 131.428C1106.86 130.821 1108.08 130.518 1109.43 130.518C1110.78 130.518 1112 130.821 1113.1 131.428C1114.19 132.017 1115.05 132.867 1115.67 133.976C1116.31 135.085 1116.63 136.377 1116.63 137.85C1116.63 139.323 1116.3 140.623 1115.64 141.75C1115 142.859 1114.13 143.717 1113.02 144.324C1111.91 144.931 1110.68 145.234 1109.33 145.234ZM1109.33 143.154C1110.17 143.154 1110.97 142.955 1111.72 142.556C1112.46 142.157 1113.06 141.559 1113.51 140.762C1113.98 139.965 1114.21 138.994 1114.21 137.85C1114.21 136.706 1113.99 135.735 1113.54 134.938C1113.09 134.141 1112.5 133.551 1111.77 133.17C1111.04 132.771 1110.25 132.572 1109.4 132.572C1108.54 132.572 1107.74 132.771 1107.01 133.17C1106.3 133.551 1105.73 134.141 1105.3 134.938C1104.86 135.735 1104.65 136.706 1104.65 137.85C1104.65 139.011 1104.85 139.991 1105.27 140.788C1105.7 141.585 1106.27 142.183 1106.99 142.582C1107.7 142.963 1108.48 143.154 1109.33 143.154ZM1125.54 132.702H1122.55V145H1120.18V132.702H1118.34V130.752H1120.18V129.738C1120.18 128.143 1120.59 126.982 1121.41 126.254C1122.24 125.509 1123.56 125.136 1125.38 125.136V127.112C1124.34 127.112 1123.61 127.32 1123.17 127.736C1122.76 128.135 1122.55 128.802 1122.55 129.738V130.752H1125.54V132.702ZM1140.98 145.182C1139.78 145.182 1138.71 144.974 1137.75 144.558C1136.82 144.125 1136.08 143.535 1135.54 142.79C1135.01 142.027 1134.73 141.152 1134.71 140.164H1137.23C1137.32 141.013 1137.67 141.733 1138.27 142.322C1138.9 142.894 1139.8 143.18 1140.98 143.18C1142.1 143.18 1142.99 142.903 1143.63 142.348C1144.29 141.776 1144.62 141.048 1144.62 140.164C1144.62 139.471 1144.43 138.907 1144.04 138.474C1143.66 138.041 1143.19 137.711 1142.61 137.486C1142.04 137.261 1141.27 137.018 1140.3 136.758C1139.1 136.446 1138.14 136.134 1137.41 135.822C1136.7 135.51 1136.09 135.025 1135.57 134.366C1135.07 133.69 1134.81 132.789 1134.81 131.662C1134.81 130.674 1135.07 129.799 1135.57 129.036C1136.07 128.273 1136.77 127.684 1137.67 127.268C1138.59 126.852 1139.64 126.644 1140.82 126.644C1142.52 126.644 1143.91 127.069 1144.98 127.918C1146.07 128.767 1146.69 129.894 1146.83 131.298H1144.23C1144.14 130.605 1143.78 129.998 1143.13 129.478C1142.49 128.941 1141.64 128.672 1140.59 128.672C1139.6 128.672 1138.79 128.932 1138.17 129.452C1137.54 129.955 1137.23 130.665 1137.23 131.584C1137.23 132.243 1137.41 132.78 1137.78 133.196C1138.16 133.612 1138.62 133.933 1139.16 134.158C1139.71 134.366 1140.48 134.609 1141.47 134.886C1142.67 135.215 1143.63 135.545 1144.36 135.874C1145.08 136.186 1145.71 136.68 1146.23 137.356C1146.75 138.015 1147.01 138.916 1147.01 140.06C1147.01 140.944 1146.77 141.776 1146.31 142.556C1145.84 143.336 1145.15 143.969 1144.23 144.454C1143.31 144.939 1142.22 145.182 1140.98 145.182ZM1156.7 145.234C1155.37 145.234 1154.16 144.931 1153.06 144.324C1151.99 143.717 1151.14 142.859 1150.52 141.75C1149.91 140.623 1149.61 139.323 1149.61 137.85C1149.61 136.394 1149.92 135.111 1150.54 134.002C1151.18 132.875 1152.05 132.017 1153.14 131.428C1154.23 130.821 1155.46 130.518 1156.81 130.518C1158.16 130.518 1159.38 130.821 1160.47 131.428C1161.57 132.017 1162.42 132.867 1163.05 133.976C1163.69 135.085 1164.01 136.377 1164.01 137.85C1164.01 139.323 1163.68 140.623 1163.02 141.75C1162.38 142.859 1161.51 143.717 1160.4 144.324C1159.29 144.931 1158.06 145.234 1156.7 145.234ZM1156.7 143.154C1157.55 143.154 1158.35 142.955 1159.1 142.556C1159.84 142.157 1160.44 141.559 1160.89 140.762C1161.36 139.965 1161.59 138.994 1161.59 137.85C1161.59 136.706 1161.37 135.735 1160.92 134.938C1160.47 134.141 1159.88 133.551 1159.15 133.17C1158.42 132.771 1157.63 132.572 1156.78 132.572C1155.92 132.572 1155.12 132.771 1154.39 133.17C1153.68 133.551 1153.11 134.141 1152.67 134.938C1152.24 135.735 1152.02 136.706 1152.02 137.85C1152.02 139.011 1152.23 139.991 1152.65 140.788C1153.08 141.585 1153.65 142.183 1154.36 142.582C1155.07 142.963 1155.85 143.154 1156.7 143.154ZM1172.92 132.702H1169.93V145H1167.56V132.702H1165.72V130.752H1167.56V129.738C1167.56 128.143 1167.97 126.982 1168.79 126.254C1169.62 125.509 1170.94 125.136 1172.76 125.136V127.112C1171.72 127.112 1170.99 127.32 1170.55 127.736C1170.14 128.135 1169.93 128.802 1169.93 129.738V130.752H1172.92V132.702ZM1178.56 132.702V141.1C1178.56 141.793 1178.71 142.287 1179.01 142.582C1179.3 142.859 1179.81 142.998 1180.54 142.998H1182.28V145H1180.15C1178.83 145 1177.84 144.697 1177.19 144.09C1176.53 143.483 1176.2 142.487 1176.2 141.1V132.702H1174.35V130.752H1176.2V127.164H1178.56V130.752H1182.28V132.702H1178.56ZM1204.13 130.752L1199.68 145H1197.24L1193.81 133.69L1190.37 145H1187.93L1183.46 130.752H1185.88L1189.15 142.712L1192.69 130.752H1195.11L1198.56 142.738L1201.79 130.752H1204.13ZM1205.59 137.824C1205.59 136.368 1205.89 135.094 1206.48 134.002C1207.07 132.893 1207.87 132.035 1208.89 131.428C1209.93 130.821 1211.09 130.518 1212.35 130.518C1213.6 130.518 1214.68 130.787 1215.6 131.324C1216.52 131.861 1217.21 132.537 1217.66 133.352V130.752H1220.05V145H1217.66V142.348C1217.19 143.18 1216.49 143.873 1215.55 144.428C1214.63 144.965 1213.56 145.234 1212.33 145.234C1211.06 145.234 1209.92 144.922 1208.89 144.298C1207.87 143.674 1207.07 142.799 1206.48 141.672C1205.89 140.545 1205.59 139.263 1205.59 137.824ZM1217.66 137.85C1217.66 136.775 1217.44 135.839 1217.01 135.042C1216.57 134.245 1215.98 133.638 1215.24 133.222C1214.51 132.789 1213.7 132.572 1212.82 132.572C1211.94 132.572 1211.13 132.78 1210.4 133.196C1209.67 133.612 1209.09 134.219 1208.66 135.016C1208.23 135.813 1208.01 136.749 1208.01 137.824C1208.01 138.916 1208.23 139.869 1208.66 140.684C1209.09 141.481 1209.67 142.097 1210.4 142.53C1211.13 142.946 1211.94 143.154 1212.82 143.154C1213.7 143.154 1214.51 142.946 1215.24 142.53C1215.98 142.097 1216.57 141.481 1217.01 140.684C1217.44 139.869 1217.66 138.925 1217.66 137.85ZM1226.41 133.066C1226.83 132.251 1227.42 131.619 1228.18 131.168C1228.96 130.717 1229.91 130.492 1231.01 130.492V132.936H1230.39C1227.74 132.936 1226.41 134.375 1226.41 137.252V145H1224.05V130.752H1226.41V133.066ZM1246.75 137.33C1246.75 137.781 1246.72 138.257 1246.67 138.76H1235.28C1235.37 140.164 1235.84 141.265 1236.71 142.062C1237.59 142.842 1238.66 143.232 1239.91 143.232C1240.93 143.232 1241.78 142.998 1242.46 142.53C1243.15 142.045 1243.63 141.403 1243.91 140.606H1246.46C1246.08 141.975 1245.32 143.093 1244.17 143.96C1243.03 144.809 1241.61 145.234 1239.91 145.234C1238.56 145.234 1237.34 144.931 1236.27 144.324C1235.21 143.717 1234.38 142.859 1233.77 141.75C1233.17 140.623 1232.86 139.323 1232.86 137.85C1232.86 136.377 1233.16 135.085 1233.75 133.976C1234.34 132.867 1235.16 132.017 1236.22 131.428C1237.29 130.821 1238.52 130.518 1239.91 130.518C1241.26 130.518 1242.46 130.813 1243.5 131.402C1244.54 131.991 1245.33 132.806 1245.89 133.846C1246.46 134.869 1246.75 136.03 1246.75 137.33ZM1244.3 136.836C1244.3 135.935 1244.1 135.163 1243.7 134.522C1243.31 133.863 1242.76 133.369 1242.07 133.04C1241.39 132.693 1240.64 132.52 1239.8 132.52C1238.61 132.52 1237.59 132.901 1236.74 133.664C1235.9 134.427 1235.43 135.484 1235.31 136.836H1244.3ZM1259.17 128.802V134.86H1265.77V136.81H1259.17V143.05H1266.55V145H1256.8V126.852H1266.55V128.802H1259.17ZM1277.07 130.492C1278.81 130.492 1280.21 131.021 1281.28 132.078C1282.36 133.118 1282.9 134.626 1282.9 136.602V145H1280.56V136.94C1280.56 135.519 1280.2 134.435 1279.49 133.69C1278.78 132.927 1277.81 132.546 1276.58 132.546C1275.33 132.546 1274.33 132.936 1273.59 133.716C1272.86 134.496 1272.5 135.631 1272.5 137.122V145H1270.13V130.752H1272.5V132.78C1272.96 132.052 1273.6 131.489 1274.39 131.09C1275.21 130.691 1276.1 130.492 1277.07 130.492ZM1292.64 130.518C1293.87 130.518 1294.94 130.787 1295.86 131.324C1296.8 131.861 1297.49 132.537 1297.94 133.352V130.752H1300.33V145.312C1300.33 146.612 1300.06 147.765 1299.5 148.77C1298.95 149.793 1298.15 150.59 1297.11 151.162C1296.09 151.734 1294.89 152.02 1293.52 152.02C1291.65 152.02 1290.09 151.578 1288.84 150.694C1287.59 149.81 1286.86 148.605 1286.63 147.08H1288.97C1289.23 147.947 1289.77 148.64 1290.58 149.16C1291.4 149.697 1292.38 149.966 1293.52 149.966C1294.82 149.966 1295.88 149.559 1296.69 148.744C1297.53 147.929 1297.94 146.785 1297.94 145.312V142.322C1297.47 143.154 1296.78 143.847 1295.86 144.402C1294.94 144.957 1293.87 145.234 1292.64 145.234C1291.37 145.234 1290.22 144.922 1289.18 144.298C1288.16 143.674 1287.35 142.799 1286.76 141.672C1286.17 140.545 1285.88 139.263 1285.88 137.824C1285.88 136.368 1286.17 135.094 1286.76 134.002C1287.35 132.893 1288.16 132.035 1289.18 131.428C1290.22 130.821 1291.37 130.518 1292.64 130.518ZM1297.94 137.85C1297.94 136.775 1297.73 135.839 1297.29 135.042C1296.86 134.245 1296.27 133.638 1295.52 133.222C1294.8 132.789 1293.99 132.572 1293.11 132.572C1292.22 132.572 1291.42 132.78 1290.69 133.196C1289.96 133.612 1289.38 134.219 1288.95 135.016C1288.51 135.813 1288.3 136.749 1288.3 137.824C1288.3 138.916 1288.51 139.869 1288.95 140.684C1289.38 141.481 1289.96 142.097 1290.69 142.53C1291.42 142.946 1292.22 143.154 1293.11 143.154C1293.99 143.154 1294.8 142.946 1295.52 142.53C1296.27 142.097 1296.86 141.481 1297.29 140.684C1297.73 139.869 1297.94 138.925 1297.94 137.85ZM1305.55 128.438C1305.1 128.438 1304.72 128.282 1304.41 127.97C1304.1 127.658 1303.94 127.277 1303.94 126.826C1303.94 126.375 1304.1 125.994 1304.41 125.682C1304.72 125.37 1305.1 125.214 1305.55 125.214C1305.99 125.214 1306.35 125.37 1306.65 125.682C1306.96 125.994 1307.11 126.375 1307.11 126.826C1307.11 127.277 1306.96 127.658 1306.65 127.97C1306.35 128.282 1305.99 128.438 1305.55 128.438ZM1306.7 130.752V145H1304.33V130.752H1306.7ZM1317.67 130.492C1319.41 130.492 1320.81 131.021 1321.88 132.078C1322.96 133.118 1323.5 134.626 1323.5 136.602V145H1321.16V136.94C1321.16 135.519 1320.8 134.435 1320.09 133.69C1319.38 132.927 1318.41 132.546 1317.18 132.546C1315.93 132.546 1314.93 132.936 1314.19 133.716C1313.46 134.496 1313.1 135.631 1313.1 137.122V145H1310.73V130.752H1313.1V132.78C1313.56 132.052 1314.2 131.489 1314.99 131.09C1315.81 130.691 1316.7 130.492 1317.67 130.492ZM1340.36 137.33C1340.36 137.781 1340.34 138.257 1340.28 138.76H1328.9C1328.98 140.164 1329.46 141.265 1330.33 142.062C1331.21 142.842 1332.28 143.232 1333.52 143.232C1334.55 143.232 1335.4 142.998 1336.07 142.53C1336.76 142.045 1337.25 141.403 1337.53 140.606H1340.08C1339.69 141.975 1338.93 143.093 1337.79 143.96C1336.64 144.809 1335.22 145.234 1333.52 145.234C1332.17 145.234 1330.96 144.931 1329.88 144.324C1328.83 143.717 1327.99 142.859 1327.39 141.75C1326.78 140.623 1326.48 139.323 1326.48 137.85C1326.48 136.377 1326.77 135.085 1327.36 133.976C1327.95 132.867 1328.77 132.017 1329.83 131.428C1330.91 130.821 1332.14 130.518 1333.52 130.518C1334.88 130.518 1336.07 130.813 1337.11 131.402C1338.15 131.991 1338.95 132.806 1339.5 133.846C1340.08 134.869 1340.36 136.03 1340.36 137.33ZM1337.92 136.836C1337.92 135.935 1337.72 135.163 1337.32 134.522C1336.92 133.863 1336.37 133.369 1335.68 133.04C1335.01 132.693 1334.25 132.52 1333.42 132.52C1332.22 132.52 1331.2 132.901 1330.35 133.664C1329.52 134.427 1329.04 135.484 1328.92 136.836H1337.92ZM1356.48 137.33C1356.48 137.781 1356.46 138.257 1356.41 138.76H1345.02C1345.11 140.164 1345.58 141.265 1346.45 142.062C1347.33 142.842 1348.4 143.232 1349.65 143.232C1350.67 143.232 1351.52 142.998 1352.19 142.53C1352.89 142.045 1353.37 141.403 1353.65 140.606H1356.2C1355.82 141.975 1355.05 143.093 1353.91 143.96C1352.77 144.809 1351.35 145.234 1349.65 145.234C1348.29 145.234 1347.08 144.931 1346.01 144.324C1344.95 143.717 1344.12 142.859 1343.51 141.75C1342.9 140.623 1342.6 139.323 1342.6 137.85C1342.6 136.377 1342.9 135.085 1343.48 133.976C1344.07 132.867 1344.9 132.017 1345.95 131.428C1347.03 130.821 1348.26 130.518 1349.65 130.518C1351 130.518 1352.19 130.813 1353.23 131.402C1354.27 131.991 1355.07 132.806 1355.63 133.846C1356.2 134.869 1356.48 136.03 1356.48 137.33ZM1354.04 136.836C1354.04 135.935 1353.84 135.163 1353.44 134.522C1353.04 133.863 1352.5 133.369 1351.8 133.04C1351.13 132.693 1350.37 132.52 1349.54 132.52C1348.35 132.52 1347.32 132.901 1346.47 133.664C1345.64 134.427 1345.17 135.484 1345.04 136.836H1354.04ZM1361.97 133.066C1362.39 132.251 1362.98 131.619 1363.74 131.168C1364.52 130.717 1365.47 130.492 1366.58 130.492V132.936H1365.95C1363.3 132.936 1361.97 134.375 1361.97 137.252V145H1359.61V130.752H1361.97V133.066ZM1370.53 128.438C1370.08 128.438 1369.7 128.282 1369.38 127.97C1369.07 127.658 1368.92 127.277 1368.92 126.826C1368.92 126.375 1369.07 125.994 1369.38 125.682C1369.7 125.37 1370.08 125.214 1370.53 125.214C1370.96 125.214 1371.33 125.37 1371.62 125.682C1371.93 125.994 1372.09 126.375 1372.09 126.826C1372.09 127.277 1371.93 127.658 1371.62 127.97C1371.33 128.282 1370.96 128.438 1370.53 128.438ZM1371.67 130.752V145H1369.31V130.752H1371.67ZM1382.65 130.492C1384.38 130.492 1385.78 131.021 1386.86 132.078C1387.93 133.118 1388.47 134.626 1388.47 136.602V145H1386.13V136.94C1386.13 135.519 1385.78 134.435 1385.07 133.69C1384.35 132.927 1383.38 132.546 1382.15 132.546C1380.91 132.546 1379.91 132.936 1379.16 133.716C1378.44 134.496 1378.07 135.631 1378.07 137.122V145H1375.71V130.752H1378.07V132.78C1378.54 132.052 1379.17 131.489 1379.97 131.09C1380.78 130.691 1381.68 130.492 1382.65 130.492ZM1398.21 130.518C1399.44 130.518 1400.52 130.787 1401.44 131.324C1402.37 131.861 1403.07 132.537 1403.52 133.352V130.752H1405.91V145.312C1405.91 146.612 1405.63 147.765 1405.08 148.77C1404.52 149.793 1403.72 150.59 1402.68 151.162C1401.66 151.734 1400.47 152.02 1399.1 152.02C1397.22 152.02 1395.66 151.578 1394.42 150.694C1393.17 149.81 1392.43 148.605 1392.21 147.08H1394.55C1394.81 147.947 1395.34 148.64 1396.16 149.16C1396.97 149.697 1397.95 149.966 1399.1 149.966C1400.4 149.966 1401.45 149.559 1402.27 148.744C1403.1 147.929 1403.52 146.785 1403.52 145.312V142.322C1403.05 143.154 1402.35 143.847 1401.44 144.402C1400.52 144.957 1399.44 145.234 1398.21 145.234C1396.95 145.234 1395.79 144.922 1394.75 144.298C1393.73 143.674 1392.93 142.799 1392.34 141.672C1391.75 140.545 1391.45 139.263 1391.45 137.824C1391.45 136.368 1391.75 135.094 1392.34 134.002C1392.93 132.893 1393.73 132.035 1394.75 131.428C1395.79 130.821 1396.95 130.518 1398.21 130.518ZM1403.52 137.85C1403.52 136.775 1403.3 135.839 1402.87 135.042C1402.43 134.245 1401.84 133.638 1401.1 133.222C1400.37 132.789 1399.56 132.572 1398.68 132.572C1397.8 132.572 1396.99 132.78 1396.26 133.196C1395.53 133.612 1394.95 134.219 1394.52 135.016C1394.09 135.813 1393.87 136.749 1393.87 137.824C1393.87 138.916 1394.09 139.869 1394.52 140.684C1394.95 141.481 1395.53 142.097 1396.26 142.53C1396.99 142.946 1397.8 143.154 1398.68 143.154C1399.56 143.154 1400.37 142.946 1401.1 142.53C1401.84 142.097 1402.43 141.481 1402.87 140.684C1403.3 139.869 1403.52 138.925 1403.52 137.85Z" fill="#6D6A7C"/>
<path d="M1149.17 200.321C1151.12 198.757 1152.65 197.477 1153.75 196.48C1154.85 195.468 1155.78 194.418 1156.53 193.329C1157.3 192.225 1157.68 191.144 1157.68 190.086C1157.68 189.089 1157.44 188.307 1156.95 187.74C1156.47 187.157 1155.7 186.866 1154.62 186.866C1153.58 186.866 1152.77 187.196 1152.19 187.855C1151.62 188.499 1151.31 189.365 1151.27 190.454H1149.24C1149.3 188.737 1149.82 187.41 1150.81 186.475C1151.79 185.54 1153.05 185.072 1154.6 185.072C1156.18 185.072 1157.43 185.509 1158.35 186.383C1159.29 187.257 1159.75 188.461 1159.75 189.994C1159.75 191.267 1159.37 192.509 1158.6 193.72C1157.85 194.916 1156.99 195.974 1156.03 196.894C1155.06 197.799 1153.83 198.857 1152.32 200.068H1160.24V201.816H1149.17V200.321ZM1162.66 193.513C1162.66 190.876 1163.08 188.821 1163.94 187.349C1164.8 185.862 1166.3 185.118 1168.45 185.118C1170.58 185.118 1172.08 185.862 1172.94 187.349C1173.8 188.821 1174.22 190.876 1174.22 193.513C1174.22 196.196 1173.8 198.282 1172.94 199.769C1172.08 201.256 1170.58 202 1168.45 202C1166.3 202 1164.8 201.256 1163.94 199.769C1163.08 198.282 1162.66 196.196 1162.66 193.513ZM1172.15 193.513C1172.15 192.179 1172.06 191.052 1171.88 190.132C1171.71 189.197 1171.35 188.445 1170.8 187.878C1170.26 187.311 1169.48 187.027 1168.45 187.027C1167.41 187.027 1166.61 187.311 1166.06 187.878C1165.52 188.445 1165.16 189.197 1164.98 190.132C1164.81 191.052 1164.73 192.179 1164.73 193.513C1164.73 194.893 1164.81 196.051 1164.98 196.986C1165.16 197.921 1165.52 198.673 1166.06 199.24C1166.61 199.807 1167.41 200.091 1168.45 200.091C1169.48 200.091 1170.26 199.807 1170.8 199.24C1171.35 198.673 1171.71 197.921 1171.88 196.986C1172.06 196.051 1172.15 194.893 1172.15 193.513ZM1176.84 200.321C1178.79 198.757 1180.32 197.477 1181.42 196.48C1182.53 195.468 1183.45 194.418 1184.2 193.329C1184.97 192.225 1185.35 191.144 1185.35 190.086C1185.35 189.089 1185.11 188.307 1184.62 187.74C1184.14 187.157 1183.37 186.866 1182.3 186.866C1181.25 186.866 1180.44 187.196 1179.86 187.855C1179.29 188.499 1178.98 189.365 1178.94 190.454H1176.91C1176.98 188.737 1177.5 187.41 1178.48 186.475C1179.46 185.54 1180.72 185.072 1182.27 185.072C1183.85 185.072 1185.1 185.509 1186.02 186.383C1186.96 187.257 1187.42 188.461 1187.42 189.994C1187.42 191.267 1187.04 192.509 1186.27 193.72C1185.52 194.916 1184.66 195.974 1183.7 196.894C1182.73 197.799 1181.5 198.857 1180 200.068H1187.91V201.816H1176.84V200.321ZM1189.78 187.28V185.371H1194.1V202H1191.98V187.28H1189.78ZM1206.78 192.685V194.456H1197.6V192.685H1206.78ZM1221.43 190.661C1221.43 191.995 1220.97 193.107 1220.05 193.996C1219.14 194.87 1217.75 195.307 1215.88 195.307H1212.8V202H1210.71V185.969H1215.88C1217.69 185.969 1219.06 186.406 1220 187.28C1220.95 188.154 1221.43 189.281 1221.43 190.661ZM1215.88 193.582C1217.05 193.582 1217.91 193.329 1218.46 192.823C1219.01 192.317 1219.29 191.596 1219.29 190.661C1219.29 188.683 1218.15 187.694 1215.88 187.694H1212.8V193.582H1215.88ZM1226.12 191.443C1226.49 190.722 1227.01 190.163 1227.68 189.764C1228.37 189.365 1229.21 189.166 1230.19 189.166V191.328H1229.64C1227.29 191.328 1226.12 192.601 1226.12 195.146V202H1224.03V189.396H1226.12V191.443ZM1244.11 195.215C1244.11 195.614 1244.08 196.035 1244.04 196.48H1233.96C1234.04 197.722 1234.46 198.696 1235.23 199.401C1236.01 200.091 1236.95 200.436 1238.06 200.436C1238.96 200.436 1239.71 200.229 1240.31 199.815C1240.93 199.386 1241.35 198.818 1241.6 198.113H1243.85C1243.52 199.324 1242.84 200.313 1241.83 201.08C1240.82 201.831 1239.56 202.207 1238.06 202.207C1236.86 202.207 1235.79 201.939 1234.84 201.402C1233.9 200.865 1233.17 200.106 1232.63 199.125C1232.09 198.128 1231.82 196.978 1231.82 195.675C1231.82 194.372 1232.09 193.229 1232.61 192.248C1233.13 191.267 1233.86 190.515 1234.79 189.994C1235.74 189.457 1236.83 189.189 1238.06 189.189C1239.25 189.189 1240.31 189.45 1241.23 189.971C1242.15 190.492 1242.86 191.213 1243.35 192.133C1243.85 193.038 1244.11 194.065 1244.11 195.215ZM1241.94 194.778C1241.94 193.981 1241.77 193.298 1241.42 192.731C1241.06 192.148 1240.58 191.711 1239.97 191.42C1239.37 191.113 1238.7 190.96 1237.97 190.96C1236.91 190.96 1236 191.297 1235.25 191.972C1234.52 192.647 1234.09 193.582 1233.99 194.778H1241.94ZM1251.33 202.207C1250.37 202.207 1249.5 202.046 1248.73 201.724C1247.97 201.387 1247.36 200.927 1246.92 200.344C1246.47 199.746 1246.23 199.064 1246.18 198.297H1248.34C1248.4 198.926 1248.69 199.439 1249.22 199.838C1249.75 200.237 1250.45 200.436 1251.31 200.436C1252.11 200.436 1252.73 200.26 1253.19 199.907C1253.65 199.554 1253.88 199.11 1253.88 198.573C1253.88 198.021 1253.64 197.615 1253.15 197.354C1252.66 197.078 1251.9 196.81 1250.87 196.549C1249.94 196.304 1249.17 196.058 1248.57 195.813C1247.99 195.552 1247.48 195.177 1247.05 194.686C1246.64 194.18 1246.43 193.521 1246.43 192.708C1246.43 192.064 1246.62 191.474 1247.01 190.937C1247.39 190.4 1247.94 189.979 1248.64 189.672C1249.35 189.35 1250.15 189.189 1251.06 189.189C1252.45 189.189 1253.58 189.542 1254.44 190.247C1255.3 190.952 1255.76 191.918 1255.82 193.145H1253.72C1253.68 192.486 1253.41 191.957 1252.92 191.558C1252.44 191.159 1251.8 190.96 1250.99 190.96C1250.24 190.96 1249.64 191.121 1249.19 191.443C1248.75 191.765 1248.53 192.187 1248.53 192.708C1248.53 193.122 1248.66 193.467 1248.92 193.743C1249.19 194.004 1249.53 194.218 1249.93 194.387C1250.34 194.54 1250.91 194.717 1251.63 194.916C1252.54 195.161 1253.27 195.407 1253.84 195.652C1254.41 195.882 1254.89 196.235 1255.29 196.71C1255.7 197.185 1255.92 197.806 1255.93 198.573C1255.93 199.263 1255.74 199.884 1255.36 200.436C1254.97 200.988 1254.43 201.425 1253.72 201.747C1253.03 202.054 1252.24 202.207 1251.33 202.207ZM1270.39 195.215C1270.39 195.614 1270.36 196.035 1270.32 196.48H1260.24C1260.32 197.722 1260.74 198.696 1261.51 199.401C1262.29 200.091 1263.23 200.436 1264.34 200.436C1265.24 200.436 1265.99 200.229 1266.59 199.815C1267.2 199.386 1267.63 198.818 1267.88 198.113H1270.13C1269.8 199.324 1269.12 200.313 1268.11 201.08C1267.1 201.831 1265.84 202.207 1264.34 202.207C1263.14 202.207 1262.07 201.939 1261.12 201.402C1260.18 200.865 1259.45 200.106 1258.91 199.125C1258.37 198.128 1258.1 196.978 1258.1 195.675C1258.1 194.372 1258.36 193.229 1258.89 192.248C1259.41 191.267 1260.14 190.515 1261.07 189.994C1262.02 189.457 1263.11 189.189 1264.34 189.189C1265.53 189.189 1266.59 189.45 1267.51 189.971C1268.43 190.492 1269.14 191.213 1269.63 192.133C1270.13 193.038 1270.39 194.065 1270.39 195.215ZM1268.22 194.778C1268.22 193.981 1268.05 193.298 1267.7 192.731C1267.34 192.148 1266.86 191.711 1266.25 191.42C1265.65 191.113 1264.98 190.96 1264.25 190.96C1263.19 190.96 1262.28 191.297 1261.53 191.972C1260.8 192.647 1260.37 193.582 1260.27 194.778H1268.22ZM1279.29 189.166C1280.82 189.166 1282.07 189.634 1283.02 190.569C1283.97 191.489 1284.44 192.823 1284.44 194.571V202H1282.37V194.87C1282.37 193.613 1282.06 192.654 1281.43 191.995C1280.8 191.32 1279.94 190.983 1278.85 190.983C1277.75 190.983 1276.87 191.328 1276.21 192.018C1275.56 192.708 1275.24 193.712 1275.24 195.031V202H1273.15V189.396H1275.24V191.19C1275.66 190.546 1276.22 190.048 1276.92 189.695C1277.64 189.342 1278.43 189.166 1279.29 189.166ZM1290.41 191.121V198.55C1290.41 199.163 1290.54 199.6 1290.8 199.861C1291.07 200.106 1291.52 200.229 1292.16 200.229H1293.7V202H1291.82C1290.65 202 1289.78 201.732 1289.19 201.195C1288.61 200.658 1288.32 199.777 1288.32 198.55V191.121H1286.69V189.396H1288.32V186.222H1290.41V189.396H1293.7V191.121H1290.41Z" fill="#888597"/>
<path d="M1123.08 185.07H1118.25V183.23C1118.25 183.103 1118.15 183 1118.02 183H1116.41C1116.28 183 1116.18 183.103 1116.18 183.23V185.07H1108.82V183.23C1108.82 183.103 1108.72 183 1108.59 183H1106.98C1106.85 183 1106.75 183.103 1106.75 183.23V185.07H1101.92C1101.41 185.07 1101 185.481 1101 185.99V205.08C1101 205.589 1101.41 206 1101.92 206H1123.08C1123.59 206 1124 205.589 1124 205.08V185.99C1124 185.481 1123.59 185.07 1123.08 185.07ZM1121.93 203.93H1103.07V193.005H1121.93V203.93ZM1103.07 191.05V187.14H1106.75V188.52C1106.75 188.646 1106.85 188.75 1106.98 188.75H1108.59C1108.72 188.75 1108.82 188.646 1108.82 188.52V187.14H1116.18V188.52C1116.18 188.646 1116.28 188.75 1116.41 188.75H1118.02C1118.15 188.75 1118.25 188.646 1118.25 188.52V187.14H1121.93V191.05H1103.07Z" fill="#888597"/>
<g filter="url(#filter1_d_563_16)">
<rect x="949" y="402" width="502" height="208" rx="55" fill="#F0F1F8"/>
</g>
<path d="M1075.34 451.54C1075.34 452.66 1075.07 453.71 1074.53 454.69C1074.01 455.67 1073.18 456.46 1072.04 457.06C1070.92 457.66 1069.5 457.96 1067.78 457.96H1064.27V466H1060.07V445.06H1067.78C1069.4 445.06 1070.78 445.34 1071.92 445.9C1073.06 446.46 1073.91 447.23 1074.47 448.21C1075.05 449.19 1075.34 450.3 1075.34 451.54ZM1067.6 454.57C1068.76 454.57 1069.62 454.31 1070.18 453.79C1070.74 453.25 1071.02 452.5 1071.02 451.54C1071.02 449.5 1069.88 448.48 1067.6 448.48H1064.27V454.57H1067.6ZM1082.52 451.96C1083.06 451.08 1083.76 450.39 1084.62 449.89C1085.5 449.39 1086.5 449.14 1087.62 449.14V453.55H1086.51C1085.19 453.55 1084.19 453.86 1083.51 454.48C1082.85 455.1 1082.52 456.18 1082.52 457.72V466H1078.32V449.38H1082.52V451.96ZM1092.58 447.4C1091.84 447.4 1091.22 447.17 1090.72 446.71C1090.24 446.23 1090 445.64 1090 444.94C1090 444.24 1090.24 443.66 1090.72 443.2C1091.22 442.72 1091.84 442.48 1092.58 442.48C1093.32 442.48 1093.93 442.72 1094.41 443.2C1094.91 443.66 1095.16 444.24 1095.16 444.94C1095.16 445.64 1094.91 446.23 1094.41 446.71C1093.93 447.17 1093.32 447.4 1092.58 447.4ZM1094.65 449.38V466H1090.45V449.38H1094.65ZM1119.44 449.14C1121.48 449.14 1123.12 449.77 1124.36 451.03C1125.62 452.27 1126.25 454.01 1126.25 456.25V466H1122.05V456.82C1122.05 455.52 1121.72 454.53 1121.06 453.85C1120.4 453.15 1119.5 452.8 1118.36 452.8C1117.22 452.8 1116.31 453.15 1115.63 453.85C1114.97 454.53 1114.64 455.52 1114.64 456.82V466H1110.44V456.82C1110.44 455.52 1110.11 454.53 1109.45 453.85C1108.79 453.15 1107.89 452.8 1106.75 452.8C1105.59 452.8 1104.67 453.15 1103.99 453.85C1103.33 454.53 1103 455.52 1103 456.82V466H1098.8V449.38H1103V451.39C1103.54 450.69 1104.23 450.14 1105.07 449.74C1105.93 449.34 1106.87 449.14 1107.89 449.14C1109.19 449.14 1110.35 449.42 1111.37 449.98C1112.39 450.52 1113.18 451.3 1113.74 452.32C1114.28 451.36 1115.06 450.59 1116.08 450.01C1117.12 449.43 1118.24 449.14 1119.44 449.14ZM1129.16 457.63C1129.16 455.95 1129.49 454.46 1130.15 453.16C1130.83 451.86 1131.74 450.86 1132.88 450.16C1134.04 449.46 1135.33 449.11 1136.75 449.11C1137.99 449.11 1139.07 449.36 1139.99 449.86C1140.93 450.36 1141.68 450.99 1142.24 451.75V449.38H1146.47V466H1142.24V463.57C1141.7 464.35 1140.95 465 1139.99 465.52C1139.05 466.02 1137.96 466.27 1136.72 466.27C1135.32 466.27 1134.04 465.91 1132.88 465.19C1131.74 464.47 1130.83 463.46 1130.15 462.16C1129.49 460.84 1129.16 459.33 1129.16 457.63ZM1142.24 457.69C1142.24 456.67 1142.04 455.8 1141.64 455.08C1141.24 454.34 1140.7 453.78 1140.02 453.4C1139.34 453 1138.61 452.8 1137.83 452.8C1137.05 452.8 1136.33 452.99 1135.67 453.37C1135.01 453.75 1134.47 454.31 1134.05 455.05C1133.65 455.77 1133.45 456.63 1133.45 457.63C1133.45 458.63 1133.65 459.51 1134.05 460.27C1134.47 461.01 1135.01 461.58 1135.67 461.98C1136.35 462.38 1137.07 462.58 1137.83 462.58C1138.61 462.58 1139.34 462.39 1140.02 462.01C1140.7 461.61 1141.24 461.05 1141.64 460.33C1142.04 459.59 1142.24 458.71 1142.24 457.69ZM1154.77 451.96C1155.31 451.08 1156.01 450.39 1156.87 449.89C1157.75 449.39 1158.75 449.14 1159.87 449.14V453.55H1158.76C1157.44 453.55 1156.44 453.86 1155.76 454.48C1155.1 455.1 1154.77 456.18 1154.77 457.72V466H1150.57V449.38H1154.77V451.96ZM1178.6 449.38L1168.31 473.86H1163.84L1167.44 465.58L1160.78 449.38H1165.49L1169.78 460.99L1174.13 449.38H1178.6ZM1192.21 448.45V453.7H1199.26V457.03H1192.21V462.58H1200.16V466H1188.01V445.03H1200.16V448.45H1192.21ZM1202.9 457.63C1202.9 455.95 1203.23 454.46 1203.89 453.16C1204.57 451.86 1205.49 450.86 1206.65 450.16C1207.81 449.46 1209.1 449.11 1210.52 449.11C1211.6 449.11 1212.63 449.35 1213.61 449.83C1214.59 450.29 1215.37 450.91 1215.95 451.69V443.8H1220.21V466H1215.95V463.54C1215.43 464.36 1214.7 465.02 1213.76 465.52C1212.82 466.02 1211.73 466.27 1210.49 466.27C1209.09 466.27 1207.81 465.91 1206.65 465.19C1205.49 464.47 1204.57 463.46 1203.89 462.16C1203.23 460.84 1202.9 459.33 1202.9 457.63ZM1215.98 457.69C1215.98 456.67 1215.78 455.8 1215.38 455.08C1214.98 454.34 1214.44 453.78 1213.76 453.4C1213.08 453 1212.35 452.8 1211.57 452.8C1210.79 452.8 1210.07 452.99 1209.41 453.37C1208.75 453.75 1208.21 454.31 1207.79 455.05C1207.39 455.77 1207.19 456.63 1207.19 457.63C1207.19 458.63 1207.39 459.51 1207.79 460.27C1208.21 461.01 1208.75 461.58 1209.41 461.98C1210.09 462.38 1210.81 462.58 1211.57 462.58C1212.35 462.58 1213.08 462.39 1213.76 462.01C1214.44 461.61 1214.98 461.05 1215.38 460.33C1215.78 459.59 1215.98 458.71 1215.98 457.69ZM1240 449.38V466H1235.77V463.9C1235.23 464.62 1234.52 465.19 1233.64 465.61C1232.78 466.01 1231.84 466.21 1230.82 466.21C1229.52 466.21 1228.37 465.94 1227.37 465.4C1226.37 464.84 1225.58 464.03 1225 462.97C1224.44 461.89 1224.16 460.61 1224.16 459.13V449.38H1228.36V458.53C1228.36 459.85 1228.69 460.87 1229.35 461.59C1230.01 462.29 1230.91 462.64 1232.05 462.64C1233.21 462.64 1234.12 462.29 1234.78 461.59C1235.44 460.87 1235.77 459.85 1235.77 458.53V449.38H1240ZM1243.06 457.69C1243.06 455.97 1243.41 454.47 1244.11 453.19C1244.81 451.89 1245.78 450.89 1247.02 450.19C1248.26 449.47 1249.68 449.11 1251.28 449.11C1253.34 449.11 1255.04 449.63 1256.38 450.67C1257.74 451.69 1258.65 453.13 1259.11 454.99H1254.58C1254.34 454.27 1253.93 453.71 1253.35 453.31C1252.79 452.89 1252.09 452.68 1251.25 452.68C1250.05 452.68 1249.1 453.12 1248.4 454C1247.7 454.86 1247.35 456.09 1247.35 457.69C1247.35 459.27 1247.7 460.5 1248.4 461.38C1249.1 462.24 1250.05 462.67 1251.25 462.67C1252.95 462.67 1254.06 461.91 1254.58 460.39H1259.11C1258.65 462.19 1257.74 463.62 1256.38 464.68C1255.02 465.74 1253.32 466.27 1251.28 466.27C1249.68 466.27 1248.26 465.92 1247.02 465.22C1245.78 464.5 1244.81 463.5 1244.11 462.22C1243.41 460.92 1243.06 459.41 1243.06 457.69ZM1261.11 457.63C1261.11 455.95 1261.44 454.46 1262.1 453.16C1262.78 451.86 1263.69 450.86 1264.83 450.16C1265.99 449.46 1267.28 449.11 1268.7 449.11C1269.94 449.11 1271.02 449.36 1271.94 449.86C1272.88 450.36 1273.63 450.99 1274.19 451.75V449.38H1278.42V466H1274.19V463.57C1273.65 464.35 1272.9 465 1271.94 465.52C1271 466.02 1269.91 466.27 1268.67 466.27C1267.27 466.27 1265.99 465.91 1264.83 465.19C1263.69 464.47 1262.78 463.46 1262.1 462.16C1261.44 460.84 1261.11 459.33 1261.11 457.63ZM1274.19 457.69C1274.19 456.67 1273.99 455.8 1273.59 455.08C1273.19 454.34 1272.65 453.78 1271.97 453.4C1271.29 453 1270.56 452.8 1269.78 452.8C1269 452.8 1268.28 452.99 1267.62 453.37C1266.96 453.75 1266.42 454.31 1266 455.05C1265.6 455.77 1265.4 456.63 1265.4 457.63C1265.4 458.63 1265.6 459.51 1266 460.27C1266.42 461.01 1266.96 461.58 1267.62 461.98C1268.3 462.38 1269.02 462.58 1269.78 462.58C1270.56 462.58 1271.29 462.39 1271.97 462.01C1272.65 461.61 1273.19 461.05 1273.59 460.33C1273.99 459.59 1274.19 458.71 1274.19 457.69ZM1287.41 452.83V460.87C1287.41 461.43 1287.54 461.84 1287.8 462.1C1288.08 462.34 1288.54 462.46 1289.18 462.46H1291.13V466H1288.49C1284.95 466 1283.18 464.28 1283.18 460.84V452.83H1281.2V449.38H1283.18V445.27H1287.41V449.38H1291.13V452.83H1287.41ZM1296.28 447.4C1295.54 447.4 1294.92 447.17 1294.42 446.71C1293.94 446.23 1293.7 445.64 1293.7 444.94C1293.7 444.24 1293.94 443.66 1294.42 443.2C1294.92 442.72 1295.54 442.48 1296.28 442.48C1297.02 442.48 1297.63 442.72 1298.11 443.2C1298.61 443.66 1298.86 444.24 1298.86 444.94C1298.86 445.64 1298.61 446.23 1298.11 446.71C1297.63 447.17 1297.02 447.4 1296.28 447.4ZM1298.35 449.38V466H1294.15V449.38H1298.35ZM1309.88 466.27C1308.28 466.27 1306.84 465.92 1305.56 465.22C1304.28 464.5 1303.27 463.49 1302.53 462.19C1301.81 460.89 1301.45 459.39 1301.45 457.69C1301.45 455.99 1301.82 454.49 1302.56 453.19C1303.32 451.89 1304.35 450.89 1305.65 450.19C1306.95 449.47 1308.4 449.11 1310 449.11C1311.6 449.11 1313.05 449.47 1314.35 450.19C1315.65 450.89 1316.67 451.89 1317.41 453.19C1318.17 454.49 1318.55 455.99 1318.55 457.69C1318.55 459.39 1318.16 460.89 1317.38 462.19C1316.62 463.49 1315.58 464.5 1314.26 465.22C1312.96 465.92 1311.5 466.27 1309.88 466.27ZM1309.88 462.61C1310.64 462.61 1311.35 462.43 1312.01 462.07C1312.69 461.69 1313.23 461.13 1313.63 460.39C1314.03 459.65 1314.23 458.75 1314.23 457.69C1314.23 456.11 1313.81 454.9 1312.97 454.06C1312.15 453.2 1311.14 452.77 1309.94 452.77C1308.74 452.77 1307.73 453.2 1306.91 454.06C1306.11 454.9 1305.71 456.11 1305.71 457.69C1305.71 459.27 1306.1 460.49 1306.88 461.35C1307.68 462.19 1308.68 462.61 1309.88 462.61ZM1330.84 449.14C1332.82 449.14 1334.42 449.77 1335.64 451.03C1336.86 452.27 1337.47 454.01 1337.47 456.25V466H1333.27V456.82C1333.27 455.5 1332.94 454.49 1332.28 453.79C1331.62 453.07 1330.72 452.71 1329.58 452.71C1328.42 452.71 1327.5 453.07 1326.82 453.79C1326.16 454.49 1325.83 455.5 1325.83 456.82V466H1321.63V449.38H1325.83V451.45C1326.39 450.73 1327.1 450.17 1327.96 449.77C1328.84 449.35 1329.8 449.14 1330.84 449.14Z" fill="black"/>
<path d="M1078.75 510.182C1077.55 510.182 1076.48 509.974 1075.52 509.558C1074.59 509.125 1073.85 508.535 1073.31 507.79C1072.78 507.027 1072.5 506.152 1072.48 505.164H1075C1075.09 506.013 1075.44 506.733 1076.04 507.322C1076.67 507.894 1077.57 508.18 1078.75 508.18C1079.87 508.18 1080.76 507.903 1081.4 507.348C1082.06 506.776 1082.39 506.048 1082.39 505.164C1082.39 504.471 1082.2 503.907 1081.82 503.474C1081.43 503.041 1080.96 502.711 1080.39 502.486C1079.81 502.261 1079.04 502.018 1078.07 501.758C1076.88 501.446 1075.91 501.134 1075.19 500.822C1074.48 500.51 1073.86 500.025 1073.34 499.366C1072.84 498.69 1072.59 497.789 1072.59 496.662C1072.59 495.674 1072.84 494.799 1073.34 494.036C1073.84 493.273 1074.54 492.684 1075.45 492.268C1076.36 491.852 1077.41 491.644 1078.59 491.644C1080.29 491.644 1081.68 492.069 1082.75 492.918C1083.84 493.767 1084.46 494.894 1084.6 496.298H1082C1081.91 495.605 1081.55 494.998 1080.91 494.478C1080.26 493.941 1079.42 493.672 1078.36 493.672C1077.37 493.672 1076.56 493.932 1075.94 494.452C1075.32 494.955 1075 495.665 1075 496.584C1075 497.243 1075.19 497.78 1075.55 498.196C1075.93 498.612 1076.39 498.933 1076.93 499.158C1077.48 499.366 1078.25 499.609 1079.24 499.886C1080.44 500.215 1081.4 500.545 1082.13 500.874C1082.86 501.186 1083.48 501.68 1084 502.356C1084.52 503.015 1084.78 503.916 1084.78 505.06C1084.78 505.944 1084.55 506.776 1084.08 507.556C1083.61 508.336 1082.92 508.969 1082 509.454C1081.08 509.939 1080 510.182 1078.75 510.182ZM1091.15 497.702V506.1C1091.15 506.793 1091.3 507.287 1091.59 507.582C1091.88 507.859 1092.4 507.998 1093.12 507.998H1094.87V510H1092.73C1091.42 510 1090.43 509.697 1089.77 509.09C1089.11 508.483 1088.78 507.487 1088.78 506.1V497.702H1086.94V495.752H1088.78V492.164H1091.15V495.752H1094.87V497.702H1091.15ZM1098.49 510.156C1098.04 510.156 1097.65 510 1097.34 509.688C1097.03 509.376 1096.87 508.995 1096.87 508.544C1096.87 508.093 1097.03 507.712 1097.34 507.4C1097.65 507.088 1098.04 506.932 1098.49 506.932C1098.92 506.932 1099.28 507.088 1099.58 507.4C1099.89 507.712 1100.05 508.093 1100.05 508.544C1100.05 508.995 1099.89 509.376 1099.58 509.688C1099.28 510 1098.92 510.156 1098.49 510.156ZM1120.84 505.97H1112.93L1111.48 510H1108.98L1115.53 491.982H1118.26L1124.79 510H1122.29L1120.84 505.97ZM1120.16 504.046L1116.88 494.894L1113.61 504.046H1120.16ZM1130.01 490.76V510H1127.64V490.76H1130.01ZM1140.26 510.234C1138.92 510.234 1137.71 509.931 1136.62 509.324C1135.54 508.717 1134.69 507.859 1134.07 506.75C1133.46 505.623 1133.16 504.323 1133.16 502.85C1133.16 501.394 1133.47 500.111 1134.09 499.002C1134.73 497.875 1135.6 497.017 1136.69 496.428C1137.79 495.821 1139.01 495.518 1140.36 495.518C1141.71 495.518 1142.93 495.821 1144.03 496.428C1145.12 497.017 1145.98 497.867 1146.6 498.976C1147.24 500.085 1147.56 501.377 1147.56 502.85C1147.56 504.323 1147.23 505.623 1146.57 506.75C1145.93 507.859 1145.06 508.717 1143.95 509.324C1142.84 509.931 1141.61 510.234 1140.26 510.234ZM1140.26 508.154C1141.1 508.154 1141.9 507.955 1142.65 507.556C1143.39 507.157 1143.99 506.559 1144.44 505.762C1144.91 504.965 1145.14 503.994 1145.14 502.85C1145.14 501.706 1144.92 500.735 1144.47 499.938C1144.02 499.141 1143.43 498.551 1142.7 498.17C1141.97 497.771 1141.18 497.572 1140.33 497.572C1139.47 497.572 1138.67 497.771 1137.94 498.17C1137.23 498.551 1136.66 499.141 1136.23 499.938C1135.79 500.735 1135.58 501.706 1135.58 502.85C1135.58 504.011 1135.78 504.991 1136.2 505.788C1136.63 506.585 1137.2 507.183 1137.92 507.582C1138.63 507.963 1139.41 508.154 1140.26 508.154ZM1162.94 495.752L1154.36 516.708H1151.92L1154.73 509.844L1148.98 495.752H1151.61L1156.08 507.296L1160.5 495.752H1162.94ZM1170.37 510.234C1169.27 510.234 1168.29 510.052 1167.43 509.688C1166.56 509.307 1165.88 508.787 1165.37 508.128C1164.87 507.452 1164.59 506.681 1164.54 505.814H1166.99C1167.06 506.525 1167.38 507.105 1167.97 507.556C1168.58 508.007 1169.37 508.232 1170.34 508.232C1171.24 508.232 1171.95 508.033 1172.47 507.634C1172.99 507.235 1173.25 506.733 1173.25 506.126C1173.25 505.502 1172.97 505.043 1172.42 504.748C1171.87 504.436 1171.01 504.133 1169.85 503.838C1168.79 503.561 1167.92 503.283 1167.25 503.006C1166.59 502.711 1166.02 502.287 1165.53 501.732C1165.06 501.16 1164.83 500.415 1164.83 499.496C1164.83 498.768 1165.04 498.101 1165.48 497.494C1165.91 496.887 1166.53 496.411 1167.32 496.064C1168.12 495.7 1169.03 495.518 1170.05 495.518C1171.63 495.518 1172.91 495.917 1173.88 496.714C1174.85 497.511 1175.37 498.603 1175.44 499.99H1173.07C1173.02 499.245 1172.71 498.647 1172.16 498.196C1171.62 497.745 1170.89 497.52 1169.98 497.52C1169.13 497.52 1168.45 497.702 1167.95 498.066C1167.45 498.43 1167.19 498.907 1167.19 499.496C1167.19 499.964 1167.34 500.354 1167.64 500.666C1167.95 500.961 1168.33 501.203 1168.78 501.394C1169.25 501.567 1169.89 501.767 1170.7 501.992C1171.73 502.269 1172.56 502.547 1173.2 502.824C1173.84 503.084 1174.39 503.483 1174.84 504.02C1175.31 504.557 1175.55 505.259 1175.57 506.126C1175.57 506.906 1175.35 507.608 1174.92 508.232C1174.48 508.856 1173.87 509.35 1173.07 509.714C1172.29 510.061 1171.39 510.234 1170.37 510.234ZM1180.13 493.438C1179.68 493.438 1179.3 493.282 1178.98 492.97C1178.67 492.658 1178.52 492.277 1178.52 491.826C1178.52 491.375 1178.67 490.994 1178.98 490.682C1179.3 490.37 1179.68 490.214 1180.13 490.214C1180.56 490.214 1180.93 490.37 1181.22 490.682C1181.53 490.994 1181.69 491.375 1181.69 491.826C1181.69 492.277 1181.53 492.658 1181.22 492.97C1180.93 493.282 1180.56 493.438 1180.13 493.438ZM1181.27 495.752V510H1178.91V495.752H1181.27ZM1197.94 495.752V510H1195.57V507.894C1195.12 508.622 1194.49 509.194 1193.68 509.61C1192.88 510.009 1192 510.208 1191.02 510.208C1189.92 510.208 1188.92 509.983 1188.03 509.532C1187.15 509.064 1186.45 508.371 1185.93 507.452C1185.43 506.533 1185.17 505.415 1185.17 504.098V495.752H1187.51V503.786C1187.51 505.19 1187.87 506.273 1188.58 507.036C1189.29 507.781 1190.26 508.154 1191.49 508.154C1192.76 508.154 1193.75 507.764 1194.48 506.984C1195.21 506.204 1195.57 505.069 1195.57 503.578V495.752H1197.94ZM1206.98 510.234C1205.89 510.234 1204.91 510.052 1204.04 509.688C1203.17 509.307 1202.49 508.787 1201.99 508.128C1201.48 507.452 1201.21 506.681 1201.16 505.814H1203.6C1203.67 506.525 1204 507.105 1204.59 507.556C1205.19 508.007 1205.98 508.232 1206.95 508.232C1207.85 508.232 1208.57 508.033 1209.09 507.634C1209.61 507.235 1209.87 506.733 1209.87 506.126C1209.87 505.502 1209.59 505.043 1209.03 504.748C1208.48 504.436 1207.62 504.133 1206.46 503.838C1205.4 503.561 1204.54 503.283 1203.86 503.006C1203.2 502.711 1202.63 502.287 1202.14 501.732C1201.68 501.16 1201.44 500.415 1201.44 499.496C1201.44 498.768 1201.66 498.101 1202.09 497.494C1202.52 496.887 1203.14 496.411 1203.94 496.064C1204.73 495.7 1205.64 495.518 1206.67 495.518C1208.24 495.518 1209.52 495.917 1210.49 496.714C1211.46 497.511 1211.98 498.603 1212.05 499.99H1209.68C1209.63 499.245 1209.33 498.647 1208.77 498.196C1208.24 497.745 1207.51 497.52 1206.59 497.52C1205.74 497.52 1205.06 497.702 1204.56 498.066C1204.06 498.43 1203.81 498.907 1203.81 499.496C1203.81 499.964 1203.95 500.354 1204.25 500.666C1204.56 500.961 1204.94 501.203 1205.39 501.394C1205.86 501.567 1206.5 501.767 1207.32 501.992C1208.34 502.269 1209.17 502.547 1209.81 502.824C1210.45 503.084 1211 503.483 1211.45 504.02C1211.92 504.557 1212.16 505.259 1212.18 506.126C1212.18 506.906 1211.96 507.608 1211.53 508.232C1211.1 508.856 1210.48 509.35 1209.68 509.714C1208.9 510.061 1208 510.234 1206.98 510.234ZM1215.88 491.878H1218.51L1216.01 497.78H1214.35L1215.88 491.878ZM1227.25 500.926C1227.25 499.158 1227.65 497.572 1228.45 496.168C1229.25 494.747 1230.33 493.637 1231.7 492.84C1233.09 492.043 1234.62 491.644 1236.3 491.644C1238.28 491.644 1240 492.121 1241.48 493.074C1242.95 494.027 1244.02 495.379 1244.7 497.13H1241.87C1241.36 496.038 1240.64 495.197 1239.68 494.608C1238.75 494.019 1237.62 493.724 1236.3 493.724C1235.04 493.724 1233.9 494.019 1232.9 494.608C1231.89 495.197 1231.1 496.038 1230.53 497.13C1229.96 498.205 1229.67 499.47 1229.67 500.926C1229.67 502.365 1229.96 503.63 1230.53 504.722C1231.1 505.797 1231.89 506.629 1232.9 507.218C1233.9 507.807 1235.04 508.102 1236.3 508.102C1237.62 508.102 1238.75 507.816 1239.68 507.244C1240.64 506.655 1241.36 505.814 1241.87 504.722H1244.7C1244.02 506.455 1242.95 507.799 1241.48 508.752C1240 509.688 1238.28 510.156 1236.3 510.156C1234.62 510.156 1233.09 509.766 1231.7 508.986C1230.33 508.189 1229.25 507.088 1228.45 505.684C1227.65 504.28 1227.25 502.694 1227.25 500.926ZM1254.44 510.234C1253.1 510.234 1251.89 509.931 1250.8 509.324C1249.72 508.717 1248.87 507.859 1248.25 506.75C1247.64 505.623 1247.34 504.323 1247.34 502.85C1247.34 501.394 1247.65 500.111 1248.27 499.002C1248.92 497.875 1249.78 497.017 1250.87 496.428C1251.97 495.821 1253.19 495.518 1254.54 495.518C1255.89 495.518 1257.11 495.821 1258.21 496.428C1259.3 497.017 1260.16 497.867 1260.78 498.976C1261.42 500.085 1261.74 501.377 1261.74 502.85C1261.74 504.323 1261.41 505.623 1260.75 506.75C1260.11 507.859 1259.24 508.717 1258.13 509.324C1257.02 509.931 1255.79 510.234 1254.44 510.234ZM1254.44 508.154C1255.29 508.154 1256.08 507.955 1256.83 507.556C1257.57 507.157 1258.17 506.559 1258.62 505.762C1259.09 504.965 1259.32 503.994 1259.32 502.85C1259.32 501.706 1259.1 500.735 1258.65 499.938C1258.2 499.141 1257.61 498.551 1256.88 498.17C1256.15 497.771 1255.36 497.572 1254.51 497.572C1253.65 497.572 1252.85 497.771 1252.12 498.17C1251.41 498.551 1250.84 499.141 1250.41 499.938C1249.97 500.735 1249.76 501.706 1249.76 502.85C1249.76 504.011 1249.96 504.991 1250.38 505.788C1250.81 506.585 1251.39 507.183 1252.1 507.582C1252.81 507.963 1253.59 508.154 1254.44 508.154ZM1267.22 490.76V510H1264.85V490.76H1267.22ZM1273.62 490.76V510H1271.25V490.76H1273.62ZM1290.65 502.33C1290.65 502.781 1290.62 503.257 1290.57 503.76H1279.18C1279.27 505.164 1279.75 506.265 1280.61 507.062C1281.5 507.842 1282.56 508.232 1283.81 508.232C1284.84 508.232 1285.68 507.998 1286.36 507.53C1287.05 507.045 1287.54 506.403 1287.82 505.606H1290.36C1289.98 506.975 1289.22 508.093 1288.08 508.96C1286.93 509.809 1285.51 510.234 1283.81 510.234C1282.46 510.234 1281.25 509.931 1280.17 509.324C1279.12 508.717 1278.28 507.859 1277.68 506.75C1277.07 505.623 1276.77 504.323 1276.77 502.85C1276.77 501.377 1277.06 500.085 1277.65 498.976C1278.24 497.867 1279.06 497.017 1280.12 496.428C1281.2 495.821 1282.43 495.518 1283.81 495.518C1285.16 495.518 1286.36 495.813 1287.4 496.402C1288.44 496.991 1289.24 497.806 1289.79 498.846C1290.36 499.869 1290.65 501.03 1290.65 502.33ZM1288.21 501.836C1288.21 500.935 1288.01 500.163 1287.61 499.522C1287.21 498.863 1286.66 498.369 1285.97 498.04C1285.29 497.693 1284.54 497.52 1283.71 497.52C1282.51 497.52 1281.49 497.901 1280.64 498.664C1279.81 499.427 1279.33 500.484 1279.21 501.836H1288.21ZM1299.65 495.518C1300.88 495.518 1301.95 495.787 1302.87 496.324C1303.81 496.861 1304.5 497.537 1304.95 498.352V495.752H1307.35V510.312C1307.35 511.612 1307.07 512.765 1306.51 513.77C1305.96 514.793 1305.16 515.59 1304.12 516.162C1303.1 516.734 1301.9 517.02 1300.53 517.02C1298.66 517.02 1297.1 516.578 1295.85 515.694C1294.61 514.81 1293.87 513.605 1293.64 512.08H1295.98C1296.24 512.947 1296.78 513.64 1297.6 514.16C1298.41 514.697 1299.39 514.966 1300.53 514.966C1301.83 514.966 1302.89 514.559 1303.71 513.744C1304.54 512.929 1304.95 511.785 1304.95 510.312V507.322C1304.49 508.154 1303.79 508.847 1302.87 509.402C1301.95 509.957 1300.88 510.234 1299.65 510.234C1298.38 510.234 1297.23 509.922 1296.19 509.298C1295.17 508.674 1294.36 507.799 1293.77 506.672C1293.18 505.545 1292.89 504.263 1292.89 502.824C1292.89 501.368 1293.18 500.094 1293.77 499.002C1294.36 497.893 1295.17 497.035 1296.19 496.428C1297.23 495.821 1298.38 495.518 1299.65 495.518ZM1304.95 502.85C1304.95 501.775 1304.74 500.839 1304.3 500.042C1303.87 499.245 1303.28 498.638 1302.54 498.222C1301.81 497.789 1301 497.572 1300.12 497.572C1299.23 497.572 1298.43 497.78 1297.7 498.196C1296.97 498.612 1296.39 499.219 1295.96 500.016C1295.52 500.813 1295.31 501.749 1295.31 502.824C1295.31 503.916 1295.52 504.869 1295.96 505.684C1296.39 506.481 1296.97 507.097 1297.7 507.53C1298.43 507.946 1299.23 508.154 1300.12 508.154C1301 508.154 1301.81 507.946 1302.54 507.53C1303.28 507.097 1303.87 506.481 1304.3 505.684C1304.74 504.869 1304.95 503.925 1304.95 502.85ZM1324.34 502.33C1324.34 502.781 1324.32 503.257 1324.27 503.76H1312.88C1312.96 505.164 1313.44 506.265 1314.31 507.062C1315.19 507.842 1316.26 508.232 1317.51 508.232C1318.53 508.232 1319.38 507.998 1320.05 507.53C1320.75 507.045 1321.23 506.403 1321.51 505.606H1324.06C1323.68 506.975 1322.91 508.093 1321.77 508.96C1320.63 509.809 1319.2 510.234 1317.51 510.234C1316.15 510.234 1314.94 509.931 1313.87 509.324C1312.81 508.717 1311.98 507.859 1311.37 506.75C1310.76 505.623 1310.46 504.323 1310.46 502.85C1310.46 501.377 1310.75 500.085 1311.34 498.976C1311.93 497.867 1312.76 497.017 1313.81 496.428C1314.89 495.821 1316.12 495.518 1317.51 495.518C1318.86 495.518 1320.05 495.813 1321.09 496.402C1322.13 496.991 1322.93 497.806 1323.49 498.846C1324.06 499.869 1324.34 501.03 1324.34 502.33ZM1321.9 501.836C1321.9 500.935 1321.7 500.163 1321.3 499.522C1320.9 498.863 1320.36 498.369 1319.66 498.04C1318.99 497.693 1318.23 497.52 1317.4 497.52C1316.21 497.52 1315.18 497.901 1314.33 498.664C1313.5 499.427 1313.03 500.484 1312.9 501.836H1321.9Z" fill="#6D6A7C"/>
<path d="M1150.17 558.321C1152.12 556.757 1153.65 555.477 1154.75 554.48C1155.85 553.468 1156.78 552.418 1157.53 551.329C1158.3 550.225 1158.68 549.144 1158.68 548.086C1158.68 547.089 1158.44 546.307 1157.95 545.74C1157.47 545.157 1156.7 544.866 1155.62 544.866C1154.58 544.866 1153.77 545.196 1153.19 545.855C1152.62 546.499 1152.31 547.365 1152.27 548.454H1150.24C1150.3 546.737 1150.82 545.41 1151.81 544.475C1152.79 543.54 1154.05 543.072 1155.6 543.072C1157.18 543.072 1158.43 543.509 1159.35 544.383C1160.29 545.257 1160.75 546.461 1160.75 547.994C1160.75 549.267 1160.37 550.509 1159.6 551.72C1158.85 552.916 1157.99 553.974 1157.03 554.894C1156.06 555.799 1154.83 556.857 1153.32 558.068H1161.24V559.816H1150.17V558.321ZM1163.66 551.513C1163.66 548.876 1164.08 546.821 1164.94 545.349C1165.8 543.862 1167.3 543.118 1169.45 543.118C1171.58 543.118 1173.08 543.862 1173.94 545.349C1174.8 546.821 1175.22 548.876 1175.22 551.513C1175.22 554.196 1174.8 556.282 1173.94 557.769C1173.08 559.256 1171.58 560 1169.45 560C1167.3 560 1165.8 559.256 1164.94 557.769C1164.08 556.282 1163.66 554.196 1163.66 551.513ZM1173.15 551.513C1173.15 550.179 1173.06 549.052 1172.88 548.132C1172.71 547.197 1172.35 546.445 1171.8 545.878C1171.26 545.311 1170.48 545.027 1169.45 545.027C1168.41 545.027 1167.61 545.311 1167.06 545.878C1166.52 546.445 1166.16 547.197 1165.98 548.132C1165.81 549.052 1165.73 550.179 1165.73 551.513C1165.73 552.893 1165.81 554.051 1165.98 554.986C1166.16 555.921 1166.52 556.673 1167.06 557.24C1167.61 557.807 1168.41 558.091 1169.45 558.091C1170.48 558.091 1171.26 557.807 1171.8 557.24C1172.35 556.673 1172.71 555.921 1172.88 554.986C1173.06 554.051 1173.15 552.893 1173.15 551.513ZM1178.1 551.513C1178.1 548.876 1178.53 546.821 1179.39 545.349C1180.24 543.862 1181.75 543.118 1183.89 543.118C1186.03 543.118 1187.52 543.862 1188.38 545.349C1189.24 546.821 1189.67 548.876 1189.67 551.513C1189.67 554.196 1189.24 556.282 1188.38 557.769C1187.52 559.256 1186.03 560 1183.89 560C1181.75 560 1180.24 559.256 1179.39 557.769C1178.53 556.282 1178.1 554.196 1178.1 551.513ZM1187.6 551.513C1187.6 550.179 1187.5 549.052 1187.32 548.132C1187.15 547.197 1186.79 546.445 1186.24 545.878C1185.7 545.311 1184.92 545.027 1183.89 545.027C1182.85 545.027 1182.05 545.311 1181.5 545.878C1180.97 546.445 1180.6 547.197 1180.42 548.132C1180.25 549.052 1180.17 550.179 1180.17 551.513C1180.17 552.893 1180.25 554.051 1180.42 554.986C1180.6 555.921 1180.97 556.673 1181.5 557.24C1182.05 557.807 1182.85 558.091 1183.89 558.091C1184.92 558.091 1185.7 557.807 1186.24 557.24C1186.79 556.673 1187.15 555.921 1187.32 554.986C1187.5 554.051 1187.6 552.893 1187.6 551.513ZM1202.78 545.004L1196.38 560H1194.27L1200.75 545.211H1191.87V543.417H1202.78V545.004ZM1214.18 550.685V552.456H1205V550.685H1214.18ZM1217.51 558.321C1219.46 556.757 1220.98 555.477 1222.09 554.48C1223.19 553.468 1224.12 552.418 1224.87 551.329C1225.64 550.225 1226.02 549.144 1226.02 548.086C1226.02 547.089 1225.78 546.307 1225.28 545.74C1224.81 545.157 1224.04 544.866 1222.96 544.866C1221.92 544.866 1221.11 545.196 1220.52 545.855C1219.96 546.499 1219.65 547.365 1219.6 548.454H1217.58C1217.64 546.737 1218.16 545.41 1219.14 544.475C1220.13 543.54 1221.39 543.072 1222.94 543.072C1224.52 543.072 1225.77 543.509 1226.69 544.383C1227.62 545.257 1228.09 546.461 1228.09 547.994C1228.09 549.267 1227.71 550.509 1226.94 551.72C1226.19 552.916 1225.33 553.974 1224.36 554.894C1223.4 555.799 1222.16 556.857 1220.66 558.068H1228.57V559.816H1217.51V558.321ZM1230.99 551.513C1230.99 548.876 1231.42 546.821 1232.28 545.349C1233.14 543.862 1234.64 543.118 1236.79 543.118C1238.92 543.118 1240.42 543.862 1241.27 545.349C1242.13 546.821 1242.56 548.876 1242.56 551.513C1242.56 554.196 1242.13 556.282 1241.27 557.769C1240.42 559.256 1238.92 560 1236.79 560C1234.64 560 1233.14 559.256 1232.28 557.769C1231.42 556.282 1230.99 554.196 1230.99 551.513ZM1240.49 551.513C1240.49 550.179 1240.4 549.052 1240.22 548.132C1240.05 547.197 1239.69 546.445 1239.14 545.878C1238.6 545.311 1237.82 545.027 1236.79 545.027C1235.75 545.027 1234.95 545.311 1234.4 545.878C1233.86 546.445 1233.5 547.197 1233.32 548.132C1233.15 549.052 1233.06 550.179 1233.06 551.513C1233.06 552.893 1233.15 554.051 1233.32 554.986C1233.5 555.921 1233.86 556.673 1234.4 557.24C1234.95 557.807 1235.75 558.091 1236.79 558.091C1237.82 558.091 1238.6 557.807 1239.14 557.24C1239.69 556.673 1240.05 555.921 1240.22 554.986C1240.4 554.051 1240.49 552.893 1240.49 551.513ZM1244.88 545.28V543.371H1249.21V560H1247.09V545.28H1244.88ZM1252.25 545.28V543.371H1256.57V560H1254.46V545.28H1252.25Z" fill="#888597"/>
<path d="M1124.08 543.07H1119.25V541.23C1119.25 541.103 1119.15 541 1119.02 541H1117.41C1117.28 541 1117.18 541.103 1117.18 541.23V543.07H1109.82V541.23C1109.82 541.103 1109.72 541 1109.59 541H1107.98C1107.85 541 1107.75 541.103 1107.75 541.23V543.07H1102.92C1102.41 543.07 1102 543.481 1102 543.99V563.08C1102 563.589 1102.41 564 1102.92 564H1124.08C1124.59 564 1125 563.589 1125 563.08V543.99C1125 543.481 1124.59 543.07 1124.08 543.07ZM1122.93 561.93H1104.07V551.005H1122.93V561.93ZM1104.07 549.05V545.14H1107.75V546.52C1107.75 546.646 1107.85 546.75 1107.98 546.75H1109.59C1109.72 546.75 1109.82 546.646 1109.82 546.52V545.14H1117.18V546.52C1117.18 546.646 1117.28 546.75 1117.41 546.75H1119.02C1119.15 546.75 1119.25 546.646 1119.25 546.52V545.14H1122.93V549.05H1104.07Z" fill="#888597"/>
<g filter="url(#filter2_d_563_16)">
<rect x="22" y="210" width="502" height="208" rx="55" fill="#F0F1F8"/>
</g>
<path d="M119.3 281.21C117.84 281.21 116.52 280.96 115.34 280.46C114.18 279.96 113.26 279.24 112.58 278.3C111.9 277.36 111.55 276.25 111.53 274.97H116.03C116.09 275.83 116.39 276.51 116.93 277.01C117.49 277.51 118.25 277.76 119.21 277.76C120.19 277.76 120.96 277.53 121.52 277.07C122.08 276.59 122.36 275.97 122.36 275.21C122.36 274.59 122.17 274.08 121.79 273.68C121.41 273.28 120.93 272.97 120.35 272.75C119.79 272.51 119.01 272.25 118.01 271.97C116.65 271.57 115.54 271.18 114.68 270.8C113.84 270.4 113.11 269.81 112.49 269.03C111.89 268.23 111.59 267.17 111.59 265.85C111.59 264.61 111.9 263.53 112.52 262.61C113.14 261.69 114.01 260.99 115.13 260.51C116.25 260.01 117.53 259.76 118.97 259.76C121.13 259.76 122.88 260.29 124.22 261.35C125.58 262.39 126.33 263.85 126.47 265.73H121.85C121.81 265.01 121.5 264.42 120.92 263.96C120.36 263.48 119.61 263.24 118.67 263.24C117.85 263.24 117.19 263.45 116.69 263.87C116.21 264.29 115.97 264.9 115.97 265.7C115.97 266.26 116.15 266.73 116.51 267.11C116.89 267.47 117.35 267.77 117.89 268.01C118.45 268.23 119.23 268.49 120.23 268.79C121.59 269.19 122.7 269.59 123.56 269.99C124.42 270.39 125.16 270.99 125.78 271.79C126.4 272.59 126.71 273.64 126.71 274.94C126.71 276.06 126.42 277.1 125.84 278.06C125.26 279.02 124.41 279.79 123.29 280.37C122.17 280.93 120.84 281.21 119.3 281.21ZM145.801 272.33C145.801 272.93 145.761 273.47 145.681 273.95H133.531C133.631 275.15 134.051 276.09 134.791 276.77C135.531 277.45 136.441 277.79 137.521 277.79C139.081 277.79 140.191 277.12 140.851 275.78H145.381C144.901 277.38 143.981 278.7 142.621 279.74C141.261 280.76 139.591 281.27 137.611 281.27C136.011 281.27 134.571 280.92 133.291 280.22C132.031 279.5 131.041 278.49 130.321 277.19C129.621 275.89 129.271 274.39 129.271 272.69C129.271 270.97 129.621 269.46 130.321 268.16C131.021 266.86 132.001 265.86 133.261 265.16C134.521 264.46 135.971 264.11 137.611 264.11C139.191 264.11 140.601 264.45 141.841 265.13C143.101 265.81 144.071 266.78 144.751 268.04C145.451 269.28 145.801 270.71 145.801 272.33ZM141.451 271.13C141.431 270.05 141.041 269.19 140.281 268.55C139.521 267.89 138.591 267.56 137.491 267.56C136.451 267.56 135.571 267.88 134.851 268.52C134.151 269.14 133.721 270.01 133.561 271.13H141.451ZM147.787 272.69C147.787 270.97 148.137 269.47 148.837 268.19C149.537 266.89 150.507 265.89 151.747 265.19C152.987 264.47 154.407 264.11 156.007 264.11C158.067 264.11 159.767 264.63 161.107 265.67C162.467 266.69 163.377 268.13 163.837 269.99H159.307C159.067 269.27 158.657 268.71 158.077 268.31C157.517 267.89 156.817 267.68 155.977 267.68C154.777 267.68 153.827 268.12 153.127 269C152.427 269.86 152.077 271.09 152.077 272.69C152.077 274.27 152.427 275.5 153.127 276.38C153.827 277.24 154.777 277.67 155.977 277.67C157.677 277.67 158.787 276.91 159.307 275.39H163.837C163.377 277.19 162.467 278.62 161.107 279.68C159.747 280.74 158.047 281.27 156.007 281.27C154.407 281.27 152.987 280.92 151.747 280.22C150.507 279.5 149.537 278.5 148.837 277.22C148.137 275.92 147.787 274.41 147.787 272.69ZM174.294 281.27C172.694 281.27 171.254 280.92 169.974 280.22C168.694 279.5 167.684 278.49 166.944 277.19C166.224 275.89 165.864 274.39 165.864 272.69C165.864 270.99 166.234 269.49 166.974 268.19C167.734 266.89 168.764 265.89 170.064 265.19C171.364 264.47 172.814 264.11 174.414 264.11C176.014 264.11 177.464 264.47 178.764 265.19C180.064 265.89 181.084 266.89 181.824 268.19C182.584 269.49 182.964 270.99 182.964 272.69C182.964 274.39 182.574 275.89 181.794 277.19C181.034 278.49 179.994 279.5 178.674 280.22C177.374 280.92 175.914 281.27 174.294 281.27ZM174.294 277.61C175.054 277.61 175.764 277.43 176.424 277.07C177.104 276.69 177.644 276.13 178.044 275.39C178.444 274.65 178.644 273.75 178.644 272.69C178.644 271.11 178.224 269.9 177.384 269.06C176.564 268.2 175.554 267.77 174.354 267.77C173.154 267.77 172.144 268.2 171.324 269.06C170.524 269.9 170.124 271.11 170.124 272.69C170.124 274.27 170.514 275.49 171.294 276.35C172.094 277.19 173.094 277.61 174.294 277.61ZM195.255 264.14C197.235 264.14 198.835 264.77 200.055 266.03C201.275 267.27 201.885 269.01 201.885 271.25V281H197.685V271.82C197.685 270.5 197.355 269.49 196.695 268.79C196.035 268.07 195.135 267.71 193.995 267.71C192.835 267.71 191.915 268.07 191.235 268.79C190.575 269.49 190.245 270.5 190.245 271.82V281H186.045V264.38H190.245V266.45C190.805 265.73 191.515 265.17 192.375 264.77C193.255 264.35 194.215 264.14 195.255 264.14ZM204.799 272.63C204.799 270.95 205.129 269.46 205.789 268.16C206.469 266.86 207.389 265.86 208.549 265.16C209.709 264.46 210.999 264.11 212.419 264.11C213.499 264.11 214.529 264.35 215.509 264.83C216.489 265.29 217.269 265.91 217.849 266.69V258.8H222.109V281H217.849V278.54C217.329 279.36 216.599 280.02 215.659 280.52C214.719 281.02 213.629 281.27 212.389 281.27C210.989 281.27 209.709 280.91 208.549 280.19C207.389 279.47 206.469 278.46 205.789 277.16C205.129 275.84 204.799 274.33 204.799 272.63ZM217.879 272.69C217.879 271.67 217.679 270.8 217.279 270.08C216.879 269.34 216.339 268.78 215.659 268.4C214.979 268 214.249 267.8 213.469 267.8C212.689 267.8 211.969 267.99 211.309 268.37C210.649 268.75 210.109 269.31 209.689 270.05C209.289 270.77 209.089 271.63 209.089 272.63C209.089 273.63 209.289 274.51 209.689 275.27C210.109 276.01 210.649 276.58 211.309 276.98C211.989 277.38 212.709 277.58 213.469 277.58C214.249 277.58 214.979 277.39 215.659 277.01C216.339 276.61 216.879 276.05 217.279 275.33C217.679 274.59 217.879 273.71 217.879 272.69ZM225.131 272.63C225.131 270.95 225.461 269.46 226.121 268.16C226.801 266.86 227.711 265.86 228.851 265.16C230.011 264.46 231.301 264.11 232.721 264.11C233.961 264.11 235.041 264.36 235.961 264.86C236.901 265.36 237.651 265.99 238.211 266.75V264.38H242.441V281H238.211V278.57C237.671 279.35 236.921 280 235.961 280.52C235.021 281.02 233.931 281.27 232.691 281.27C231.291 281.27 230.011 280.91 228.851 280.19C227.711 279.47 226.801 278.46 226.121 277.16C225.461 275.84 225.131 274.33 225.131 272.63ZM238.211 272.69C238.211 271.67 238.011 270.8 237.611 270.08C237.211 269.34 236.671 268.78 235.991 268.4C235.311 268 234.581 267.8 233.801 267.8C233.021 267.8 232.301 267.99 231.641 268.37C230.981 268.75 230.441 269.31 230.021 270.05C229.621 270.77 229.421 271.63 229.421 272.63C229.421 273.63 229.621 274.51 230.021 275.27C230.441 276.01 230.981 276.58 231.641 276.98C232.321 277.38 233.041 277.58 233.801 277.58C234.581 277.58 235.311 277.39 235.991 277.01C236.671 276.61 237.211 276.05 237.611 275.33C238.011 274.59 238.211 273.71 238.211 272.69ZM250.743 266.96C251.283 266.08 251.983 265.39 252.843 264.89C253.723 264.39 254.723 264.14 255.843 264.14V268.55H254.733C253.413 268.55 252.413 268.86 251.733 269.48C251.073 270.1 250.743 271.18 250.743 272.72V281H246.543V264.38H250.743V266.96ZM274.572 264.38L264.282 288.86H259.812L263.412 280.58L256.752 264.38H261.462L265.752 275.99L270.102 264.38H274.572ZM288.184 263.45V268.7H295.234V272.03H288.184V277.58H296.134V281H283.984V260.03H296.134V263.45H288.184ZM298.871 272.63C298.871 270.95 299.201 269.46 299.861 268.16C300.541 266.86 301.461 265.86 302.621 265.16C303.781 264.46 305.071 264.11 306.491 264.11C307.571 264.11 308.601 264.35 309.581 264.83C310.561 265.29 311.341 265.91 311.921 266.69V258.8H316.181V281H311.921V278.54C311.401 279.36 310.671 280.02 309.731 280.52C308.791 281.02 307.701 281.27 306.461 281.27C305.061 281.27 303.781 280.91 302.621 280.19C301.461 279.47 300.541 278.46 299.861 277.16C299.201 275.84 298.871 274.33 298.871 272.63ZM311.951 272.69C311.951 271.67 311.751 270.8 311.351 270.08C310.951 269.34 310.411 268.78 309.731 268.4C309.051 268 308.321 267.8 307.541 267.8C306.761 267.8 306.041 267.99 305.381 268.37C304.721 268.75 304.181 269.31 303.761 270.05C303.361 270.77 303.161 271.63 303.161 272.63C303.161 273.63 303.361 274.51 303.761 275.27C304.181 276.01 304.721 276.58 305.381 276.98C306.061 277.38 306.781 277.58 307.541 277.58C308.321 277.58 309.051 277.39 309.731 277.01C310.411 276.61 310.951 276.05 311.351 275.33C311.751 274.59 311.951 273.71 311.951 272.69ZM335.973 264.38V281H331.743V278.9C331.203 279.62 330.493 280.19 329.613 280.61C328.753 281.01 327.813 281.21 326.793 281.21C325.493 281.21 324.343 280.94 323.343 280.4C322.343 279.84 321.553 279.03 320.973 277.97C320.413 276.89 320.133 275.61 320.133 274.13V264.38H324.333V273.53C324.333 274.85 324.663 275.87 325.323 276.59C325.983 277.29 326.883 277.64 328.023 277.64C329.183 277.64 330.093 277.29 330.753 276.59C331.413 275.87 331.743 274.85 331.743 273.53V264.38H335.973ZM339.037 272.69C339.037 270.97 339.387 269.47 340.087 268.19C340.787 266.89 341.757 265.89 342.997 265.19C344.237 264.47 345.657 264.11 347.257 264.11C349.317 264.11 351.017 264.63 352.357 265.67C353.717 266.69 354.627 268.13 355.087 269.99H350.557C350.317 269.27 349.907 268.71 349.327 268.31C348.767 267.89 348.067 267.68 347.227 267.68C346.027 267.68 345.077 268.12 344.377 269C343.677 269.86 343.327 271.09 343.327 272.69C343.327 274.27 343.677 275.5 344.377 276.38C345.077 277.24 346.027 277.67 347.227 277.67C348.927 277.67 350.037 276.91 350.557 275.39H355.087C354.627 277.19 353.717 278.62 352.357 279.68C350.997 280.74 349.297 281.27 347.257 281.27C345.657 281.27 344.237 280.92 342.997 280.22C341.757 279.5 340.787 278.5 340.087 277.22C339.387 275.92 339.037 274.41 339.037 272.69ZM357.084 272.63C357.084 270.95 357.414 269.46 358.074 268.16C358.754 266.86 359.664 265.86 360.804 265.16C361.964 264.46 363.254 264.11 364.674 264.11C365.914 264.11 366.994 264.36 367.914 264.86C368.854 265.36 369.604 265.99 370.164 266.75V264.38H374.394V281H370.164V278.57C369.624 279.35 368.874 280 367.914 280.52C366.974 281.02 365.884 281.27 364.644 281.27C363.244 281.27 361.964 280.91 360.804 280.19C359.664 279.47 358.754 278.46 358.074 277.16C357.414 275.84 357.084 274.33 357.084 272.63ZM370.164 272.69C370.164 271.67 369.964 270.8 369.564 270.08C369.164 269.34 368.624 268.78 367.944 268.4C367.264 268 366.534 267.8 365.754 267.8C364.974 267.8 364.254 267.99 363.594 268.37C362.934 268.75 362.394 269.31 361.974 270.05C361.574 270.77 361.374 271.63 361.374 272.63C361.374 273.63 361.574 274.51 361.974 275.27C362.394 276.01 362.934 276.58 363.594 276.98C364.274 277.38 364.994 277.58 365.754 277.58C366.534 277.58 367.264 277.39 367.944 277.01C368.624 276.61 369.164 276.05 369.564 275.33C369.964 274.59 370.164 273.71 370.164 272.69ZM383.386 267.83V275.87C383.386 276.43 383.516 276.84 383.776 277.1C384.056 277.34 384.516 277.46 385.156 277.46H387.106V281H384.466C380.926 281 379.156 279.28 379.156 275.84V267.83H377.176V264.38H379.156V260.27H383.386V264.38H387.106V267.83H383.386ZM392.257 262.4C391.517 262.4 390.897 262.17 390.397 261.71C389.917 261.23 389.677 260.64 389.677 259.94C389.677 259.24 389.917 258.66 390.397 258.2C390.897 257.72 391.517 257.48 392.257 257.48C392.997 257.48 393.607 257.72 394.087 258.2C394.587 258.66 394.837 259.24 394.837 259.94C394.837 260.64 394.587 261.23 394.087 261.71C393.607 262.17 392.997 262.4 392.257 262.4ZM394.327 264.38V281H390.127V264.38H394.327ZM405.856 281.27C404.256 281.27 402.816 280.92 401.536 280.22C400.256 279.5 399.246 278.49 398.506 277.19C397.786 275.89 397.426 274.39 397.426 272.69C397.426 270.99 397.796 269.49 398.536 268.19C399.296 266.89 400.326 265.89 401.626 265.19C402.926 264.47 404.376 264.11 405.976 264.11C407.576 264.11 409.026 264.47 410.326 265.19C411.626 265.89 412.646 266.89 413.386 268.19C414.146 269.49 414.526 270.99 414.526 272.69C414.526 274.39 414.136 275.89 413.356 277.19C412.596 278.49 411.556 279.5 410.236 280.22C408.936 280.92 407.476 281.27 405.856 281.27ZM405.856 277.61C406.616 277.61 407.326 277.43 407.986 277.07C408.666 276.69 409.206 276.13 409.606 275.39C410.006 274.65 410.206 273.75 410.206 272.69C410.206 271.11 409.786 269.9 408.946 269.06C408.126 268.2 407.116 267.77 405.916 267.77C404.716 267.77 403.706 268.2 402.886 269.06C402.086 269.9 401.686 271.11 401.686 272.69C401.686 274.27 402.076 275.49 402.856 276.35C403.656 277.19 404.656 277.61 405.856 277.61ZM426.817 264.14C428.797 264.14 430.397 264.77 431.617 266.03C432.837 267.27 433.447 269.01 433.447 271.25V281H429.247V271.82C429.247 270.5 428.917 269.49 428.257 268.79C427.597 268.07 426.697 267.71 425.557 267.71C424.397 267.71 423.477 268.07 422.797 268.79C422.137 269.49 421.807 270.5 421.807 271.82V281H417.607V264.38H421.807V266.45C422.367 265.73 423.077 265.17 423.937 264.77C424.817 264.35 425.777 264.14 426.817 264.14Z" fill="black"/>
<path d="M164.384 307.008V325H162.018V311.584L156.038 325H154.374L148.368 311.558V325H146.002V307.008H148.55L155.206 321.88L161.862 307.008H164.384ZM167.513 317.824C167.513 316.368 167.807 315.094 168.397 314.002C168.986 312.893 169.792 312.035 170.815 311.428C171.855 310.821 173.007 310.518 174.273 310.518C175.521 310.518 176.604 310.787 177.523 311.324C178.441 311.861 179.126 312.537 179.577 313.352V310.752H181.969V325H179.577V322.348C179.109 323.18 178.407 323.873 177.471 324.428C176.552 324.965 175.477 325.234 174.247 325.234C172.981 325.234 171.837 324.922 170.815 324.298C169.792 323.674 168.986 322.799 168.397 321.672C167.807 320.545 167.513 319.263 167.513 317.824ZM179.577 317.85C179.577 316.775 179.36 315.839 178.927 315.042C178.493 314.245 177.904 313.638 177.159 313.222C176.431 312.789 175.625 312.572 174.741 312.572C173.857 312.572 173.051 312.78 172.323 313.196C171.595 313.612 171.014 314.219 170.581 315.016C170.147 315.813 169.931 316.749 169.931 317.824C169.931 318.916 170.147 319.869 170.581 320.684C171.014 321.481 171.595 322.097 172.323 322.53C173.051 322.946 173.857 323.154 174.741 323.154C175.625 323.154 176.431 322.946 177.159 322.53C177.904 322.097 178.493 321.481 178.927 320.684C179.36 319.869 179.577 318.925 179.577 317.85ZM193.039 310.492C194.114 310.492 195.084 310.726 195.951 311.194C196.818 311.645 197.494 312.329 197.979 313.248C198.482 314.167 198.733 315.285 198.733 316.602V325H196.393V316.94C196.393 315.519 196.038 314.435 195.327 313.69C194.616 312.927 193.646 312.546 192.415 312.546C191.167 312.546 190.17 312.936 189.425 313.716C188.697 314.496 188.333 315.631 188.333 317.122V325H185.967V305.76H188.333V312.78C188.801 312.052 189.442 311.489 190.257 311.09C191.089 310.691 192.016 310.492 193.039 310.492ZM203.82 308.438C203.369 308.438 202.988 308.282 202.676 307.97C202.364 307.658 202.208 307.277 202.208 306.826C202.208 306.375 202.364 305.994 202.676 305.682C202.988 305.37 203.369 305.214 203.82 305.214C204.253 305.214 204.617 305.37 204.912 305.682C205.224 305.994 205.38 306.375 205.38 306.826C205.38 307.277 205.224 307.658 204.912 307.97C204.617 308.282 204.253 308.438 203.82 308.438ZM204.964 310.752V325H202.598V310.752H204.964ZM215.938 310.492C217.671 310.492 219.075 311.021 220.15 312.078C221.225 313.118 221.762 314.626 221.762 316.602V325H219.422V316.94C219.422 315.519 219.067 314.435 218.356 313.69C217.645 312.927 216.675 312.546 215.444 312.546C214.196 312.546 213.199 312.936 212.454 313.716C211.726 314.496 211.362 315.631 211.362 317.122V325H208.996V310.752H211.362V312.78C211.83 312.052 212.463 311.489 213.26 311.09C214.075 310.691 214.967 310.492 215.938 310.492ZM224.743 317.824C224.743 316.368 225.038 315.094 225.627 314.002C226.216 312.893 227.022 312.035 228.045 311.428C229.085 310.821 230.246 310.518 231.529 310.518C232.638 310.518 233.67 310.778 234.623 311.298C235.576 311.801 236.304 312.468 236.807 313.3V305.76H239.199V325H236.807V322.322C236.339 323.171 235.646 323.873 234.727 324.428C233.808 324.965 232.734 325.234 231.503 325.234C230.238 325.234 229.085 324.922 228.045 324.298C227.022 323.674 226.216 322.799 225.627 321.672C225.038 320.545 224.743 319.263 224.743 317.824ZM236.807 317.85C236.807 316.775 236.59 315.839 236.157 315.042C235.724 314.245 235.134 313.638 234.389 313.222C233.661 312.789 232.855 312.572 231.971 312.572C231.087 312.572 230.281 312.78 229.553 313.196C228.825 313.612 228.244 314.219 227.811 315.016C227.378 315.813 227.161 316.749 227.161 317.824C227.161 318.916 227.378 319.869 227.811 320.684C228.244 321.481 228.825 322.097 229.553 322.53C230.281 322.946 231.087 323.154 231.971 323.154C232.855 323.154 233.661 322.946 234.389 322.53C235.134 322.097 235.724 321.481 236.157 320.684C236.59 319.869 236.807 318.925 236.807 317.85ZM242.313 317.824C242.313 316.368 242.608 315.094 243.197 314.002C243.787 312.893 244.593 312.035 245.615 311.428C246.655 310.821 247.808 310.518 249.073 310.518C250.321 310.518 251.405 310.787 252.323 311.324C253.242 311.861 253.927 312.537 254.377 313.352V310.752H256.769V325H254.377V322.348C253.909 323.18 253.207 323.873 252.271 324.428C251.353 324.965 250.278 325.234 249.047 325.234C247.782 325.234 246.638 324.922 245.615 324.298C244.593 323.674 243.787 322.799 243.197 321.672C242.608 320.545 242.313 319.263 242.313 317.824ZM254.377 317.85C254.377 316.775 254.161 315.839 253.727 315.042C253.294 314.245 252.705 313.638 251.959 313.222C251.231 312.789 250.425 312.572 249.541 312.572C248.657 312.572 247.851 312.78 247.123 313.196C246.395 313.612 245.815 314.219 245.381 315.016C244.948 315.813 244.731 316.749 244.731 317.824C244.731 318.916 244.948 319.869 245.381 320.684C245.815 321.481 246.395 322.097 247.123 322.53C247.851 322.946 248.657 323.154 249.541 323.154C250.425 323.154 251.231 322.946 251.959 322.53C252.705 322.097 253.294 321.481 253.727 320.684C254.161 319.869 254.377 318.925 254.377 317.85ZM266.815 315.926C266.815 314.158 267.214 312.572 268.011 311.168C268.809 309.747 269.892 308.637 271.261 307.84C272.648 307.043 274.182 306.644 275.863 306.644C277.839 306.644 279.564 307.121 281.037 308.074C282.511 309.027 283.585 310.379 284.261 312.13H281.427C280.925 311.038 280.197 310.197 279.243 309.608C278.307 309.019 277.181 308.724 275.863 308.724C274.598 308.724 273.463 309.019 272.457 309.608C271.452 310.197 270.663 311.038 270.091 312.13C269.519 313.205 269.233 314.47 269.233 315.926C269.233 317.365 269.519 318.63 270.091 319.722C270.663 320.797 271.452 321.629 272.457 322.218C273.463 322.807 274.598 323.102 275.863 323.102C277.181 323.102 278.307 322.816 279.243 322.244C280.197 321.655 280.925 320.814 281.427 319.722H284.261C283.585 321.455 282.511 322.799 281.037 323.752C279.564 324.688 277.839 325.156 275.863 325.156C274.182 325.156 272.648 324.766 271.261 323.986C269.892 323.189 268.809 322.088 268.011 320.684C267.214 319.28 266.815 317.694 266.815 315.926ZM293.997 325.234C292.663 325.234 291.449 324.931 290.357 324.324C289.283 323.717 288.433 322.859 287.809 321.75C287.203 320.623 286.899 319.323 286.899 317.85C286.899 316.394 287.211 315.111 287.835 314.002C288.477 312.875 289.343 312.017 290.435 311.428C291.527 310.821 292.749 310.518 294.101 310.518C295.453 310.518 296.675 310.821 297.767 311.428C298.859 312.017 299.717 312.867 300.341 313.976C300.983 315.085 301.303 316.377 301.303 317.85C301.303 319.323 300.974 320.623 300.315 321.75C299.674 322.859 298.799 323.717 297.689 324.324C296.58 324.931 295.349 325.234 293.997 325.234ZM293.997 323.154C294.847 323.154 295.644 322.955 296.389 322.556C297.135 322.157 297.733 321.559 298.183 320.762C298.651 319.965 298.885 318.994 298.885 317.85C298.885 316.706 298.66 315.735 298.209 314.938C297.759 314.141 297.169 313.551 296.441 313.17C295.713 312.771 294.925 312.572 294.075 312.572C293.209 312.572 292.411 312.771 291.683 313.17C290.973 313.551 290.401 314.141 289.967 314.938C289.534 315.735 289.317 316.706 289.317 317.85C289.317 319.011 289.525 319.991 289.941 320.788C290.375 321.585 290.947 322.183 291.657 322.582C292.368 322.963 293.148 323.154 293.997 323.154ZM306.78 305.76V325H304.414V305.76H306.78ZM313.179 305.76V325H310.813V305.76H313.179ZM330.211 317.33C330.211 317.781 330.185 318.257 330.133 318.76H318.745C318.832 320.164 319.308 321.265 320.175 322.062C321.059 322.842 322.125 323.232 323.373 323.232C324.396 323.232 325.245 322.998 325.921 322.53C326.614 322.045 327.1 321.403 327.377 320.606H329.925C329.544 321.975 328.781 323.093 327.637 323.96C326.493 324.809 325.072 325.234 323.373 325.234C322.021 325.234 320.808 324.931 319.733 324.324C318.676 323.717 317.844 322.859 317.237 321.75C316.63 320.623 316.327 319.323 316.327 317.85C316.327 316.377 316.622 315.085 317.211 313.976C317.8 312.867 318.624 312.017 319.681 311.428C320.756 310.821 321.986 310.518 323.373 310.518C324.725 310.518 325.921 310.813 326.961 311.402C328.001 311.991 328.798 312.806 329.353 313.846C329.925 314.869 330.211 316.03 330.211 317.33ZM327.767 316.836C327.767 315.935 327.568 315.163 327.169 314.522C326.77 313.863 326.224 313.369 325.531 313.04C324.855 312.693 324.101 312.52 323.269 312.52C322.073 312.52 321.05 312.901 320.201 313.664C319.369 314.427 318.892 315.484 318.771 316.836H327.767ZM339.21 310.518C340.441 310.518 341.515 310.787 342.434 311.324C343.37 311.861 344.063 312.537 344.514 313.352V310.752H346.906V325.312C346.906 326.612 346.629 327.765 346.074 328.77C345.519 329.793 344.722 330.59 343.682 331.162C342.659 331.734 341.463 332.02 340.094 332.02C338.222 332.02 336.662 331.578 335.414 330.694C334.166 329.81 333.429 328.605 333.204 327.08H335.544C335.804 327.947 336.341 328.64 337.156 329.16C337.971 329.697 338.95 329.966 340.094 329.966C341.394 329.966 342.451 329.559 343.266 328.744C344.098 327.929 344.514 326.785 344.514 325.312V322.322C344.046 323.154 343.353 323.847 342.434 324.402C341.515 324.957 340.441 325.234 339.21 325.234C337.945 325.234 336.792 324.922 335.752 324.298C334.729 323.674 333.923 322.799 333.334 321.672C332.745 320.545 332.45 319.263 332.45 317.824C332.45 316.368 332.745 315.094 333.334 314.002C333.923 312.893 334.729 312.035 335.752 311.428C336.792 310.821 337.945 310.518 339.21 310.518ZM344.514 317.85C344.514 316.775 344.297 315.839 343.864 315.042C343.431 314.245 342.841 313.638 342.096 313.222C341.368 312.789 340.562 312.572 339.678 312.572C338.794 312.572 337.988 312.78 337.26 313.196C336.532 313.612 335.951 314.219 335.518 315.016C335.085 315.813 334.868 316.749 334.868 317.824C334.868 318.916 335.085 319.869 335.518 320.684C335.951 321.481 336.532 322.097 337.26 322.53C337.988 322.946 338.794 323.154 339.678 323.154C340.562 323.154 341.368 322.946 342.096 322.53C342.841 322.097 343.431 321.481 343.864 320.684C344.297 319.869 344.514 318.925 344.514 317.85ZM363.904 317.33C363.904 317.781 363.878 318.257 363.826 318.76H352.438C352.525 320.164 353.002 321.265 353.868 322.062C354.752 322.842 355.818 323.232 357.066 323.232C358.089 323.232 358.938 322.998 359.614 322.53C360.308 322.045 360.793 321.403 361.07 320.606H363.618C363.237 321.975 362.474 323.093 361.33 323.96C360.186 324.809 358.765 325.234 357.066 325.234C355.714 325.234 354.501 324.931 353.426 324.324C352.369 323.717 351.537 322.859 350.93 321.75C350.324 320.623 350.02 319.323 350.02 317.85C350.02 316.377 350.315 315.085 350.904 313.976C351.494 312.867 352.317 312.017 353.374 311.428C354.449 310.821 355.68 310.518 357.066 310.518C358.418 310.518 359.614 310.813 360.654 311.402C361.694 311.991 362.492 312.806 363.046 313.846C363.618 314.869 363.904 316.03 363.904 317.33ZM361.46 316.836C361.46 315.935 361.261 315.163 360.862 314.522C360.464 313.863 359.918 313.369 359.224 313.04C358.548 312.693 357.794 312.52 356.962 312.52C355.766 312.52 354.744 312.901 353.894 313.664C353.062 314.427 352.586 315.484 352.464 316.836H361.46Z" fill="#6D6A7C"/>
<path d="M223.173 371.321C225.12 369.757 226.646 368.477 227.75 367.48C228.854 366.468 229.782 365.418 230.533 364.329C231.3 363.225 231.683 362.144 231.683 361.086C231.683 360.089 231.438 359.307 230.947 358.74C230.472 358.157 229.697 357.866 228.624 357.866C227.581 357.866 226.769 358.196 226.186 358.855C225.619 359.499 225.312 360.365 225.266 361.454H223.242C223.303 359.737 223.825 358.41 224.806 357.475C225.787 356.54 227.052 356.072 228.601 356.072C230.18 356.072 231.43 356.509 232.35 357.383C233.285 358.257 233.753 359.461 233.753 360.994C233.753 362.267 233.37 363.509 232.603 364.72C231.852 365.916 230.993 366.974 230.027 367.894C229.061 368.799 227.827 369.857 226.324 371.068H234.236V372.816H223.173V371.321ZM236.655 364.513C236.655 361.876 237.085 359.821 237.943 358.349C238.802 356.862 240.305 356.118 242.451 356.118C244.583 356.118 246.078 356.862 246.936 358.349C247.795 359.821 248.224 361.876 248.224 364.513C248.224 367.196 247.795 369.282 246.936 370.769C246.078 372.256 244.583 373 242.451 373C240.305 373 238.802 372.256 237.943 370.769C237.085 369.282 236.655 367.196 236.655 364.513ZM246.154 364.513C246.154 363.179 246.062 362.052 245.878 361.132C245.71 360.197 245.349 359.445 244.797 358.878C244.261 358.311 243.479 358.027 242.451 358.027C241.409 358.027 240.611 358.311 240.059 358.878C239.523 359.445 239.162 360.197 238.978 361.132C238.81 362.052 238.725 363.179 238.725 364.513C238.725 365.893 238.81 367.051 238.978 367.986C239.162 368.921 239.523 369.673 240.059 370.24C240.611 370.807 241.409 371.091 242.451 371.091C243.479 371.091 244.261 370.807 244.797 370.24C245.349 369.673 245.71 368.921 245.878 367.986C246.062 367.051 246.154 365.893 246.154 364.513ZM250.546 358.28V356.371H254.87V373H252.754V358.28H250.546ZM258.212 371.321C260.159 369.757 261.685 368.477 262.789 367.48C263.893 366.468 264.821 365.418 265.572 364.329C266.339 363.225 266.722 362.144 266.722 361.086C266.722 360.089 266.477 359.307 265.986 358.74C265.511 358.157 264.736 357.866 263.663 357.866C262.62 357.866 261.808 358.196 261.225 358.855C260.658 359.499 260.351 360.365 260.305 361.454H258.281C258.342 359.737 258.864 358.41 259.845 357.475C260.826 356.54 262.091 356.072 263.64 356.072C265.219 356.072 266.469 356.509 267.389 357.383C268.324 358.257 268.792 359.461 268.792 360.994C268.792 362.267 268.409 363.509 267.642 364.72C266.891 365.916 266.032 366.974 265.066 367.894C264.1 368.799 262.866 369.857 261.363 371.068H269.275V372.816H258.212V371.321ZM280.78 363.685V365.456H271.603V363.685H280.78ZM284.11 371.321C286.057 369.757 287.583 368.477 288.687 367.48C289.791 366.468 290.718 365.418 291.47 364.329C292.236 363.225 292.62 362.144 292.62 361.086C292.62 360.089 292.374 359.307 291.884 358.74C291.408 358.157 290.634 357.866 289.561 357.866C288.518 357.866 287.705 358.196 287.123 358.855C286.555 359.499 286.249 360.365 286.203 361.454H284.179C284.24 359.737 284.761 358.41 285.743 357.475C286.724 356.54 287.989 356.072 289.538 356.072C291.117 356.072 292.367 356.509 293.287 357.383C294.222 358.257 294.69 359.461 294.69 360.994C294.69 362.267 294.306 363.509 293.54 364.72C292.788 365.916 291.93 366.974 290.964 367.894C289.998 368.799 288.763 369.857 287.261 371.068H295.173V372.816H284.11V371.321ZM297.592 364.513C297.592 361.876 298.021 359.821 298.88 358.349C299.739 356.862 301.241 356.118 303.388 356.118C305.519 356.118 307.014 356.862 307.873 358.349C308.732 359.821 309.161 361.876 309.161 364.513C309.161 367.196 308.732 369.282 307.873 370.769C307.014 372.256 305.519 373 303.388 373C301.241 373 299.739 372.256 298.88 370.769C298.021 369.282 297.592 367.196 297.592 364.513ZM307.091 364.513C307.091 363.179 306.999 362.052 306.815 361.132C306.646 360.197 306.286 359.445 305.734 358.878C305.197 358.311 304.415 358.027 303.388 358.027C302.345 358.027 301.548 358.311 300.996 358.878C300.459 359.445 300.099 360.197 299.915 361.132C299.746 362.052 299.662 363.179 299.662 364.513C299.662 365.893 299.746 367.051 299.915 367.986C300.099 368.921 300.459 369.673 300.996 370.24C301.548 370.807 302.345 371.091 303.388 371.091C304.415 371.091 305.197 370.807 305.734 370.24C306.286 369.673 306.646 368.921 306.815 367.986C306.999 367.051 307.091 365.893 307.091 364.513ZM311.781 371.321C313.729 369.757 315.254 368.477 316.358 367.48C317.462 366.468 318.39 365.418 319.141 364.329C319.908 363.225 320.291 362.144 320.291 361.086C320.291 360.089 320.046 359.307 319.555 358.74C319.08 358.157 318.306 357.866 317.232 357.866C316.19 357.866 315.377 358.196 314.794 358.855C314.227 359.499 313.92 360.365 313.874 361.454H311.85C311.912 359.737 312.433 358.41 313.414 357.475C314.396 356.54 315.661 356.072 317.209 356.072C318.789 356.072 320.038 356.509 320.958 357.383C321.894 358.257 322.361 359.461 322.361 360.994C322.361 362.267 321.978 363.509 321.211 364.72C320.46 365.916 319.601 366.974 318.635 367.894C317.669 368.799 316.435 369.857 314.932 371.068H322.844V372.816H311.781V371.321ZM325.264 364.513C325.264 361.876 325.693 359.821 326.552 358.349C327.411 356.862 328.913 356.118 331.06 356.118C333.191 356.118 334.686 356.862 335.545 358.349C336.404 359.821 336.833 361.876 336.833 364.513C336.833 367.196 336.404 369.282 335.545 370.769C334.686 372.256 333.191 373 331.06 373C328.913 373 327.411 372.256 326.552 370.769C325.693 369.282 325.264 367.196 325.264 364.513ZM334.763 364.513C334.763 363.179 334.671 362.052 334.487 361.132C334.318 360.197 333.958 359.445 333.406 358.878C332.869 358.311 332.087 358.027 331.06 358.027C330.017 358.027 329.22 358.311 328.668 358.878C328.131 359.445 327.771 360.197 327.587 361.132C327.418 362.052 327.334 363.179 327.334 364.513C327.334 365.893 327.418 367.051 327.587 367.986C327.771 368.921 328.131 369.673 328.668 370.24C329.22 370.807 330.017 371.091 331.06 371.091C332.087 371.091 332.869 370.807 333.406 370.24C333.958 369.673 334.318 368.921 334.487 367.986C334.671 367.051 334.763 365.893 334.763 364.513Z" fill="#888597"/>
<path d="M197.08 356.07H192.25V354.23C192.25 354.103 192.147 354 192.02 354H190.41C190.283 354 190.18 354.103 190.18 354.23V356.07H182.82V354.23C182.82 354.103 182.716 354 182.59 354H180.98C180.853 354 180.75 354.103 180.75 354.23V356.07H175.92C175.411 356.07 175 356.481 175 356.99V376.08C175 376.589 175.411 377 175.92 377H197.08C197.589 377 198 376.589 198 376.08V356.99C198 356.481 197.589 356.07 197.08 356.07ZM195.93 374.93H177.07V364.005H195.93V374.93ZM177.07 362.05V358.14H180.75V359.52C180.75 359.646 180.853 359.75 180.98 359.75H182.59C182.716 359.75 182.82 359.646 182.82 359.52V358.14H190.18V359.52C190.18 359.646 190.283 359.75 190.41 359.75H192.02C192.147 359.75 192.25 359.646 192.25 359.52V358.14H195.93V362.05H177.07Z" fill="#888597"/>
<defs>
<filter id="filter0_d_563_16" x="927" y="13" width="602" height="308" filterUnits="userSpaceOnUse" color-interpolation-filters="sRGB">
<feFlood flood-opacity="0" result="BackgroundImageFix"/>
<feColorMatrix in="SourceAlpha" type="matrix" values="0 0 0 0 0 0 0 0 0 0 0 0 0 0 0 0 0 0 127 0" result="hardAlpha"/>
<feOffset dx="28" dy="28"/>
<feGaussianBlur stdDeviation="25"/>
<feComposite in2="hardAlpha" operator="out"/>
<feColorMatrix type="matrix" values="0 0 0 0 0.0509804 0 0 0 0 0.152941 0 0 0 0 0.313726 0 0 0 0.16 0"/>
<feBlend mode="normal" in2="BackgroundImageFix" result="effect1_dropShadow_563_16"/>
<feBlend mode="normal" in="SourceGraphic" in2="effect1_dropShadow_563_16" result="shape"/>
</filter>
<filter id="filter1_d_563_16" x="927" y="380" width="602" height="308" filterUnits="userSpaceOnUse" color-interpolation-filters="sRGB">
<feFlood flood-opacity="0" result="BackgroundImageFix"/>
<feColorMatrix in="SourceAlpha" type="matrix" values="0 0 0 0 0 0 0 0 0 0 0 0 0 0 0 0 0 0 127 0" result="hardAlpha"/>
<feOffset dx="28" dy="28"/>
<feGaussianBlur stdDeviation="25"/>
<feComposite in2="hardAlpha" operator="out"/>
<feColorMatrix type="matrix" values="0 0 0 0 0.0509804 0 0 0 0 0.152941 0 0 0 0 0.313726 0 0 0 0.16 0"/>
<feBlend mode="normal" in2="BackgroundImageFix" result="effect1_dropShadow_563_16"/>
<feBlend mode="normal" in="SourceGraphic" in2="effect1_dropShadow_563_16" result="shape"/>
</filter>
<filter id="filter2_d_563_16" x="0" y="188" width="602" height="308" filterUnits="userSpaceOnUse" color-interpolation-filters="sRGB">
<feFlood flood-opacity="0" result="BackgroundImageFix"/>
<feColorMatrix in="SourceAlpha" type="matrix" values="0 0 0 0 0 0 0 0 0 0 0 0 0 0 0 0 0 0 127 0" result="hardAlpha"/>
<feOffset dx="28" dy="28"/>
<feGaussianBlur stdDeviation="25"/>
<feComposite in2="hardAlpha" operator="out"/>
<feColorMatrix type="matrix" values="0 0 0 0 0.0509804 0 0 0 0 0.152941 0 0 0 0 0.313726 0 0 0 0.16 0"/>
<feBlend mode="normal" in2="BackgroundImageFix" result="effect1_dropShadow_563_16"/>
<feBlend mode="normal" in="SourceGraphic" in2="effect1_dropShadow_563_16" result="shape"/>
</filter>
</defs>
</svg>
