<svg width="1256" height="638" viewBox="0 0 1256 638" fill="none" xmlns="http://www.w3.org/2000/svg">
<rect x="599" y="11" width="10" height="562" fill="black"/>
<rect x="752.932" y="112" width="11" height="152.933" transform="rotate(89.799 752.932 112)" fill="#7461E2"/>
<rect x="752.932" y="479" width="11" height="152.933" transform="rotate(89.799 752.932 479)" fill="#7461E2"/>
<circle cx="604.5" cy="16.5" r="16.5" fill="black"/>
<circle cx="604.5" cy="575.5" r="16.5" fill="black"/>
<circle cx="752.5" cy="484.5" r="16.5" fill="#7461E2"/>
<circle cx="604.5" cy="116.5" r="16.5" fill="#7461E2"/>
<circle cx="604.5" cy="283.5" r="16.5" fill="#7461E2"/>
<circle cx="604.5" cy="484.5" r="16.5" fill="#7461E2"/>
<circle cx="752.5" cy="116.5" r="16.5" fill="#7461E2"/>
<rect x="598.932" y="279" width="11" height="152.933" transform="rotate(89.799 598.932 279)" fill="#7461E2"/>
<circle cx="446.5" cy="283.5" r="16.5" fill="#7461E2"/>
<g filter="url(#filter0_d_563_16)">
<rect x="803" y="42" width="375" height="150" rx="55" fill="#F0F1F8"/>
</g>
<path d="M914.96 65.04V79H912.16V73.06H906.18V79H903.38V65.04H906.18V70.78H912.16V65.04H914.96ZM919.136 66.6C918.643 66.6 918.229 66.4467 917.896 66.14C917.576 65.82 917.416 65.4267 917.416 64.96C917.416 64.4933 917.576 64.1067 917.896 63.8C918.229 63.48 918.643 63.32 919.136 63.32C919.629 63.32 920.036 63.48 920.356 63.8C920.689 64.1067 920.856 64.4933 920.856 64.96C920.856 65.4267 920.689 65.82 920.356 66.14C920.036 66.4467 919.629 66.6 919.136 66.6ZM920.516 67.92V79H917.716V67.92H920.516ZM927.622 67.74C928.449 67.74 929.176 67.9067 929.802 68.24C930.429 68.56 930.922 68.98 931.282 69.5V67.92H934.102V79.08C934.102 80.1067 933.896 81.02 933.482 81.82C933.069 82.6333 932.449 83.2733 931.622 83.74C930.796 84.22 929.796 84.46 928.622 84.46C927.049 84.46 925.756 84.0933 924.742 83.36C923.742 82.6267 923.176 81.6267 923.042 80.36H925.822C925.969 80.8667 926.282 81.2667 926.762 81.56C927.256 81.8667 927.849 82.02 928.542 82.02C929.356 82.02 930.016 81.7733 930.522 81.28C931.029 80.8 931.282 80.0667 931.282 79.08V77.36C930.922 77.88 930.422 78.3133 929.782 78.66C929.156 79.0067 928.436 79.18 927.622 79.18C926.689 79.18 925.836 78.94 925.062 78.46C924.289 77.98 923.676 77.3067 923.222 76.44C922.782 75.56 922.562 74.5533 922.562 73.42C922.562 72.3 922.782 71.3067 923.222 70.44C923.676 69.5733 924.282 68.9067 925.042 68.44C925.816 67.9733 926.676 67.74 927.622 67.74ZM931.282 73.46C931.282 72.78 931.149 72.2 930.882 71.72C930.616 71.2267 930.256 70.8533 929.802 70.6C929.349 70.3333 928.862 70.2 928.342 70.2C927.822 70.2 927.342 70.3267 926.902 70.58C926.462 70.8333 926.102 71.2067 925.822 71.7C925.556 72.18 925.422 72.7533 925.422 73.42C925.422 74.0867 925.556 74.6733 925.822 75.18C926.102 75.6733 926.462 76.0533 926.902 76.32C927.356 76.5867 927.836 76.72 928.342 76.72C928.862 76.72 929.349 76.5933 929.802 76.34C930.256 76.0733 930.616 75.7 930.882 75.22C931.149 74.7267 931.282 74.14 931.282 73.46ZM943.077 67.76C943.917 67.76 944.664 67.9467 945.317 68.32C945.97 68.68 946.477 69.22 946.837 69.94C947.21 70.6467 947.397 71.5 947.397 72.5V79H944.597V72.88C944.597 72 944.377 71.3267 943.937 70.86C943.497 70.38 942.897 70.14 942.137 70.14C941.364 70.14 940.75 70.38 940.297 70.86C939.857 71.3267 939.637 72 939.637 72.88V79H936.837V64.2H939.637V69.3C939.997 68.82 940.477 68.4467 941.077 68.18C941.677 67.9 942.344 67.76 943.077 67.76ZM960.36 73.22C960.36 73.62 960.333 73.98 960.28 74.3H952.18C952.246 75.1 952.526 75.7267 953.02 76.18C953.513 76.6333 954.12 76.86 954.84 76.86C955.88 76.86 956.62 76.4133 957.06 75.52H960.08C959.76 76.5867 959.146 77.4667 958.24 78.16C957.333 78.84 956.22 79.18 954.9 79.18C953.833 79.18 952.873 78.9467 952.02 78.48C951.18 78 950.52 77.3267 950.04 76.46C949.573 75.5933 949.34 74.5933 949.34 73.46C949.34 72.3133 949.573 71.3067 950.04 70.44C950.506 69.5733 951.16 68.9067 952 68.44C952.84 67.9733 953.806 67.74 954.9 67.74C955.953 67.74 956.893 67.9667 957.72 68.42C958.56 68.8733 959.206 69.52 959.66 70.36C960.126 71.1867 960.36 72.14 960.36 73.22ZM957.46 72.42C957.446 71.7 957.186 71.1267 956.68 70.7C956.173 70.26 955.553 70.04 954.82 70.04C954.126 70.04 953.54 70.2533 953.06 70.68C952.593 71.0933 952.306 71.6733 952.2 72.42H957.46ZM965.203 69.64C965.563 69.0533 966.03 68.5933 966.603 68.26C967.19 67.9267 967.857 67.76 968.603 67.76V70.7H967.863C966.983 70.7 966.317 70.9067 965.863 71.32C965.423 71.7333 965.203 72.4533 965.203 73.48V79H962.403V67.92H965.203V69.64ZM978.055 67.3V70.8H982.755V73.02H978.055V76.72H983.355V79H975.255V65.02H983.355V67.3H978.055ZM985.18 73.42C985.18 72.3 985.4 71.3067 985.84 70.44C986.293 69.5733 986.906 68.9067 987.68 68.44C988.453 67.9733 989.313 67.74 990.26 67.74C990.98 67.74 991.666 67.9 992.32 68.22C992.973 68.5267 993.493 68.94 993.88 69.46V64.2H996.72V79H993.88V77.36C993.533 77.9067 993.046 78.3467 992.42 78.68C991.793 79.0133 991.066 79.18 990.24 79.18C989.306 79.18 988.453 78.94 987.68 78.46C986.906 77.98 986.293 77.3067 985.84 76.44C985.4 75.56 985.18 74.5533 985.18 73.42ZM993.9 73.46C993.9 72.78 993.766 72.2 993.5 71.72C993.233 71.2267 992.873 70.8533 992.42 70.6C991.966 70.3333 991.48 70.2 990.96 70.2C990.44 70.2 989.96 70.3267 989.52 70.58C989.08 70.8333 988.72 71.2067 988.44 71.7C988.173 72.18 988.04 72.7533 988.04 73.42C988.04 74.0867 988.173 74.6733 988.44 75.18C988.72 75.6733 989.08 76.0533 989.52 76.32C989.973 76.5867 990.453 76.72 990.96 76.72C991.48 76.72 991.966 76.5933 992.42 76.34C992.873 76.0733 993.233 75.7 993.5 75.22C993.766 74.7267 993.9 74.14 993.9 73.46ZM1009.91 67.92V79H1007.09V77.6C1006.73 78.08 1006.26 78.46 1005.67 78.74C1005.1 79.0067 1004.47 79.14 1003.79 79.14C1002.93 79.14 1002.16 78.96 1001.49 78.6C1000.83 78.2267 1000.3 77.6867 999.914 76.98C999.541 76.26 999.354 75.4067 999.354 74.42V67.92H1002.15V74.02C1002.15 74.9 1002.37 75.58 1002.81 76.06C1003.25 76.5267 1003.85 76.76 1004.61 76.76C1005.39 76.76 1005.99 76.5267 1006.43 76.06C1006.87 75.58 1007.09 74.9 1007.09 74.02V67.92H1009.91ZM1011.96 73.46C1011.96 72.3133 1012.19 71.3133 1012.66 70.46C1013.12 69.5933 1013.77 68.9267 1014.6 68.46C1015.42 67.98 1016.37 67.74 1017.44 67.74C1018.81 67.74 1019.94 68.0867 1020.84 68.78C1021.74 69.46 1022.35 70.42 1022.66 71.66H1019.64C1019.48 71.18 1019.2 70.8067 1018.82 70.54C1018.44 70.26 1017.98 70.12 1017.42 70.12C1016.62 70.12 1015.98 70.4133 1015.52 71C1015.05 71.5733 1014.82 72.3933 1014.82 73.46C1014.82 74.5133 1015.05 75.3333 1015.52 75.92C1015.98 76.4933 1016.62 76.78 1017.42 76.78C1018.55 76.78 1019.29 76.2733 1019.64 75.26H1022.66C1022.35 76.46 1021.74 77.4133 1020.84 78.12C1019.93 78.8267 1018.8 79.18 1017.44 79.18C1016.37 79.18 1015.42 78.9467 1014.6 78.48C1013.77 78 1013.12 77.3333 1012.66 76.48C1012.19 75.6133 1011.96 74.6067 1011.96 73.46ZM1023.99 73.42C1023.99 72.3 1024.21 71.3067 1024.65 70.44C1025.1 69.5733 1025.71 68.9067 1026.47 68.44C1027.24 67.9733 1028.1 67.74 1029.05 67.74C1029.87 67.74 1030.59 67.9067 1031.21 68.24C1031.83 68.5733 1032.33 68.9933 1032.71 69.5V67.92H1035.53V79H1032.71V77.38C1032.35 77.9 1031.85 78.3333 1031.21 78.68C1030.58 79.0133 1029.85 79.18 1029.03 79.18C1028.09 79.18 1027.24 78.94 1026.47 78.46C1025.71 77.98 1025.1 77.3067 1024.65 76.44C1024.21 75.56 1023.99 74.5533 1023.99 73.42ZM1032.71 73.46C1032.71 72.78 1032.57 72.2 1032.31 71.72C1032.04 71.2267 1031.68 70.8533 1031.23 70.6C1030.77 70.3333 1030.29 70.2 1029.77 70.2C1029.25 70.2 1028.77 70.3267 1028.33 70.58C1027.89 70.8333 1027.53 71.2067 1027.25 71.7C1026.98 72.18 1026.85 72.7533 1026.85 73.42C1026.85 74.0867 1026.98 74.6733 1027.25 75.18C1027.53 75.6733 1027.89 76.0533 1028.33 76.32C1028.78 76.5867 1029.26 76.72 1029.77 76.72C1030.29 76.72 1030.77 76.5933 1031.23 76.34C1031.68 76.0733 1032.04 75.7 1032.31 75.22C1032.57 74.7267 1032.71 74.14 1032.71 73.46ZM1041.52 70.22V75.58C1041.52 75.9533 1041.61 76.2267 1041.78 76.4C1041.97 76.56 1042.28 76.64 1042.7 76.64H1044V79H1042.24C1039.88 79 1038.7 77.8533 1038.7 75.56V70.22H1037.38V67.92H1038.7V65.18H1041.52V67.92H1044V70.22H1041.52ZM1047.44 66.6C1046.94 66.6 1046.53 66.4467 1046.2 66.14C1045.88 65.82 1045.72 65.4267 1045.72 64.96C1045.72 64.4933 1045.88 64.1067 1046.2 63.8C1046.53 63.48 1046.94 63.32 1047.44 63.32C1047.93 63.32 1048.34 63.48 1048.66 63.8C1048.99 64.1067 1049.16 64.4933 1049.16 64.96C1049.16 65.4267 1048.99 65.82 1048.66 66.14C1048.34 66.4467 1047.93 66.6 1047.44 66.6ZM1048.82 67.92V79H1046.02V67.92H1048.82ZM1056.5 79.18C1055.44 79.18 1054.48 78.9467 1053.62 78.48C1052.77 78 1052.1 77.3267 1051.6 76.46C1051.12 75.5933 1050.88 74.5933 1050.88 73.46C1050.88 72.3267 1051.13 71.3267 1051.62 70.46C1052.13 69.5933 1052.82 68.9267 1053.68 68.46C1054.55 67.98 1055.52 67.74 1056.58 67.74C1057.65 67.74 1058.62 67.98 1059.48 68.46C1060.35 68.9267 1061.03 69.5933 1061.52 70.46C1062.03 71.3267 1062.28 72.3267 1062.28 73.46C1062.28 74.5933 1062.02 75.5933 1061.5 76.46C1061 77.3267 1060.3 78 1059.42 78.48C1058.56 78.9467 1057.58 79.18 1056.5 79.18ZM1056.5 76.74C1057.01 76.74 1057.48 76.62 1057.92 76.38C1058.38 76.1267 1058.74 75.7533 1059 75.26C1059.27 74.7667 1059.4 74.1667 1059.4 73.46C1059.4 72.4067 1059.12 71.6 1058.56 71.04C1058.02 70.4667 1057.34 70.18 1056.54 70.18C1055.74 70.18 1055.07 70.4667 1054.52 71.04C1053.99 71.6 1053.72 72.4067 1053.72 73.46C1053.72 74.5133 1053.98 75.3267 1054.5 75.9C1055.04 76.46 1055.7 76.74 1056.5 76.74ZM1070.48 67.76C1071.8 67.76 1072.86 68.18 1073.68 69.02C1074.49 69.8467 1074.9 71.0067 1074.9 72.5V79H1072.1V72.88C1072.1 72 1071.88 71.3267 1071.44 70.86C1071 70.38 1070.4 70.14 1069.64 70.14C1068.86 70.14 1068.25 70.38 1067.8 70.86C1067.36 71.3267 1067.14 72 1067.14 72.88V79H1064.34V67.92H1067.14V69.3C1067.51 68.82 1067.98 68.4467 1068.56 68.18C1069.14 67.9 1069.78 67.76 1070.48 67.76Z" fill="black"/>
<path d="M849.024 98.7874V111.333H847.386V98.7874H849.024ZM856.622 101.289C857.822 101.289 858.794 101.655 859.538 102.387C860.282 103.107 860.654 104.151 860.654 105.519V111.333H859.034V105.753C859.034 104.769 858.788 104.019 858.296 103.503C857.804 102.975 857.132 102.711 856.28 102.711C855.416 102.711 854.726 102.981 854.21 103.521C853.706 104.061 853.454 104.847 853.454 105.879V111.333H851.816V101.469H853.454V102.873C853.778 102.369 854.216 101.979 854.768 101.703C855.332 101.427 855.95 101.289 856.622 101.289ZM866.821 111.495C866.065 111.495 865.387 111.369 864.787 111.117C864.187 110.853 863.713 110.493 863.365 110.037C863.017 109.569 862.825 109.035 862.789 108.435H864.481C864.529 108.927 864.757 109.329 865.165 109.641C865.585 109.953 866.131 110.109 866.803 110.109C867.427 110.109 867.919 109.971 868.279 109.695C868.639 109.419 868.819 109.071 868.819 108.651C868.819 108.219 868.627 107.901 868.243 107.697C867.859 107.481 867.265 107.271 866.461 107.067C865.729 106.875 865.129 106.683 864.661 106.491C864.205 106.287 863.809 105.993 863.473 105.609C863.149 105.213 862.987 104.697 862.987 104.061C862.987 103.557 863.137 103.095 863.437 102.675C863.737 102.255 864.163 101.925 864.715 101.685C865.267 101.433 865.897 101.307 866.605 101.307C867.697 101.307 868.579 101.583 869.251 102.135C869.923 102.687 870.283 103.443 870.331 104.403H868.693C868.657 103.887 868.447 103.473 868.063 103.161C867.691 102.849 867.187 102.693 866.551 102.693C865.963 102.693 865.495 102.819 865.147 103.071C864.799 103.323 864.625 103.653 864.625 104.061C864.625 104.385 864.727 104.655 864.931 104.871C865.147 105.075 865.411 105.243 865.723 105.375C866.047 105.495 866.491 105.633 867.055 105.789C867.763 105.981 868.339 106.173 868.783 106.365C869.227 106.545 869.605 106.821 869.917 107.193C870.241 107.565 870.409 108.051 870.421 108.651C870.421 109.191 870.271 109.677 869.971 110.109C869.671 110.541 869.245 110.883 868.693 111.135C868.153 111.375 867.529 111.495 866.821 111.495ZM874.732 102.819V108.633C874.732 109.113 874.834 109.455 875.038 109.659C875.242 109.851 875.596 109.947 876.1 109.947H877.306V111.333H875.83C874.918 111.333 874.234 111.123 873.778 110.703C873.322 110.283 873.094 109.593 873.094 108.633V102.819H871.816V101.469H873.094V98.9854H874.732V101.469H877.306V102.819H874.732ZM880.136 99.8674C879.824 99.8674 879.56 99.7594 879.344 99.5434C879.128 99.3274 879.02 99.0634 879.02 98.7514C879.02 98.4394 879.128 98.1754 879.344 97.9594C879.56 97.7434 879.824 97.6354 880.136 97.6354C880.436 97.6354 880.688 97.7434 880.892 97.9594C881.108 98.1754 881.216 98.4394 881.216 98.7514C881.216 99.0634 881.108 99.3274 880.892 99.5434C880.688 99.7594 880.436 99.8674 880.136 99.8674ZM880.928 101.469V111.333H879.29V101.469H880.928ZM885.718 102.819V108.633C885.718 109.113 885.82 109.455 886.024 109.659C886.228 109.851 886.582 109.947 887.086 109.947H888.292V111.333H886.816C885.904 111.333 885.22 111.123 884.764 110.703C884.308 110.283 884.08 109.593 884.08 108.633V102.819H882.802V101.469H884.08V98.9854H885.718V101.469H888.292V102.819H885.718ZM899.025 101.469V111.333H897.387V109.875C897.075 110.379 896.637 110.775 896.073 111.063C895.521 111.339 894.909 111.477 894.237 111.477C893.469 111.477 892.779 111.321 892.167 111.009C891.555 110.685 891.069 110.205 890.709 109.569C890.361 108.933 890.187 108.159 890.187 107.247V101.469H891.807V107.031C891.807 108.003 892.053 108.753 892.545 109.281C893.037 109.797 893.709 110.055 894.561 110.055C895.437 110.055 896.127 109.785 896.631 109.245C897.135 108.705 897.387 107.919 897.387 106.887V101.469H899.025ZM903.788 102.819V108.633C903.788 109.113 903.89 109.455 904.094 109.659C904.298 109.851 904.652 109.947 905.156 109.947H906.362V111.333H904.886C903.974 111.333 903.29 111.123 902.834 110.703C902.378 110.283 902.15 109.593 902.15 108.633V102.819H900.872V101.469H902.15V98.9854H903.788V101.469H906.362V102.819H903.788ZM917.347 106.023C917.347 106.335 917.329 106.665 917.293 107.013H909.409C909.469 107.985 909.799 108.747 910.399 109.299C911.011 109.839 911.749 110.109 912.613 110.109C913.321 110.109 913.909 109.947 914.377 109.623C914.857 109.287 915.193 108.843 915.385 108.291H917.149C916.885 109.239 916.357 110.013 915.565 110.613C914.773 111.201 913.789 111.495 912.613 111.495C911.677 111.495 910.837 111.285 910.093 110.865C909.361 110.445 908.785 109.851 908.365 109.083C907.945 108.303 907.735 107.403 907.735 106.383C907.735 105.363 907.939 104.469 908.347 103.701C908.755 102.933 909.325 102.345 910.057 101.937C910.801 101.517 911.653 101.307 912.613 101.307C913.549 101.307 914.377 101.511 915.097 101.919C915.817 102.327 916.369 102.891 916.753 103.611C917.149 104.319 917.347 105.123 917.347 106.023ZM915.655 105.681C915.655 105.057 915.517 104.523 915.241 104.079C914.965 103.623 914.587 103.281 914.107 103.053C913.639 102.813 913.117 102.693 912.541 102.693C911.713 102.693 911.005 102.957 910.417 103.485C909.841 104.013 909.511 104.745 909.427 105.681H915.655ZM928.61 111.495C927.686 111.495 926.846 111.285 926.09 110.865C925.346 110.445 924.758 109.851 924.326 109.083C923.906 108.303 923.696 107.403 923.696 106.383C923.696 105.375 923.912 104.487 924.344 103.719C924.788 102.939 925.388 102.345 926.144 101.937C926.9 101.517 927.746 101.307 928.682 101.307C929.618 101.307 930.464 101.517 931.22 101.937C931.976 102.345 932.57 102.933 933.002 103.701C933.446 104.469 933.668 105.363 933.668 106.383C933.668 107.403 933.44 108.303 932.984 109.083C932.54 109.851 931.934 110.445 931.166 110.865C930.398 111.285 929.546 111.495 928.61 111.495ZM928.61 110.055C929.198 110.055 929.75 109.917 930.266 109.641C930.782 109.365 931.196 108.951 931.508 108.399C931.832 107.847 931.994 107.175 931.994 106.383C931.994 105.591 931.838 104.919 931.526 104.367C931.214 103.815 930.806 103.407 930.302 103.143C929.798 102.867 929.252 102.729 928.664 102.729C928.064 102.729 927.512 102.867 927.008 103.143C926.516 103.407 926.12 103.815 925.82 104.367C925.52 104.919 925.37 105.591 925.37 106.383C925.37 107.187 925.514 107.865 925.802 108.417C926.102 108.969 926.498 109.383 926.99 109.659C927.482 109.923 928.022 110.055 928.61 110.055ZM939.836 102.819H937.766V111.333H936.128V102.819H934.85V101.469H936.128V100.767C936.128 99.6634 936.41 98.8594 936.974 98.3554C937.55 97.8394 938.468 97.5814 939.728 97.5814V98.9494C939.008 98.9494 938.498 99.0934 938.198 99.3814C937.91 99.6574 937.766 100.119 937.766 100.767V101.469H939.836V102.819ZM950.522 111.459C949.694 111.459 948.95 111.315 948.29 111.027C947.642 110.727 947.132 110.319 946.76 109.803C946.388 109.275 946.196 108.669 946.184 107.985H947.93C947.99 108.573 948.23 109.071 948.65 109.479C949.082 109.875 949.706 110.073 950.522 110.073C951.302 110.073 951.914 109.881 952.358 109.497C952.814 109.101 953.042 108.597 953.042 107.985C953.042 107.505 952.91 107.115 952.646 106.815C952.382 106.515 952.052 106.287 951.656 106.131C951.26 105.975 950.726 105.807 950.054 105.627C949.226 105.411 948.56 105.195 948.056 104.979C947.564 104.763 947.138 104.427 946.778 103.971C946.43 103.503 946.256 102.879 946.256 102.099C946.256 101.415 946.43 100.809 946.778 100.281C947.126 99.7534 947.612 99.3454 948.236 99.0574C948.872 98.7694 949.598 98.6254 950.414 98.6254C951.59 98.6254 952.55 98.9194 953.294 99.5074C954.05 100.095 954.476 100.875 954.572 101.847H952.772C952.712 101.367 952.46 100.947 952.016 100.587C951.572 100.215 950.984 100.029 950.252 100.029C949.568 100.029 949.01 100.209 948.578 100.569C948.146 100.917 947.93 101.409 947.93 102.045C947.93 102.501 948.056 102.873 948.308 103.161C948.572 103.449 948.89 103.671 949.262 103.827C949.646 103.971 950.18 104.139 950.864 104.331C951.692 104.559 952.358 104.787 952.862 105.015C953.366 105.231 953.798 105.573 954.158 106.041C954.518 106.497 954.698 107.121 954.698 107.913C954.698 108.525 954.536 109.101 954.212 109.641C953.888 110.181 953.408 110.619 952.772 110.955C952.136 111.291 951.386 111.459 950.522 111.459ZM961.411 111.495C960.487 111.495 959.647 111.285 958.891 110.865C958.147 110.445 957.559 109.851 957.127 109.083C956.707 108.303 956.497 107.403 956.497 106.383C956.497 105.375 956.713 104.487 957.145 103.719C957.589 102.939 958.189 102.345 958.945 101.937C959.701 101.517 960.547 101.307 961.483 101.307C962.419 101.307 963.265 101.517 964.021 101.937C964.777 102.345 965.371 102.933 965.803 103.701C966.247 104.469 966.469 105.363 966.469 106.383C966.469 107.403 966.241 108.303 965.785 109.083C965.341 109.851 964.735 110.445 963.967 110.865C963.199 111.285 962.347 111.495 961.411 111.495ZM961.411 110.055C961.999 110.055 962.551 109.917 963.067 109.641C963.583 109.365 963.997 108.951 964.309 108.399C964.633 107.847 964.795 107.175 964.795 106.383C964.795 105.591 964.639 104.919 964.327 104.367C964.015 103.815 963.607 103.407 963.103 103.143C962.599 102.867 962.053 102.729 961.465 102.729C960.865 102.729 960.313 102.867 959.809 103.143C959.317 103.407 958.921 103.815 958.621 104.367C958.321 104.919 958.171 105.591 958.171 106.383C958.171 107.187 958.315 107.865 958.603 108.417C958.903 108.969 959.299 109.383 959.791 109.659C960.283 109.923 960.823 110.055 961.411 110.055ZM972.636 102.819H970.566V111.333H968.928V102.819H967.65V101.469H968.928V100.767C968.928 99.6634 969.21 98.8594 969.774 98.3554C970.35 97.8394 971.268 97.5814 972.528 97.5814V98.9494C971.808 98.9494 971.298 99.0934 970.998 99.3814C970.71 99.6574 970.566 100.119 970.566 100.767V101.469H972.636V102.819ZM976.544 102.819V108.633C976.544 109.113 976.646 109.455 976.85 109.659C977.054 109.851 977.408 109.947 977.912 109.947H979.118V111.333H977.642C976.73 111.333 976.046 111.123 975.59 110.703C975.134 110.283 974.906 109.593 974.906 108.633V102.819H973.628V101.469H974.906V98.9854H976.544V101.469H979.118V102.819H976.544ZM994.243 101.469L991.165 111.333H989.473L987.097 103.503L984.721 111.333H983.029L979.933 101.469H981.607L983.875 109.749L986.323 101.469H987.997L990.391 109.767L992.623 101.469H994.243ZM995.256 106.365C995.256 105.357 995.46 104.475 995.868 103.719C996.276 102.951 996.834 102.357 997.542 101.937C998.262 101.517 999.06 101.307 999.936 101.307C1000.8 101.307 1001.55 101.493 1002.19 101.865C1002.82 102.237 1003.3 102.705 1003.61 103.269V101.469H1005.26V111.333H1003.61V109.497C1003.28 110.073 1002.8 110.553 1002.15 110.937C1001.51 111.309 1000.77 111.495 999.918 111.495C999.042 111.495 998.25 111.279 997.542 110.847C996.834 110.415 996.276 109.809 995.868 109.029C995.46 108.249 995.256 107.361 995.256 106.365ZM1003.61 106.383C1003.61 105.639 1003.46 104.991 1003.16 104.439C1002.86 103.887 1002.45 103.467 1001.93 103.179C1001.43 102.879 1000.87 102.729 1000.26 102.729C999.648 102.729 999.09 102.873 998.586 103.161C998.082 103.449 997.68 103.869 997.38 104.421C997.08 104.973 996.93 105.621 996.93 106.365C996.93 107.121 997.08 107.781 997.38 108.345C997.68 108.897 998.082 109.323 998.586 109.623C999.09 109.911 999.648 110.055 1000.26 110.055C1000.87 110.055 1001.43 109.911 1001.93 109.623C1002.45 109.323 1002.86 108.897 1003.16 108.345C1003.46 107.781 1003.61 107.127 1003.61 106.383ZM1009.67 103.071C1009.96 102.507 1010.37 102.069 1010.89 101.757C1011.43 101.445 1012.09 101.289 1012.86 101.289V102.981H1012.42C1010.59 102.981 1009.67 103.977 1009.67 105.969V111.333H1008.03V101.469H1009.67V103.071ZM1023.75 106.023C1023.75 106.335 1023.73 106.665 1023.69 107.013H1015.81C1015.87 107.985 1016.2 108.747 1016.8 109.299C1017.41 109.839 1018.15 110.109 1019.01 110.109C1019.72 110.109 1020.31 109.947 1020.78 109.623C1021.26 109.287 1021.59 108.843 1021.79 108.291H1023.55C1023.29 109.239 1022.76 110.013 1021.97 110.613C1021.17 111.201 1020.19 111.495 1019.01 111.495C1018.08 111.495 1017.24 111.285 1016.49 110.865C1015.76 110.445 1015.19 109.851 1014.77 109.083C1014.35 108.303 1014.14 107.403 1014.14 106.383C1014.14 105.363 1014.34 104.469 1014.75 103.701C1015.16 102.933 1015.73 102.345 1016.46 101.937C1017.2 101.517 1018.05 101.307 1019.01 101.307C1019.95 101.307 1020.78 101.511 1021.5 101.919C1022.22 102.327 1022.77 102.891 1023.15 103.611C1023.55 104.319 1023.75 105.123 1023.75 106.023ZM1022.06 105.681C1022.06 105.057 1021.92 104.523 1021.64 104.079C1021.37 103.623 1020.99 103.281 1020.51 103.053C1020.04 102.813 1019.52 102.693 1018.94 102.693C1018.11 102.693 1017.41 102.957 1016.82 103.485C1016.24 104.013 1015.91 104.745 1015.83 105.681H1022.06ZM1032.35 100.119V104.313H1036.92V105.663H1032.35V109.983H1037.46V111.333H1030.71V98.7694H1037.46V100.119H1032.35ZM1044.74 101.289C1045.94 101.289 1046.91 101.655 1047.66 102.387C1048.4 103.107 1048.77 104.151 1048.77 105.519V111.333H1047.15V105.753C1047.15 104.769 1046.91 104.019 1046.42 103.503C1045.92 102.975 1045.25 102.711 1044.4 102.711C1043.54 102.711 1042.85 102.981 1042.33 103.521C1041.83 104.061 1041.57 104.847 1041.57 105.879V111.333H1039.94V101.469H1041.57V102.873C1041.9 102.369 1042.34 101.979 1042.89 101.703C1043.45 101.427 1044.07 101.289 1044.74 101.289ZM1055.52 101.307C1056.37 101.307 1057.11 101.493 1057.75 101.865C1058.4 102.237 1058.88 102.705 1059.19 103.269V101.469H1060.85V111.549C1060.85 112.449 1060.65 113.247 1060.27 113.943C1059.89 114.651 1059.33 115.203 1058.61 115.599C1057.91 115.995 1057.08 116.193 1056.13 116.193C1054.83 116.193 1053.75 115.887 1052.89 115.275C1052.03 114.663 1051.52 113.829 1051.36 112.773H1052.98C1053.16 113.373 1053.53 113.853 1054.1 114.213C1054.66 114.585 1055.34 114.771 1056.13 114.771C1057.03 114.771 1057.76 114.489 1058.33 113.925C1058.9 113.361 1059.19 112.569 1059.19 111.549V109.479C1058.87 110.055 1058.39 110.535 1057.75 110.919C1057.11 111.303 1056.37 111.495 1055.52 111.495C1054.64 111.495 1053.84 111.279 1053.12 110.847C1052.42 110.415 1051.86 109.809 1051.45 109.029C1051.04 108.249 1050.84 107.361 1050.84 106.365C1050.84 105.357 1051.04 104.475 1051.45 103.719C1051.86 102.951 1052.42 102.357 1053.12 101.937C1053.84 101.517 1054.64 101.307 1055.52 101.307ZM1059.19 106.383C1059.19 105.639 1059.04 104.991 1058.74 104.439C1058.44 103.887 1058.03 103.467 1057.52 103.179C1057.01 102.879 1056.45 102.729 1055.84 102.729C1055.23 102.729 1054.67 102.873 1054.17 103.161C1053.66 103.449 1053.26 103.869 1052.96 104.421C1052.66 104.973 1052.51 105.621 1052.51 106.365C1052.51 107.121 1052.66 107.781 1052.96 108.345C1053.26 108.897 1053.66 109.323 1054.17 109.623C1054.67 109.911 1055.23 110.055 1055.84 110.055C1056.45 110.055 1057.01 109.911 1057.52 109.623C1058.03 109.323 1058.44 108.897 1058.74 108.345C1059.04 107.781 1059.19 107.127 1059.19 106.383ZM1064.46 99.8674C1064.15 99.8674 1063.88 99.7594 1063.67 99.5434C1063.45 99.3274 1063.34 99.0634 1063.34 98.7514C1063.34 98.4394 1063.45 98.1754 1063.67 97.9594C1063.88 97.7434 1064.15 97.6354 1064.46 97.6354C1064.76 97.6354 1065.01 97.7434 1065.22 97.9594C1065.43 98.1754 1065.54 98.4394 1065.54 98.7514C1065.54 99.0634 1065.43 99.3274 1065.22 99.5434C1065.01 99.7594 1064.76 99.8674 1064.46 99.8674ZM1065.25 101.469V111.333H1063.61V101.469H1065.25ZM1072.85 101.289C1074.05 101.289 1075.02 101.655 1075.77 102.387C1076.51 103.107 1076.88 104.151 1076.88 105.519V111.333H1075.26V105.753C1075.26 104.769 1075.02 104.019 1074.52 103.503C1074.03 102.975 1073.36 102.711 1072.51 102.711C1071.64 102.711 1070.95 102.981 1070.44 103.521C1069.93 104.061 1069.68 104.847 1069.68 105.879V111.333H1068.04V101.469H1069.68V102.873C1070.01 102.369 1070.44 101.979 1071 101.703C1071.56 101.427 1072.18 101.289 1072.85 101.289ZM1088.56 106.023C1088.56 106.335 1088.54 106.665 1088.5 107.013H1080.62C1080.68 107.985 1081.01 108.747 1081.61 109.299C1082.22 109.839 1082.96 110.109 1083.82 110.109C1084.53 110.109 1085.12 109.947 1085.59 109.623C1086.07 109.287 1086.4 108.843 1086.6 108.291H1088.36C1088.1 109.239 1087.57 110.013 1086.78 110.613C1085.98 111.201 1085 111.495 1083.82 111.495C1082.89 111.495 1082.05 111.285 1081.3 110.865C1080.57 110.445 1080 109.851 1079.58 109.083C1079.16 108.303 1078.95 107.403 1078.95 106.383C1078.95 105.363 1079.15 104.469 1079.56 103.701C1079.97 102.933 1080.54 102.345 1081.27 101.937C1082.01 101.517 1082.86 101.307 1083.82 101.307C1084.76 101.307 1085.59 101.511 1086.31 101.919C1087.03 102.327 1087.58 102.891 1087.96 103.611C1088.36 104.319 1088.56 105.123 1088.56 106.023ZM1086.87 105.681C1086.87 105.057 1086.73 104.523 1086.45 104.079C1086.18 103.623 1085.8 103.281 1085.32 103.053C1084.85 102.813 1084.33 102.693 1083.75 102.693C1082.92 102.693 1082.22 102.957 1081.63 103.485C1081.05 104.013 1080.72 104.745 1080.64 105.681H1086.87ZM1099.72 106.023C1099.72 106.335 1099.7 106.665 1099.67 107.013H1091.78C1091.84 107.985 1092.17 108.747 1092.77 109.299C1093.38 109.839 1094.12 110.109 1094.99 110.109C1095.69 110.109 1096.28 109.947 1096.75 109.623C1097.23 109.287 1097.57 108.843 1097.76 108.291H1099.52C1099.26 109.239 1098.73 110.013 1097.94 110.613C1097.15 111.201 1096.16 111.495 1094.99 111.495C1094.05 111.495 1093.21 111.285 1092.47 110.865C1091.73 110.445 1091.16 109.851 1090.74 109.083C1090.32 108.303 1090.11 107.403 1090.11 106.383C1090.11 105.363 1090.31 104.469 1090.72 103.701C1091.13 102.933 1091.7 102.345 1092.43 101.937C1093.17 101.517 1094.03 101.307 1094.99 101.307C1095.92 101.307 1096.75 101.511 1097.47 101.919C1098.19 102.327 1098.74 102.891 1099.13 103.611C1099.52 104.319 1099.72 105.123 1099.72 106.023ZM1098.03 105.681C1098.03 105.057 1097.89 104.523 1097.61 104.079C1097.34 103.623 1096.96 103.281 1096.48 103.053C1096.01 102.813 1095.49 102.693 1094.91 102.693C1094.09 102.693 1093.38 102.957 1092.79 103.485C1092.21 104.013 1091.88 104.745 1091.8 105.681H1098.03ZM1103.52 103.071C1103.81 102.507 1104.22 102.069 1104.74 101.757C1105.28 101.445 1105.94 101.289 1106.71 101.289V102.981H1106.27C1104.44 102.981 1103.52 103.977 1103.52 105.969V111.333H1101.88V101.469H1103.52V103.071ZM1109.44 99.8674C1109.13 99.8674 1108.87 99.7594 1108.65 99.5434C1108.43 99.3274 1108.33 99.0634 1108.33 98.7514C1108.33 98.4394 1108.43 98.1754 1108.65 97.9594C1108.87 97.7434 1109.13 97.6354 1109.44 97.6354C1109.74 97.6354 1109.99 97.7434 1110.2 97.9594C1110.41 98.1754 1110.52 98.4394 1110.52 98.7514C1110.52 99.0634 1110.41 99.3274 1110.2 99.5434C1109.99 99.7594 1109.74 99.8674 1109.44 99.8674ZM1110.23 101.469V111.333H1108.6V101.469H1110.23ZM1117.83 101.289C1119.03 101.289 1120 101.655 1120.75 102.387C1121.49 103.107 1121.86 104.151 1121.86 105.519V111.333H1120.24V105.753C1120.24 104.769 1120 104.019 1119.51 103.503C1119.01 102.975 1118.34 102.711 1117.49 102.711C1116.63 102.711 1115.94 102.981 1115.42 103.521C1114.92 104.061 1114.66 104.847 1114.66 105.879V111.333H1113.03V101.469H1114.66V102.873C1114.99 102.369 1115.43 101.979 1115.98 101.703C1116.54 101.427 1117.16 101.289 1117.83 101.289ZM1128.61 101.307C1129.46 101.307 1130.2 101.493 1130.84 101.865C1131.49 102.237 1131.97 102.705 1132.28 103.269V101.469H1133.94V111.549C1133.94 112.449 1133.74 113.247 1133.36 113.943C1132.98 114.651 1132.42 115.203 1131.7 115.599C1131 115.995 1130.17 116.193 1129.22 116.193C1127.92 116.193 1126.84 115.887 1125.98 115.275C1125.12 114.663 1124.61 113.829 1124.45 112.773H1126.07C1126.25 113.373 1126.62 113.853 1127.19 114.213C1127.75 114.585 1128.43 114.771 1129.22 114.771C1130.12 114.771 1130.85 114.489 1131.42 113.925C1131.99 113.361 1132.28 112.569 1132.28 111.549V109.479C1131.96 110.055 1131.48 110.535 1130.84 110.919C1130.2 111.303 1129.46 111.495 1128.61 111.495C1127.73 111.495 1126.93 111.279 1126.21 110.847C1125.51 110.415 1124.95 109.809 1124.54 109.029C1124.13 108.249 1123.93 107.361 1123.93 106.365C1123.93 105.357 1124.13 104.475 1124.54 103.719C1124.95 102.951 1125.51 102.357 1126.21 101.937C1126.93 101.517 1127.73 101.307 1128.61 101.307ZM1132.28 106.383C1132.28 105.639 1132.13 104.991 1131.83 104.439C1131.53 103.887 1131.12 103.467 1130.61 103.179C1130.1 102.879 1129.54 102.729 1128.93 102.729C1128.32 102.729 1127.76 102.873 1127.26 103.161C1126.75 103.449 1126.35 103.869 1126.05 104.421C1125.75 104.973 1125.6 105.621 1125.6 106.365C1125.6 107.121 1125.75 107.781 1126.05 108.345C1126.35 108.897 1126.75 109.323 1127.26 109.623C1127.76 109.911 1128.32 110.055 1128.93 110.055C1129.54 110.055 1130.1 109.911 1130.61 109.623C1131.12 109.323 1131.53 108.897 1131.83 108.345C1132.13 107.781 1132.28 107.127 1132.28 106.383Z" fill="#6D6A7C"/>
<path d="M944.816 154.989C946.171 153.901 947.232 153.01 948 152.317C948.768 151.613 949.413 150.882 949.936 150.125C950.469 149.357 950.736 148.605 950.736 147.869C950.736 147.176 950.565 146.632 950.224 146.237C949.893 145.832 949.355 145.629 948.608 145.629C947.883 145.629 947.317 145.858 946.912 146.317C946.517 146.765 946.304 147.368 946.272 148.125H944.864C944.907 146.93 945.269 146.008 945.952 145.357C946.635 144.706 947.515 144.381 948.592 144.381C949.691 144.381 950.56 144.685 951.2 145.293C951.851 145.901 952.176 146.738 952.176 147.805C952.176 148.69 951.909 149.554 951.376 150.397C950.853 151.229 950.256 151.965 949.584 152.605C948.912 153.234 948.053 153.97 947.008 154.813H952.512V156.029H944.816V154.989ZM954.195 150.253C954.195 148.418 954.494 146.989 955.091 145.965C955.688 144.93 956.734 144.413 958.227 144.413C959.71 144.413 960.75 144.93 961.347 145.965C961.944 146.989 962.243 148.418 962.243 150.253C962.243 152.12 961.944 153.57 961.347 154.605C960.75 155.64 959.71 156.157 958.227 156.157C956.734 156.157 955.688 155.64 955.091 154.605C954.494 153.57 954.195 152.12 954.195 150.253ZM960.803 150.253C960.803 149.325 960.739 148.541 960.611 147.901C960.494 147.25 960.243 146.728 959.859 146.333C959.486 145.938 958.942 145.741 958.227 145.741C957.502 145.741 956.947 145.938 956.563 146.333C956.19 146.728 955.939 147.25 955.811 147.901C955.694 148.541 955.635 149.325 955.635 150.253C955.635 151.213 955.694 152.018 955.811 152.669C955.939 153.32 956.19 153.842 956.563 154.237C956.947 154.632 957.502 154.829 958.227 154.829C958.942 154.829 959.486 154.632 959.859 154.237C960.243 153.842 960.494 153.32 960.611 152.669C960.739 152.018 960.803 151.213 960.803 150.253ZM964.066 154.989C965.421 153.901 966.482 153.01 967.25 152.317C968.018 151.613 968.663 150.882 969.186 150.125C969.719 149.357 969.986 148.605 969.986 147.869C969.986 147.176 969.815 146.632 969.474 146.237C969.143 145.832 968.605 145.629 967.858 145.629C967.133 145.629 966.567 145.858 966.162 146.317C965.767 146.765 965.554 147.368 965.522 148.125H964.114C964.157 146.93 964.519 146.008 965.202 145.357C965.885 144.706 966.765 144.381 967.842 144.381C968.941 144.381 969.81 144.685 970.45 145.293C971.101 145.901 971.426 146.738 971.426 147.805C971.426 148.69 971.159 149.554 970.626 150.397C970.103 151.229 969.506 151.965 968.834 152.605C968.162 153.234 967.303 153.97 966.258 154.813H971.762V156.029H964.066V154.989ZM973.061 145.917V144.589H976.069V156.157H974.597V145.917H973.061ZM984.89 149.677V150.909H978.506V149.677H984.89ZM995.079 148.269C995.079 149.197 994.759 149.97 994.119 150.589C993.489 151.197 992.524 151.501 991.223 151.501H989.079V156.157H987.623V145.005H991.223C992.481 145.005 993.436 145.309 994.087 145.917C994.748 146.525 995.079 147.309 995.079 148.269ZM991.223 150.301C992.033 150.301 992.631 150.125 993.015 149.773C993.399 149.421 993.591 148.92 993.591 148.269C993.591 146.893 992.801 146.205 991.223 146.205H989.079V150.301H991.223ZM998.344 148.813C998.6 148.312 998.963 147.922 999.432 147.645C999.912 147.368 1000.49 147.229 1001.18 147.229V148.733H1000.79C999.16 148.733 998.344 149.618 998.344 151.389V156.157H996.888V147.389H998.344V148.813ZM1010.86 151.437C1010.86 151.714 1010.84 152.008 1010.81 152.317H1003.8C1003.85 153.181 1004.15 153.858 1004.68 154.349C1005.23 154.829 1005.88 155.069 1006.65 155.069C1007.28 155.069 1007.8 154.925 1008.22 154.637C1008.64 154.338 1008.94 153.944 1009.11 153.453H1010.68C1010.45 154.296 1009.98 154.984 1009.27 155.517C1008.57 156.04 1007.69 156.301 1006.65 156.301C1005.82 156.301 1005.07 156.114 1004.41 155.741C1003.76 155.368 1003.25 154.84 1002.87 154.157C1002.5 153.464 1002.31 152.664 1002.31 151.757C1002.31 150.85 1002.49 150.056 1002.86 149.373C1003.22 148.69 1003.73 148.168 1004.38 147.805C1005.04 147.432 1005.8 147.245 1006.65 147.245C1007.48 147.245 1008.22 147.426 1008.86 147.789C1009.5 148.152 1009.99 148.653 1010.33 149.293C1010.68 149.922 1010.86 150.637 1010.86 151.437ZM1009.35 151.133C1009.35 150.578 1009.23 150.104 1008.99 149.709C1008.74 149.304 1008.4 149 1007.98 148.797C1007.56 148.584 1007.1 148.477 1006.59 148.477C1005.85 148.477 1005.22 148.712 1004.7 149.181C1004.19 149.65 1003.89 150.301 1003.82 151.133H1009.35ZM1015.88 156.301C1015.21 156.301 1014.61 156.189 1014.07 155.965C1013.54 155.73 1013.12 155.41 1012.81 155.005C1012.5 154.589 1012.33 154.114 1012.3 153.581H1013.8C1013.85 154.018 1014.05 154.376 1014.41 154.653C1014.78 154.93 1015.27 155.069 1015.87 155.069C1016.42 155.069 1016.86 154.946 1017.18 154.701C1017.5 154.456 1017.66 154.146 1017.66 153.773C1017.66 153.389 1017.49 153.106 1017.15 152.925C1016.81 152.733 1016.28 152.546 1015.56 152.365C1014.91 152.194 1014.38 152.024 1013.96 151.853C1013.56 151.672 1013.21 151.41 1012.91 151.069C1012.62 150.717 1012.47 150.258 1012.47 149.693C1012.47 149.245 1012.61 148.834 1012.87 148.461C1013.14 148.088 1013.52 147.794 1014.01 147.581C1014.5 147.357 1015.06 147.245 1015.69 147.245C1016.66 147.245 1017.45 147.49 1018.04 147.981C1018.64 148.472 1018.96 149.144 1019 149.997H1017.55C1017.51 149.538 1017.33 149.17 1016.99 148.893C1016.66 148.616 1016.21 148.477 1015.64 148.477C1015.12 148.477 1014.7 148.589 1014.39 148.813C1014.09 149.037 1013.93 149.33 1013.93 149.693C1013.93 149.981 1014.02 150.221 1014.2 150.413C1014.39 150.594 1014.63 150.744 1014.91 150.861C1015.19 150.968 1015.59 151.09 1016.09 151.229C1016.72 151.4 1017.23 151.57 1017.63 151.741C1018.02 151.901 1018.36 152.146 1018.63 152.477C1018.92 152.808 1019.07 153.24 1019.08 153.773C1019.08 154.253 1018.95 154.685 1018.68 155.069C1018.42 155.453 1018.04 155.757 1017.55 155.981C1017.07 156.194 1016.51 156.301 1015.88 156.301ZM1029.14 151.437C1029.14 151.714 1029.12 152.008 1029.09 152.317H1022.08C1022.14 153.181 1022.43 153.858 1022.96 154.349C1023.51 154.829 1024.16 155.069 1024.93 155.069C1025.56 155.069 1026.08 154.925 1026.5 154.637C1026.92 154.338 1027.22 153.944 1027.39 153.453H1028.96C1028.73 154.296 1028.26 154.984 1027.55 155.517C1026.85 156.04 1025.98 156.301 1024.93 156.301C1024.1 156.301 1023.35 156.114 1022.69 155.741C1022.04 155.368 1021.53 154.84 1021.15 154.157C1020.78 153.464 1020.59 152.664 1020.59 151.757C1020.59 150.85 1020.78 150.056 1021.14 149.373C1021.5 148.69 1022.01 148.168 1022.66 147.805C1023.32 147.432 1024.08 147.245 1024.93 147.245C1025.76 147.245 1026.5 147.426 1027.14 147.789C1027.78 148.152 1028.27 148.653 1028.61 149.293C1028.96 149.922 1029.14 150.637 1029.14 151.437ZM1027.63 151.133C1027.63 150.578 1027.51 150.104 1027.27 149.709C1027.02 149.304 1026.68 149 1026.26 148.797C1025.84 148.584 1025.38 148.477 1024.87 148.477C1024.13 148.477 1023.5 148.712 1022.98 149.181C1022.47 149.65 1022.17 150.301 1022.1 151.133H1027.63ZM1035.33 147.229C1036.4 147.229 1037.26 147.554 1037.92 148.205C1038.59 148.845 1038.92 149.773 1038.92 150.989V156.157H1037.48V151.197C1037.48 150.322 1037.26 149.656 1036.82 149.197C1036.38 148.728 1035.79 148.493 1035.03 148.493C1034.26 148.493 1033.65 148.733 1033.19 149.213C1032.74 149.693 1032.52 150.392 1032.52 151.309V156.157H1031.06V147.389H1032.52V148.637C1032.8 148.189 1033.19 147.842 1033.68 147.597C1034.19 147.352 1034.73 147.229 1035.33 147.229ZM1043.07 148.589V153.757C1043.07 154.184 1043.16 154.488 1043.34 154.669C1043.52 154.84 1043.84 154.925 1044.29 154.925H1045.36V156.157H1044.05C1043.24 156.157 1042.63 155.97 1042.22 155.597C1041.82 155.224 1041.61 154.61 1041.61 153.757V148.589H1040.48V147.389H1041.61V145.181H1043.07V147.389H1045.36V148.589H1043.07Z" fill="#888597"/>
<path d="M930.44 144.429H927.5V143.111C927.5 143.021 927.437 142.947 927.36 142.947H926.38C926.303 142.947 926.24 143.021 926.24 143.111V144.429H921.76V143.111C921.76 143.021 921.697 142.947 921.62 142.947H920.64C920.563 142.947 920.5 143.021 920.5 143.111V144.429H917.56C917.25 144.429 917 144.723 917 145.088V158.758C917 159.123 917.25 159.417 917.56 159.417H930.44C930.75 159.417 931 159.123 931 158.758V145.088C931 144.723 930.75 144.429 930.44 144.429ZM929.74 157.935H918.26V150.111H929.74V157.935ZM918.26 148.711V145.911H920.5V146.899C920.5 146.99 920.563 147.064 920.64 147.064H921.62C921.697 147.064 921.76 146.99 921.76 146.899V145.911H926.24V146.899C926.24 146.99 926.303 147.064 926.38 147.064H927.36C927.437 147.064 927.5 146.99 927.5 146.899V145.911H929.74V148.711H918.26Z" fill="#888597"/>
<g filter="url(#filter1_d_563_16)">
<rect x="803" y="410" width="375" height="150" rx="55" fill="#F0F1F8"/>
</g>
<path d="M907.56 440.36C907.56 441.107 907.38 441.807 907.02 442.46C906.673 443.113 906.12 443.64 905.36 444.04C904.613 444.44 903.667 444.64 902.52 444.64H900.18V450H897.38V436.04H902.52C903.6 436.04 904.52 436.227 905.28 436.6C906.04 436.973 906.607 437.487 906.98 438.14C907.367 438.793 907.56 439.533 907.56 440.36ZM902.4 442.38C903.173 442.38 903.747 442.207 904.12 441.86C904.493 441.5 904.68 441 904.68 440.36C904.68 439 903.92 438.32 902.4 438.32H900.18V442.38H902.4ZM912.348 440.64C912.708 440.053 913.175 439.593 913.748 439.26C914.335 438.927 915.001 438.76 915.748 438.76V441.7H915.008C914.128 441.7 913.461 441.907 913.008 442.32C912.568 442.733 912.348 443.453 912.348 444.48V450H909.548V438.92H912.348V440.64ZM919.054 437.6C918.561 437.6 918.147 437.447 917.814 437.14C917.494 436.82 917.334 436.427 917.334 435.96C917.334 435.493 917.494 435.107 917.814 434.8C918.147 434.48 918.561 434.32 919.054 434.32C919.547 434.32 919.954 434.48 920.274 434.8C920.607 435.107 920.774 435.493 920.774 435.96C920.774 436.427 920.607 436.82 920.274 437.14C919.954 437.447 919.547 437.6 919.054 437.6ZM920.434 438.92V450H917.634V438.92H920.434ZM936.96 438.76C938.32 438.76 939.414 439.18 940.24 440.02C941.08 440.847 941.5 442.007 941.5 443.5V450H938.7V443.88C938.7 443.013 938.48 442.353 938.04 441.9C937.6 441.433 937 441.2 936.24 441.2C935.48 441.2 934.874 441.433 934.42 441.9C933.98 442.353 933.76 443.013 933.76 443.88V450H930.96V443.88C930.96 443.013 930.74 442.353 930.3 441.9C929.86 441.433 929.26 441.2 928.5 441.2C927.727 441.2 927.114 441.433 926.66 441.9C926.22 442.353 926 443.013 926 443.88V450H923.2V438.92H926V440.26C926.36 439.793 926.82 439.427 927.38 439.16C927.954 438.893 928.58 438.76 929.26 438.76C930.127 438.76 930.9 438.947 931.58 439.32C932.26 439.68 932.787 440.2 933.16 440.88C933.52 440.24 934.04 439.727 934.72 439.34C935.414 438.953 936.16 438.76 936.96 438.76ZM943.437 444.42C943.437 443.3 943.657 442.307 944.097 441.44C944.551 440.573 945.157 439.907 945.917 439.44C946.691 438.973 947.551 438.74 948.497 438.74C949.324 438.74 950.044 438.907 950.657 439.24C951.284 439.573 951.784 439.993 952.157 440.5V438.92H954.977V450H952.157V448.38C951.797 448.9 951.297 449.333 950.657 449.68C950.031 450.013 949.304 450.18 948.477 450.18C947.544 450.18 946.691 449.94 945.917 449.46C945.157 448.98 944.551 448.307 944.097 447.44C943.657 446.56 943.437 445.553 943.437 444.42ZM952.157 444.46C952.157 443.78 952.024 443.2 951.757 442.72C951.491 442.227 951.131 441.853 950.677 441.6C950.224 441.333 949.737 441.2 949.217 441.2C948.697 441.2 948.217 441.327 947.777 441.58C947.337 441.833 946.977 442.207 946.697 442.7C946.431 443.18 946.297 443.753 946.297 444.42C946.297 445.087 946.431 445.673 946.697 446.18C946.977 446.673 947.337 447.053 947.777 447.32C948.231 447.587 948.711 447.72 949.217 447.72C949.737 447.72 950.224 447.593 950.677 447.34C951.131 447.073 951.491 446.7 951.757 446.22C952.024 445.727 952.157 445.14 952.157 444.46ZM960.512 440.64C960.872 440.053 961.339 439.593 961.912 439.26C962.499 438.927 963.165 438.76 963.912 438.76V441.7H963.172C962.292 441.7 961.625 441.907 961.172 442.32C960.732 442.733 960.512 443.453 960.512 444.48V450H957.712V438.92H960.512V440.64ZM976.398 438.92L969.538 455.24H966.558L968.958 449.72L964.518 438.92H967.658L970.518 446.66L973.418 438.92H976.398ZM985.473 438.3V441.8H990.173V444.02H985.473V447.72H990.773V450H982.673V436.02H990.773V438.3H985.473ZM992.597 444.42C992.597 443.3 992.817 442.307 993.257 441.44C993.711 440.573 994.324 439.907 995.098 439.44C995.871 438.973 996.731 438.74 997.678 438.74C998.398 438.74 999.084 438.9 999.738 439.22C1000.39 439.527 1000.91 439.94 1001.3 440.46V435.2H1004.14V450H1001.3V448.36C1000.95 448.907 1000.46 449.347 999.838 449.68C999.211 450.013 998.484 450.18 997.658 450.18C996.724 450.18 995.871 449.94 995.098 449.46C994.324 448.98 993.711 448.307 993.257 447.44C992.817 446.56 992.597 445.553 992.597 444.42ZM1001.32 444.46C1001.32 443.78 1001.18 443.2 1000.92 442.72C1000.65 442.227 1000.29 441.853 999.838 441.6C999.384 441.333 998.898 441.2 998.378 441.2C997.858 441.2 997.378 441.327 996.938 441.58C996.498 441.833 996.138 442.207 995.858 442.7C995.591 443.18 995.458 443.753 995.458 444.42C995.458 445.087 995.591 445.673 995.858 446.18C996.138 446.673 996.498 447.053 996.938 447.32C997.391 447.587 997.871 447.72 998.378 447.72C998.898 447.72 999.384 447.593 999.838 447.34C1000.29 447.073 1000.65 446.7 1000.92 446.22C1001.18 445.727 1001.32 445.14 1001.32 444.46ZM1017.33 438.92V450H1014.51V448.6C1014.15 449.08 1013.68 449.46 1013.09 449.74C1012.52 450.007 1011.89 450.14 1011.21 450.14C1010.35 450.14 1009.58 449.96 1008.91 449.6C1008.25 449.227 1007.72 448.687 1007.33 447.98C1006.96 447.26 1006.77 446.407 1006.77 445.42V438.92H1009.57V445.02C1009.57 445.9 1009.79 446.58 1010.23 447.06C1010.67 447.527 1011.27 447.76 1012.03 447.76C1012.81 447.76 1013.41 447.527 1013.85 447.06C1014.29 446.58 1014.51 445.9 1014.51 445.02V438.92H1017.33ZM1019.37 444.46C1019.37 443.313 1019.61 442.313 1020.07 441.46C1020.54 440.593 1021.19 439.927 1022.01 439.46C1022.84 438.98 1023.79 438.74 1024.85 438.74C1026.23 438.74 1027.36 439.087 1028.25 439.78C1029.16 440.46 1029.77 441.42 1030.07 442.66H1027.05C1026.89 442.18 1026.62 441.807 1026.23 441.54C1025.86 441.26 1025.39 441.12 1024.83 441.12C1024.03 441.12 1023.4 441.413 1022.93 442C1022.47 442.573 1022.23 443.393 1022.23 444.46C1022.23 445.513 1022.47 446.333 1022.93 446.92C1023.4 447.493 1024.03 447.78 1024.83 447.78C1025.97 447.78 1026.71 447.273 1027.05 446.26H1030.07C1029.77 447.46 1029.16 448.413 1028.25 449.12C1027.35 449.827 1026.21 450.18 1024.85 450.18C1023.79 450.18 1022.84 449.947 1022.01 449.48C1021.19 449 1020.54 448.333 1020.07 447.48C1019.61 446.613 1019.37 445.607 1019.37 444.46ZM1031.41 444.42C1031.41 443.3 1031.63 442.307 1032.07 441.44C1032.52 440.573 1033.13 439.907 1033.89 439.44C1034.66 438.973 1035.52 438.74 1036.47 438.74C1037.29 438.74 1038.01 438.907 1038.63 439.24C1039.25 439.573 1039.75 439.993 1040.13 440.5V438.92H1042.95V450H1040.13V448.38C1039.77 448.9 1039.27 449.333 1038.63 449.68C1038 450.013 1037.27 450.18 1036.45 450.18C1035.51 450.18 1034.66 449.94 1033.89 449.46C1033.13 448.98 1032.52 448.307 1032.07 447.44C1031.63 446.56 1031.41 445.553 1031.41 444.42ZM1040.13 444.46C1040.13 443.78 1039.99 443.2 1039.73 442.72C1039.46 442.227 1039.1 441.853 1038.65 441.6C1038.19 441.333 1037.71 441.2 1037.19 441.2C1036.67 441.2 1036.19 441.327 1035.75 441.58C1035.31 441.833 1034.95 442.207 1034.67 442.7C1034.4 443.18 1034.27 443.753 1034.27 444.42C1034.27 445.087 1034.4 445.673 1034.67 446.18C1034.95 446.673 1035.31 447.053 1035.75 447.32C1036.2 447.587 1036.68 447.72 1037.19 447.72C1037.71 447.72 1038.19 447.593 1038.65 447.34C1039.1 447.073 1039.46 446.7 1039.73 446.22C1039.99 445.727 1040.13 445.14 1040.13 444.46ZM1048.94 441.22V446.58C1048.94 446.953 1049.03 447.227 1049.2 447.4C1049.39 447.56 1049.69 447.64 1050.12 447.64H1051.42V450H1049.66C1047.3 450 1046.12 448.853 1046.12 446.56V441.22H1044.8V438.92H1046.12V436.18H1048.94V438.92H1051.42V441.22H1048.94ZM1054.85 437.6C1054.36 437.6 1053.95 437.447 1053.61 437.14C1053.29 436.82 1053.13 436.427 1053.13 435.96C1053.13 435.493 1053.29 435.107 1053.61 434.8C1053.95 434.48 1054.36 434.32 1054.85 434.32C1055.35 434.32 1055.75 434.48 1056.07 434.8C1056.41 435.107 1056.57 435.493 1056.57 435.96C1056.57 436.427 1056.41 436.82 1056.07 437.14C1055.75 437.447 1055.35 437.6 1054.85 437.6ZM1056.23 438.92V450H1053.43V438.92H1056.23ZM1063.92 450.18C1062.85 450.18 1061.89 449.947 1061.04 449.48C1060.19 449 1059.51 448.327 1059.02 447.46C1058.54 446.593 1058.3 445.593 1058.3 444.46C1058.3 443.327 1058.55 442.327 1059.04 441.46C1059.55 440.593 1060.23 439.927 1061.1 439.46C1061.97 438.98 1062.93 438.74 1064 438.74C1065.07 438.74 1066.03 438.98 1066.9 439.46C1067.77 439.927 1068.45 440.593 1068.94 441.46C1069.45 442.327 1069.7 443.327 1069.7 444.46C1069.7 445.593 1069.44 446.593 1068.92 447.46C1068.41 448.327 1067.72 449 1066.84 449.48C1065.97 449.947 1065 450.18 1063.92 450.18ZM1063.92 447.74C1064.43 447.74 1064.9 447.62 1065.34 447.38C1065.79 447.127 1066.15 446.753 1066.42 446.26C1066.69 445.767 1066.82 445.167 1066.82 444.46C1066.82 443.407 1066.54 442.6 1065.98 442.04C1065.43 441.467 1064.76 441.18 1063.96 441.18C1063.16 441.18 1062.49 441.467 1061.94 442.04C1061.41 442.6 1061.14 443.407 1061.14 444.46C1061.14 445.513 1061.4 446.327 1061.92 446.9C1062.45 447.46 1063.12 447.74 1063.92 447.74ZM1077.9 438.76C1079.22 438.76 1080.28 439.18 1081.1 440.02C1081.91 440.847 1082.32 442.007 1082.32 443.5V450H1079.52V443.88C1079.52 443 1079.3 442.327 1078.86 441.86C1078.42 441.38 1077.82 441.14 1077.06 441.14C1076.28 441.14 1075.67 441.38 1075.22 441.86C1074.78 442.327 1074.56 443 1074.56 443.88V450H1071.76V438.92H1074.56V440.3C1074.93 439.82 1075.4 439.447 1075.98 439.18C1076.56 438.9 1077.2 438.76 1077.9 438.76Z" fill="black"/>
<path d="M904.364 483.126C903.536 483.126 902.792 482.982 902.132 482.694C901.484 482.394 900.974 481.986 900.602 481.47C900.23 480.942 900.038 480.336 900.026 479.652H901.772C901.832 480.24 902.072 480.738 902.492 481.146C902.924 481.542 903.548 481.74 904.364 481.74C905.144 481.74 905.756 481.548 906.2 481.164C906.656 480.768 906.884 480.264 906.884 479.652C906.884 479.172 906.752 478.782 906.488 478.482C906.224 478.182 905.894 477.954 905.498 477.798C905.102 477.642 904.568 477.474 903.896 477.294C903.068 477.078 902.402 476.862 901.898 476.646C901.406 476.43 900.98 476.094 900.62 475.638C900.272 475.17 900.098 474.546 900.098 473.766C900.098 473.082 900.272 472.476 900.62 471.948C900.968 471.42 901.454 471.012 902.078 470.724C902.714 470.436 903.44 470.292 904.256 470.292C905.432 470.292 906.392 470.586 907.136 471.174C907.892 471.762 908.318 472.542 908.414 473.514H906.614C906.554 473.034 906.302 472.614 905.858 472.254C905.414 471.882 904.826 471.696 904.094 471.696C903.41 471.696 902.852 471.876 902.42 472.236C901.988 472.584 901.772 473.076 901.772 473.712C901.772 474.168 901.898 474.54 902.15 474.828C902.414 475.116 902.732 475.338 903.104 475.494C903.488 475.638 904.022 475.806 904.706 475.998C905.534 476.226 906.2 476.454 906.704 476.682C907.208 476.898 907.64 477.24 908 477.708C908.36 478.164 908.54 478.788 908.54 479.58C908.54 480.192 908.378 480.768 908.054 481.308C907.73 481.848 907.25 482.286 906.614 482.622C905.978 482.958 905.228 483.126 904.364 483.126ZM912.949 474.486V480.3C912.949 480.78 913.051 481.122 913.255 481.326C913.459 481.518 913.813 481.614 914.317 481.614H915.523V483H914.047C913.135 483 912.451 482.79 911.995 482.37C911.539 481.95 911.311 481.26 911.311 480.3V474.486H910.033V473.136H911.311V470.652H912.949V473.136H915.523V474.486H912.949ZM918.029 483.108C917.717 483.108 917.453 483 917.237 482.784C917.021 482.568 916.913 482.304 916.913 481.992C916.913 481.68 917.021 481.416 917.237 481.2C917.453 480.984 917.717 480.876 918.029 480.876C918.329 480.876 918.581 480.984 918.785 481.2C919.001 481.416 919.109 481.68 919.109 481.992C919.109 482.304 919.001 482.568 918.785 482.784C918.581 483 918.329 483.108 918.029 483.108ZM933.501 480.21H928.029L927.021 483H925.293L929.829 470.526H931.719L936.237 483H934.509L933.501 480.21ZM933.033 478.878L930.765 472.542L928.497 478.878H933.033ZM939.852 469.68V483H938.214V469.68H939.852ZM946.946 483.162C946.022 483.162 945.182 482.952 944.426 482.532C943.682 482.112 943.094 481.518 942.662 480.75C942.242 479.97 942.032 479.07 942.032 478.05C942.032 477.042 942.248 476.154 942.68 475.386C943.124 474.606 943.724 474.012 944.48 473.604C945.236 473.184 946.082 472.974 947.018 472.974C947.954 472.974 948.8 473.184 949.556 473.604C950.312 474.012 950.906 474.6 951.338 475.368C951.782 476.136 952.004 477.03 952.004 478.05C952.004 479.07 951.776 479.97 951.32 480.75C950.876 481.518 950.27 482.112 949.502 482.532C948.734 482.952 947.882 483.162 946.946 483.162ZM946.946 481.722C947.534 481.722 948.086 481.584 948.602 481.308C949.118 481.032 949.532 480.618 949.844 480.066C950.168 479.514 950.33 478.842 950.33 478.05C950.33 477.258 950.174 476.586 949.862 476.034C949.55 475.482 949.142 475.074 948.638 474.81C948.134 474.534 947.588 474.396 947 474.396C946.4 474.396 945.848 474.534 945.344 474.81C944.852 475.074 944.456 475.482 944.156 476.034C943.856 476.586 943.706 477.258 943.706 478.05C943.706 478.854 943.85 479.532 944.138 480.084C944.438 480.636 944.834 481.05 945.326 481.326C945.818 481.59 946.358 481.722 946.946 481.722ZM962.654 473.136L956.714 487.644H955.022L956.966 482.892L952.988 473.136H954.806L957.902 481.128L960.962 473.136H962.654ZM967.792 483.162C967.036 483.162 966.358 483.036 965.758 482.784C965.158 482.52 964.684 482.16 964.336 481.704C963.988 481.236 963.796 480.702 963.76 480.102H965.452C965.5 480.594 965.728 480.996 966.136 481.308C966.556 481.62 967.102 481.776 967.774 481.776C968.398 481.776 968.89 481.638 969.25 481.362C969.61 481.086 969.79 480.738 969.79 480.318C969.79 479.886 969.598 479.568 969.214 479.364C968.83 479.148 968.236 478.938 967.432 478.734C966.7 478.542 966.1 478.35 965.632 478.158C965.176 477.954 964.78 477.66 964.444 477.276C964.12 476.88 963.958 476.364 963.958 475.728C963.958 475.224 964.108 474.762 964.408 474.342C964.708 473.922 965.134 473.592 965.686 473.352C966.238 473.1 966.868 472.974 967.576 472.974C968.668 472.974 969.55 473.25 970.222 473.802C970.894 474.354 971.254 475.11 971.302 476.07H969.664C969.628 475.554 969.418 475.14 969.034 474.828C968.662 474.516 968.158 474.36 967.522 474.36C966.934 474.36 966.466 474.486 966.118 474.738C965.77 474.99 965.596 475.32 965.596 475.728C965.596 476.052 965.698 476.322 965.902 476.538C966.118 476.742 966.382 476.91 966.694 477.042C967.018 477.162 967.462 477.3 968.026 477.456C968.734 477.648 969.31 477.84 969.754 478.032C970.198 478.212 970.576 478.488 970.888 478.86C971.212 479.232 971.38 479.718 971.392 480.318C971.392 480.858 971.242 481.344 970.942 481.776C970.642 482.208 970.216 482.55 969.664 482.802C969.124 483.042 968.5 483.162 967.792 483.162ZM974.55 471.534C974.238 471.534 973.974 471.426 973.758 471.21C973.542 470.994 973.434 470.73 973.434 470.418C973.434 470.106 973.542 469.842 973.758 469.626C973.974 469.41 974.238 469.302 974.55 469.302C974.85 469.302 975.102 469.41 975.306 469.626C975.522 469.842 975.63 470.106 975.63 470.418C975.63 470.73 975.522 470.994 975.306 471.21C975.102 471.426 974.85 471.534 974.55 471.534ZM975.342 473.136V483H973.704V473.136H975.342ZM986.882 473.136V483H985.244V481.542C984.932 482.046 984.494 482.442 983.93 482.73C983.378 483.006 982.766 483.144 982.094 483.144C981.326 483.144 980.636 482.988 980.024 482.676C979.412 482.352 978.926 481.872 978.566 481.236C978.218 480.6 978.044 479.826 978.044 478.914V473.136H979.664V478.698C979.664 479.67 979.91 480.42 980.402 480.948C980.894 481.464 981.566 481.722 982.418 481.722C983.294 481.722 983.984 481.452 984.488 480.912C984.992 480.372 985.244 479.586 985.244 478.554V473.136H986.882ZM993.14 483.162C992.384 483.162 991.706 483.036 991.106 482.784C990.506 482.52 990.032 482.16 989.684 481.704C989.336 481.236 989.144 480.702 989.108 480.102H990.8C990.848 480.594 991.076 480.996 991.484 481.308C991.904 481.62 992.45 481.776 993.122 481.776C993.746 481.776 994.238 481.638 994.598 481.362C994.958 481.086 995.138 480.738 995.138 480.318C995.138 479.886 994.946 479.568 994.562 479.364C994.178 479.148 993.584 478.938 992.78 478.734C992.048 478.542 991.448 478.35 990.98 478.158C990.524 477.954 990.128 477.66 989.792 477.276C989.468 476.88 989.306 476.364 989.306 475.728C989.306 475.224 989.456 474.762 989.756 474.342C990.056 473.922 990.482 473.592 991.034 473.352C991.586 473.1 992.216 472.974 992.924 472.974C994.016 472.974 994.898 473.25 995.57 473.802C996.242 474.354 996.602 475.11 996.65 476.07H995.012C994.976 475.554 994.766 475.14 994.382 474.828C994.01 474.516 993.506 474.36 992.87 474.36C992.282 474.36 991.814 474.486 991.466 474.738C991.118 474.99 990.944 475.32 990.944 475.728C990.944 476.052 991.046 476.322 991.25 476.538C991.466 476.742 991.73 476.91 992.042 477.042C992.366 477.162 992.81 477.3 993.374 477.456C994.082 477.648 994.658 477.84 995.102 478.032C995.546 478.212 995.924 478.488 996.236 478.86C996.56 479.232 996.728 479.718 996.74 480.318C996.74 480.858 996.59 481.344 996.29 481.776C995.99 482.208 995.564 482.55 995.012 482.802C994.472 483.042 993.848 483.162 993.14 483.162ZM999.304 470.454H1001.12L999.394 474.54H998.242L999.304 470.454ZM1007.18 476.718C1007.18 475.494 1007.45 474.396 1008 473.424C1008.56 472.44 1009.31 471.672 1010.25 471.12C1011.21 470.568 1012.28 470.292 1013.44 470.292C1014.81 470.292 1016 470.622 1017.02 471.282C1018.04 471.942 1018.79 472.878 1019.25 474.09H1017.29C1016.94 473.334 1016.44 472.752 1015.78 472.344C1015.13 471.936 1014.35 471.732 1013.44 471.732C1012.56 471.732 1011.78 471.936 1011.08 472.344C1010.39 472.752 1009.84 473.334 1009.44 474.09C1009.05 474.834 1008.85 475.71 1008.85 476.718C1008.85 477.714 1009.05 478.59 1009.44 479.346C1009.84 480.09 1010.39 480.666 1011.08 481.074C1011.78 481.482 1012.56 481.686 1013.44 481.686C1014.35 481.686 1015.13 481.488 1015.78 481.092C1016.44 480.684 1016.94 480.102 1017.29 479.346H1019.25C1018.79 480.546 1018.04 481.476 1017.02 482.136C1016 482.784 1014.81 483.108 1013.44 483.108C1012.28 483.108 1011.21 482.838 1010.25 482.298C1009.31 481.746 1008.56 480.984 1008 480.012C1007.45 479.04 1007.18 477.942 1007.18 476.718ZM1025.99 483.162C1025.07 483.162 1024.23 482.952 1023.47 482.532C1022.73 482.112 1022.14 481.518 1021.71 480.75C1021.29 479.97 1021.08 479.07 1021.08 478.05C1021.08 477.042 1021.3 476.154 1021.73 475.386C1022.17 474.606 1022.77 474.012 1023.53 473.604C1024.28 473.184 1025.13 472.974 1026.07 472.974C1027 472.974 1027.85 473.184 1028.6 473.604C1029.36 474.012 1029.95 474.6 1030.39 475.368C1030.83 476.136 1031.05 477.03 1031.05 478.05C1031.05 479.07 1030.82 479.97 1030.37 480.75C1029.92 481.518 1029.32 482.112 1028.55 482.532C1027.78 482.952 1026.93 483.162 1025.99 483.162ZM1025.99 481.722C1026.58 481.722 1027.13 481.584 1027.65 481.308C1028.17 481.032 1028.58 480.618 1028.89 480.066C1029.22 479.514 1029.38 478.842 1029.38 478.05C1029.38 477.258 1029.22 476.586 1028.91 476.034C1028.6 475.482 1028.19 475.074 1027.69 474.81C1027.18 474.534 1026.64 474.396 1026.05 474.396C1025.45 474.396 1024.9 474.534 1024.39 474.81C1023.9 475.074 1023.5 475.482 1023.2 476.034C1022.9 476.586 1022.75 477.258 1022.75 478.05C1022.75 478.854 1022.9 479.532 1023.19 480.084C1023.49 480.636 1023.88 481.05 1024.37 481.326C1024.87 481.59 1025.41 481.722 1025.99 481.722ZM1034.84 469.68V483H1033.21V469.68H1034.84ZM1039.27 469.68V483H1037.64V469.68H1039.27ZM1051.07 477.69C1051.07 478.002 1051.05 478.332 1051.01 478.68H1043.13C1043.19 479.652 1043.52 480.414 1044.12 480.966C1044.73 481.506 1045.47 481.776 1046.33 481.776C1047.04 481.776 1047.63 481.614 1048.1 481.29C1048.58 480.954 1048.91 480.51 1049.1 479.958H1050.87C1050.6 480.906 1050.08 481.68 1049.28 482.28C1048.49 482.868 1047.51 483.162 1046.33 483.162C1045.4 483.162 1044.56 482.952 1043.81 482.532C1043.08 482.112 1042.5 481.518 1042.08 480.75C1041.66 479.97 1041.45 479.07 1041.45 478.05C1041.45 477.03 1041.66 476.136 1042.07 475.368C1042.47 474.6 1043.04 474.012 1043.78 473.604C1044.52 473.184 1045.37 472.974 1046.33 472.974C1047.27 472.974 1048.1 473.178 1048.82 473.586C1049.54 473.994 1050.09 474.558 1050.47 475.278C1050.87 475.986 1051.07 476.79 1051.07 477.69ZM1049.37 477.348C1049.37 476.724 1049.24 476.19 1048.96 475.746C1048.68 475.29 1048.31 474.948 1047.83 474.72C1047.36 474.48 1046.84 474.36 1046.26 474.36C1045.43 474.36 1044.72 474.624 1044.14 475.152C1043.56 475.68 1043.23 476.412 1043.15 477.348H1049.37ZM1057.3 472.974C1058.15 472.974 1058.89 473.16 1059.53 473.532C1060.18 473.904 1060.66 474.372 1060.97 474.936V473.136H1062.62V483.216C1062.62 484.116 1062.43 484.914 1062.05 485.61C1061.66 486.318 1061.11 486.87 1060.39 487.266C1059.68 487.662 1058.86 487.86 1057.91 487.86C1056.61 487.86 1055.53 487.554 1054.67 486.942C1053.8 486.33 1053.29 485.496 1053.14 484.44H1054.76C1054.94 485.04 1055.31 485.52 1055.87 485.88C1056.44 486.252 1057.12 486.438 1057.91 486.438C1058.81 486.438 1059.54 486.156 1060.1 485.592C1060.68 485.028 1060.97 484.236 1060.97 483.216V481.146C1060.64 481.722 1060.16 482.202 1059.53 482.586C1058.89 482.97 1058.15 483.162 1057.3 483.162C1056.42 483.162 1055.62 482.946 1054.9 482.514C1054.19 482.082 1053.64 481.476 1053.23 480.696C1052.82 479.916 1052.62 479.028 1052.62 478.032C1052.62 477.024 1052.82 476.142 1053.23 475.386C1053.64 474.618 1054.19 474.024 1054.9 473.604C1055.62 473.184 1056.42 472.974 1057.3 472.974ZM1060.97 478.05C1060.97 477.306 1060.82 476.658 1060.52 476.106C1060.22 475.554 1059.81 475.134 1059.29 474.846C1058.79 474.546 1058.23 474.396 1057.62 474.396C1057.01 474.396 1056.45 474.54 1055.95 474.828C1055.44 475.116 1055.04 475.536 1054.74 476.088C1054.44 476.64 1054.29 477.288 1054.29 478.032C1054.29 478.788 1054.44 479.448 1054.74 480.012C1055.04 480.564 1055.44 480.99 1055.95 481.29C1056.45 481.578 1057.01 481.722 1057.62 481.722C1058.23 481.722 1058.79 481.578 1059.29 481.29C1059.81 480.99 1060.22 480.564 1060.52 480.012C1060.82 479.448 1060.97 478.794 1060.97 478.05ZM1074.39 477.69C1074.39 478.002 1074.37 478.332 1074.34 478.68H1066.45C1066.51 479.652 1066.84 480.414 1067.44 480.966C1068.06 481.506 1068.79 481.776 1069.66 481.776C1070.37 481.776 1070.95 481.614 1071.42 481.29C1071.9 480.954 1072.24 480.51 1072.43 479.958H1074.19C1073.93 480.906 1073.4 481.68 1072.61 482.28C1071.82 482.868 1070.83 483.162 1069.66 483.162C1068.72 483.162 1067.88 482.952 1067.14 482.532C1066.41 482.112 1065.83 481.518 1065.41 480.75C1064.99 479.97 1064.78 479.07 1064.78 478.05C1064.78 477.03 1064.98 476.136 1065.39 475.368C1065.8 474.6 1066.37 474.012 1067.1 473.604C1067.85 473.184 1068.7 472.974 1069.66 472.974C1070.59 472.974 1071.42 473.178 1072.14 473.586C1072.86 473.994 1073.41 474.558 1073.8 475.278C1074.19 475.986 1074.39 476.79 1074.39 477.69ZM1072.7 477.348C1072.7 476.724 1072.56 476.19 1072.29 475.746C1072.01 475.29 1071.63 474.948 1071.15 474.72C1070.68 474.48 1070.16 474.36 1069.59 474.36C1068.76 474.36 1068.05 474.624 1067.46 475.152C1066.89 475.68 1066.56 476.412 1066.47 477.348H1072.7Z" fill="#6D6A7C"/>
<path d="M963.816 525.832C965.171 524.744 966.232 523.853 967 523.16C967.768 522.456 968.413 521.725 968.936 520.968C969.469 520.2 969.736 519.448 969.736 518.712C969.736 518.019 969.565 517.475 969.224 517.08C968.893 516.675 968.355 516.472 967.608 516.472C966.883 516.472 966.317 516.701 965.912 517.16C965.517 517.608 965.304 518.211 965.272 518.968H963.864C963.907 517.773 964.269 516.851 964.952 516.2C965.635 515.549 966.515 515.224 967.592 515.224C968.691 515.224 969.56 515.528 970.2 516.136C970.851 516.744 971.176 517.581 971.176 518.648C971.176 519.533 970.909 520.397 970.376 521.24C969.853 522.072 969.256 522.808 968.584 523.448C967.912 524.077 967.053 524.813 966.008 525.656H971.512V526.872H963.816V525.832ZM973.195 521.096C973.195 519.261 973.494 517.832 974.091 516.808C974.688 515.773 975.734 515.256 977.227 515.256C978.71 515.256 979.75 515.773 980.347 516.808C980.944 517.832 981.243 519.261 981.243 521.096C981.243 522.963 980.944 524.413 980.347 525.448C979.75 526.483 978.71 527 977.227 527C975.734 527 974.688 526.483 974.091 525.448C973.494 524.413 973.195 522.963 973.195 521.096ZM979.803 521.096C979.803 520.168 979.739 519.384 979.611 518.744C979.494 518.093 979.243 517.571 978.859 517.176C978.486 516.781 977.942 516.584 977.227 516.584C976.502 516.584 975.947 516.781 975.563 517.176C975.19 517.571 974.939 518.093 974.811 518.744C974.694 519.384 974.635 520.168 974.635 521.096C974.635 522.056 974.694 522.861 974.811 523.512C974.939 524.163 975.19 524.685 975.563 525.08C975.947 525.475 976.502 525.672 977.227 525.672C977.942 525.672 978.486 525.475 978.859 525.08C979.243 524.685 979.494 524.163 979.611 523.512C979.739 522.861 979.803 522.056 979.803 521.096ZM983.242 521.096C983.242 519.261 983.541 517.832 984.138 516.808C984.735 515.773 985.781 515.256 987.274 515.256C988.757 515.256 989.797 515.773 990.394 516.808C990.991 517.832 991.29 519.261 991.29 521.096C991.29 522.963 990.991 524.413 990.394 525.448C989.797 526.483 988.757 527 987.274 527C985.781 527 984.735 526.483 984.138 525.448C983.541 524.413 983.242 522.963 983.242 521.096ZM989.85 521.096C989.85 520.168 989.786 519.384 989.658 518.744C989.541 518.093 989.29 517.571 988.906 517.176C988.533 516.781 987.989 516.584 987.274 516.584C986.549 516.584 985.994 516.781 985.61 517.176C985.237 517.571 984.986 518.093 984.858 518.744C984.741 519.384 984.682 520.168 984.682 521.096C984.682 522.056 984.741 522.861 984.858 523.512C984.986 524.163 985.237 524.685 985.61 525.08C985.994 525.475 986.549 525.672 987.274 525.672C987.989 525.672 988.533 525.475 988.906 525.08C989.29 524.685 989.541 524.163 989.658 523.512C989.786 522.861 989.85 522.056 989.85 521.096ZM1000.41 516.568L995.961 527H994.489L999.001 516.712H992.825V515.464H1000.41V516.568ZM1008.34 520.52V521.752H1001.96V520.52H1008.34ZM1010.66 525.832C1012.01 524.744 1013.08 523.853 1013.84 523.16C1014.61 522.456 1015.26 521.725 1015.78 520.968C1016.31 520.2 1016.58 519.448 1016.58 518.712C1016.58 518.019 1016.41 517.475 1016.07 517.08C1015.74 516.675 1015.2 516.472 1014.45 516.472C1013.73 516.472 1013.16 516.701 1012.76 517.16C1012.36 517.608 1012.15 518.211 1012.12 518.968H1010.71C1010.75 517.773 1011.11 516.851 1011.8 516.2C1012.48 515.549 1013.36 515.224 1014.44 515.224C1015.53 515.224 1016.4 515.528 1017.04 516.136C1017.69 516.744 1018.02 517.581 1018.02 518.648C1018.02 519.533 1017.75 520.397 1017.22 521.24C1016.7 522.072 1016.1 522.808 1015.43 523.448C1014.76 524.077 1013.9 524.813 1012.85 525.656H1018.36V526.872H1010.66V525.832ZM1020.04 521.096C1020.04 519.261 1020.34 517.832 1020.93 516.808C1021.53 515.773 1022.58 515.256 1024.07 515.256C1025.55 515.256 1026.59 515.773 1027.19 516.808C1027.79 517.832 1028.09 519.261 1028.09 521.096C1028.09 522.963 1027.79 524.413 1027.19 525.448C1026.59 526.483 1025.55 527 1024.07 527C1022.58 527 1021.53 526.483 1020.93 525.448C1020.34 524.413 1020.04 522.963 1020.04 521.096ZM1026.65 521.096C1026.65 520.168 1026.58 519.384 1026.45 518.744C1026.34 518.093 1026.09 517.571 1025.7 517.176C1025.33 516.781 1024.79 516.584 1024.07 516.584C1023.35 516.584 1022.79 516.781 1022.41 517.176C1022.03 517.571 1021.78 518.093 1021.65 518.744C1021.54 519.384 1021.48 520.168 1021.48 521.096C1021.48 522.056 1021.54 522.861 1021.65 523.512C1021.78 524.163 1022.03 524.685 1022.41 525.08C1022.79 525.475 1023.35 525.672 1024.07 525.672C1024.79 525.672 1025.33 525.475 1025.7 525.08C1026.09 524.685 1026.34 524.163 1026.45 523.512C1026.58 522.861 1026.65 522.056 1026.65 521.096ZM1029.7 516.76V515.432H1032.71V527H1031.24V516.76H1029.7ZM1034.83 516.76V515.432H1037.83V527H1036.36V516.76H1034.83Z" fill="#888597"/>
<path d="M949.44 515.44H946.5V514.16C946.5 514.072 946.437 514 946.36 514H945.38C945.303 514 945.24 514.072 945.24 514.16V515.44H940.76V514.16C940.76 514.072 940.697 514 940.62 514H939.64C939.563 514 939.5 514.072 939.5 514.16V515.44H936.56C936.25 515.44 936 515.726 936 516.08V529.36C936 529.714 936.25 530 936.56 530H949.44C949.75 530 950 529.714 950 529.36V516.08C950 515.726 949.75 515.44 949.44 515.44ZM948.74 528.56H937.26V520.96H948.74V528.56ZM937.26 519.6V516.88H939.5V517.84C939.5 517.928 939.563 518 939.64 518H940.62C940.697 518 940.76 517.928 940.76 517.84V516.88H945.24V517.84C945.24 517.928 945.303 518 945.38 518H946.36C946.437 518 946.5 517.928 946.5 517.84V516.88H948.74V519.6H937.26Z" fill="#888597"/>
<g filter="url(#filter2_d_563_16)">
<rect x="22" y="210" width="375" height="150" rx="55" fill="#F0F1F8"/>
</g>
<path d="M105.2 252.14C104.227 252.14 103.347 251.973 102.56 251.64C101.787 251.307 101.173 250.827 100.72 250.2C100.267 249.573 100.033 248.833 100.02 247.98H103.02C103.06 248.553 103.26 249.007 103.62 249.34C103.993 249.673 104.5 249.84 105.14 249.84C105.793 249.84 106.307 249.687 106.68 249.38C107.053 249.06 107.24 248.647 107.24 248.14C107.24 247.727 107.113 247.387 106.86 247.12C106.607 246.853 106.287 246.647 105.9 246.5C105.527 246.34 105.007 246.167 104.34 245.98C103.433 245.713 102.693 245.453 102.12 245.2C101.56 244.933 101.073 244.54 100.66 244.02C100.26 243.487 100.06 242.78 100.06 241.9C100.06 241.073 100.267 240.353 100.68 239.74C101.093 239.127 101.673 238.66 102.42 238.34C103.167 238.007 104.02 237.84 104.98 237.84C106.42 237.84 107.587 238.193 108.48 238.9C109.387 239.593 109.887 240.567 109.98 241.82H106.9C106.873 241.34 106.667 240.947 106.28 240.64C105.907 240.32 105.407 240.16 104.78 240.16C104.233 240.16 103.793 240.3 103.46 240.58C103.14 240.86 102.98 241.267 102.98 241.8C102.98 242.173 103.1 242.487 103.34 242.74C103.593 242.98 103.9 243.18 104.26 243.34C104.633 243.487 105.153 243.66 105.82 243.86C106.727 244.127 107.467 244.393 108.04 244.66C108.613 244.927 109.107 245.327 109.52 245.86C109.933 246.393 110.14 247.093 110.14 247.96C110.14 248.707 109.947 249.4 109.56 250.04C109.173 250.68 108.607 251.193 107.86 251.58C107.113 251.953 106.227 252.14 105.2 252.14ZM122.868 246.22C122.868 246.62 122.841 246.98 122.788 247.3H114.688C114.754 248.1 115.034 248.727 115.528 249.18C116.021 249.633 116.628 249.86 117.348 249.86C118.388 249.86 119.128 249.413 119.568 248.52H122.588C122.268 249.587 121.654 250.467 120.748 251.16C119.841 251.84 118.728 252.18 117.408 252.18C116.341 252.18 115.381 251.947 114.528 251.48C113.688 251 113.028 250.327 112.548 249.46C112.081 248.593 111.847 247.593 111.847 246.46C111.847 245.313 112.081 244.307 112.548 243.44C113.014 242.573 113.668 241.907 114.508 241.44C115.348 240.973 116.314 240.74 117.408 240.74C118.461 240.74 119.401 240.967 120.228 241.42C121.068 241.873 121.714 242.52 122.168 243.36C122.634 244.187 122.868 245.14 122.868 246.22ZM119.968 245.42C119.954 244.7 119.694 244.127 119.188 243.7C118.681 243.26 118.061 243.04 117.328 243.04C116.634 243.04 116.048 243.253 115.568 243.68C115.101 244.093 114.814 244.673 114.708 245.42H119.968ZM124.191 246.46C124.191 245.313 124.425 244.313 124.891 243.46C125.358 242.593 126.005 241.927 126.831 241.46C127.658 240.98 128.605 240.74 129.671 240.74C131.045 240.74 132.178 241.087 133.071 241.78C133.978 242.46 134.585 243.42 134.891 244.66H131.871C131.711 244.18 131.438 243.807 131.051 243.54C130.678 243.26 130.211 243.12 129.651 243.12C128.851 243.12 128.218 243.413 127.751 244C127.285 244.573 127.051 245.393 127.051 246.46C127.051 247.513 127.285 248.333 127.751 248.92C128.218 249.493 128.851 249.78 129.651 249.78C130.785 249.78 131.525 249.273 131.871 248.26H134.891C134.585 249.46 133.978 250.413 133.071 251.12C132.165 251.827 131.031 252.18 129.671 252.18C128.605 252.18 127.658 251.947 126.831 251.48C126.005 251 125.358 250.333 124.891 249.48C124.425 248.613 124.191 247.607 124.191 246.46ZM141.863 252.18C140.796 252.18 139.836 251.947 138.983 251.48C138.129 251 137.456 250.327 136.963 249.46C136.483 248.593 136.243 247.593 136.243 246.46C136.243 245.327 136.489 244.327 136.983 243.46C137.489 242.593 138.176 241.927 139.043 241.46C139.909 240.98 140.876 240.74 141.943 240.74C143.009 240.74 143.976 240.98 144.843 241.46C145.709 241.927 146.389 242.593 146.883 243.46C147.389 244.327 147.643 245.327 147.643 246.46C147.643 247.593 147.383 248.593 146.862 249.46C146.356 250.327 145.663 251 144.783 251.48C143.916 251.947 142.943 252.18 141.863 252.18ZM141.863 249.74C142.369 249.74 142.843 249.62 143.283 249.38C143.736 249.127 144.096 248.753 144.363 248.26C144.629 247.767 144.763 247.167 144.763 246.46C144.763 245.407 144.483 244.6 143.923 244.04C143.376 243.467 142.703 243.18 141.903 243.18C141.103 243.18 140.429 243.467 139.883 244.04C139.349 244.6 139.083 245.407 139.083 246.46C139.083 247.513 139.343 248.327 139.863 248.9C140.396 249.46 141.063 249.74 141.863 249.74ZM155.836 240.76C157.156 240.76 158.223 241.18 159.036 242.02C159.85 242.847 160.256 244.007 160.256 245.5V252H157.456V245.88C157.456 245 157.236 244.327 156.796 243.86C156.356 243.38 155.756 243.14 154.996 243.14C154.223 243.14 153.61 243.38 153.156 243.86C152.716 244.327 152.496 245 152.496 245.88V252H149.696V240.92H152.496V242.3C152.87 241.82 153.343 241.447 153.916 241.18C154.503 240.9 155.143 240.76 155.836 240.76ZM162.199 246.42C162.199 245.3 162.419 244.307 162.859 243.44C163.312 242.573 163.926 241.907 164.699 241.44C165.472 240.973 166.332 240.74 167.279 240.74C167.999 240.74 168.686 240.9 169.339 241.22C169.992 241.527 170.512 241.94 170.899 242.46V237.2H173.739V252H170.899V250.36C170.552 250.907 170.066 251.347 169.439 251.68C168.812 252.013 168.086 252.18 167.259 252.18C166.326 252.18 165.472 251.94 164.699 251.46C163.926 250.98 163.312 250.307 162.859 249.44C162.419 248.56 162.199 247.553 162.199 246.42ZM170.919 246.46C170.919 245.78 170.786 245.2 170.519 244.72C170.252 244.227 169.892 243.853 169.439 243.6C168.986 243.333 168.499 243.2 167.979 243.2C167.459 243.2 166.979 243.327 166.539 243.58C166.099 243.833 165.739 244.207 165.459 244.7C165.192 245.18 165.059 245.753 165.059 246.42C165.059 247.087 165.192 247.673 165.459 248.18C165.739 248.673 166.099 249.053 166.539 249.32C166.992 249.587 167.472 249.72 167.979 249.72C168.499 249.72 168.986 249.593 169.439 249.34C169.892 249.073 170.252 248.7 170.519 248.22C170.786 247.727 170.919 247.14 170.919 246.46ZM175.754 246.42C175.754 245.3 175.974 244.307 176.414 243.44C176.867 242.573 177.474 241.907 178.234 241.44C179.007 240.973 179.867 240.74 180.814 240.74C181.64 240.74 182.36 240.907 182.974 241.24C183.6 241.573 184.1 241.993 184.474 242.5V240.92H187.294V252H184.474V250.38C184.114 250.9 183.614 251.333 182.974 251.68C182.347 252.013 181.62 252.18 180.794 252.18C179.86 252.18 179.007 251.94 178.234 251.46C177.474 250.98 176.867 250.307 176.414 249.44C175.974 248.56 175.754 247.553 175.754 246.42ZM184.474 246.46C184.474 245.78 184.34 245.2 184.074 244.72C183.807 244.227 183.447 243.853 182.994 243.6C182.54 243.333 182.054 243.2 181.534 243.2C181.014 243.2 180.534 243.327 180.094 243.58C179.654 243.833 179.294 244.207 179.014 244.7C178.747 245.18 178.614 245.753 178.614 246.42C178.614 247.087 178.747 247.673 179.014 248.18C179.294 248.673 179.654 249.053 180.094 249.32C180.547 249.587 181.027 249.72 181.534 249.72C182.054 249.72 182.54 249.593 182.994 249.34C183.447 249.073 183.807 248.7 184.074 248.22C184.34 247.727 184.474 247.14 184.474 246.46ZM192.828 242.64C193.188 242.053 193.655 241.593 194.228 241.26C194.815 240.927 195.482 240.76 196.228 240.76V243.7H195.488C194.608 243.7 193.942 243.907 193.488 244.32C193.048 244.733 192.828 245.453 192.828 246.48V252H190.028V240.92H192.828V242.64ZM208.714 240.92L201.854 257.24H198.874L201.274 251.72L196.834 240.92H199.974L202.834 248.66L205.734 240.92H208.714ZM217.789 240.3V243.8H222.489V246.02H217.789V249.72H223.089V252H214.989V238.02H223.089V240.3H217.789ZM224.914 246.42C224.914 245.3 225.134 244.307 225.574 243.44C226.027 242.573 226.641 241.907 227.414 241.44C228.187 240.973 229.047 240.74 229.994 240.74C230.714 240.74 231.401 240.9 232.054 241.22C232.707 241.527 233.227 241.94 233.614 242.46V237.2H236.454V252H233.614V250.36C233.267 250.907 232.781 251.347 232.154 251.68C231.527 252.013 230.801 252.18 229.974 252.18C229.041 252.18 228.187 251.94 227.414 251.46C226.641 250.98 226.027 250.307 225.574 249.44C225.134 248.56 224.914 247.553 224.914 246.42ZM233.634 246.46C233.634 245.78 233.501 245.2 233.234 244.72C232.967 244.227 232.607 243.853 232.154 243.6C231.701 243.333 231.214 243.2 230.694 243.2C230.174 243.2 229.694 243.327 229.254 243.58C228.814 243.833 228.454 244.207 228.174 244.7C227.907 245.18 227.774 245.753 227.774 246.42C227.774 247.087 227.907 247.673 228.174 248.18C228.454 248.673 228.814 249.053 229.254 249.32C229.707 249.587 230.187 249.72 230.694 249.72C231.214 249.72 231.701 249.593 232.154 249.34C232.607 249.073 232.967 248.7 233.234 248.22C233.501 247.727 233.634 247.14 233.634 246.46ZM249.649 240.92V252H246.829V250.6C246.469 251.08 245.995 251.46 245.409 251.74C244.835 252.007 244.209 252.14 243.529 252.14C242.662 252.14 241.895 251.96 241.229 251.6C240.562 251.227 240.035 250.687 239.649 249.98C239.275 249.26 239.089 248.407 239.089 247.42V240.92H241.889V247.02C241.889 247.9 242.109 248.58 242.549 249.06C242.989 249.527 243.589 249.76 244.349 249.76C245.122 249.76 245.729 249.527 246.169 249.06C246.609 248.58 246.829 247.9 246.829 247.02V240.92H249.649ZM251.691 246.46C251.691 245.313 251.925 244.313 252.391 243.46C252.858 242.593 253.505 241.927 254.331 241.46C255.158 240.98 256.105 240.74 257.171 240.74C258.545 240.74 259.678 241.087 260.571 241.78C261.478 242.46 262.085 243.42 262.391 244.66H259.371C259.211 244.18 258.938 243.807 258.551 243.54C258.178 243.26 257.711 243.12 257.151 243.12C256.351 243.12 255.718 243.413 255.251 244C254.785 244.573 254.551 245.393 254.551 246.46C254.551 247.513 254.785 248.333 255.251 248.92C255.718 249.493 256.351 249.78 257.151 249.78C258.285 249.78 259.025 249.273 259.371 248.26H262.391C262.085 249.46 261.478 250.413 260.571 251.12C259.665 251.827 258.531 252.18 257.171 252.18C256.105 252.18 255.158 251.947 254.331 251.48C253.505 251 252.858 250.333 252.391 249.48C251.925 248.613 251.691 247.607 251.691 246.46ZM263.722 246.42C263.722 245.3 263.942 244.307 264.382 243.44C264.836 242.573 265.443 241.907 266.203 241.44C266.976 240.973 267.836 240.74 268.783 240.74C269.609 240.74 270.329 240.907 270.943 241.24C271.569 241.573 272.069 241.993 272.443 242.5V240.92H275.263V252H272.443V250.38C272.083 250.9 271.583 251.333 270.943 251.68C270.316 252.013 269.589 252.18 268.763 252.18C267.829 252.18 266.976 251.94 266.203 251.46C265.443 250.98 264.836 250.307 264.382 249.44C263.942 248.56 263.722 247.553 263.722 246.42ZM272.443 246.46C272.443 245.78 272.309 245.2 272.043 244.72C271.776 244.227 271.416 243.853 270.963 243.6C270.509 243.333 270.023 243.2 269.503 243.2C268.983 243.2 268.503 243.327 268.062 243.58C267.623 243.833 267.263 244.207 266.983 244.7C266.716 245.18 266.583 245.753 266.583 246.42C266.583 247.087 266.716 247.673 266.983 248.18C267.263 248.673 267.623 249.053 268.062 249.32C268.516 249.587 268.996 249.72 269.503 249.72C270.023 249.72 270.509 249.593 270.963 249.34C271.416 249.073 271.776 248.7 272.043 248.22C272.309 247.727 272.443 247.14 272.443 246.46ZM281.257 243.22V248.58C281.257 248.953 281.344 249.227 281.517 249.4C281.704 249.56 282.011 249.64 282.437 249.64H283.737V252H281.977C279.617 252 278.437 250.853 278.437 248.56V243.22H277.117V240.92H278.437V238.18H281.257V240.92H283.737V243.22H281.257ZM287.171 239.6C286.678 239.6 286.264 239.447 285.931 239.14C285.611 238.82 285.451 238.427 285.451 237.96C285.451 237.493 285.611 237.107 285.931 236.8C286.264 236.48 286.678 236.32 287.171 236.32C287.664 236.32 288.071 236.48 288.391 236.8C288.724 237.107 288.891 237.493 288.891 237.96C288.891 238.427 288.724 238.82 288.391 239.14C288.071 239.447 287.664 239.6 287.171 239.6ZM288.551 240.92V252H285.751V240.92H288.551ZM296.238 252.18C295.171 252.18 294.211 251.947 293.358 251.48C292.504 251 291.831 250.327 291.338 249.46C290.858 248.593 290.618 247.593 290.618 246.46C290.618 245.327 290.864 244.327 291.358 243.46C291.864 242.593 292.551 241.927 293.418 241.46C294.284 240.98 295.251 240.74 296.318 240.74C297.384 240.74 298.351 240.98 299.218 241.46C300.084 241.927 300.764 242.593 301.258 243.46C301.764 244.327 302.018 245.327 302.018 246.46C302.018 247.593 301.758 248.593 301.237 249.46C300.731 250.327 300.038 251 299.158 251.48C298.291 251.947 297.318 252.18 296.238 252.18ZM296.238 249.74C296.744 249.74 297.218 249.62 297.658 249.38C298.111 249.127 298.471 248.753 298.738 248.26C299.004 247.767 299.138 247.167 299.138 246.46C299.138 245.407 298.858 244.6 298.298 244.04C297.751 243.467 297.078 243.18 296.278 243.18C295.478 243.18 294.804 243.467 294.258 244.04C293.724 244.6 293.458 245.407 293.458 246.46C293.458 247.513 293.718 248.327 294.238 248.9C294.771 249.46 295.438 249.74 296.238 249.74ZM310.211 240.76C311.531 240.76 312.598 241.18 313.411 242.02C314.225 242.847 314.631 244.007 314.631 245.5V252H311.831V245.88C311.831 245 311.611 244.327 311.171 243.86C310.731 243.38 310.131 243.14 309.371 243.14C308.598 243.14 307.985 243.38 307.531 243.86C307.091 244.327 306.871 245 306.871 245.88V252H304.071V240.92H306.871V242.3C307.245 241.82 307.718 241.447 308.291 241.18C308.878 240.9 309.518 240.76 310.211 240.76Z" fill="black"/>
<path d="M142.112 273.544V286H140.474V276.712L136.334 286H135.182L131.024 276.694V286H129.386V273.544H131.15L135.758 283.84L140.366 273.544H142.112ZM144.278 281.032C144.278 280.024 144.482 279.142 144.89 278.386C145.298 277.618 145.856 277.024 146.564 276.604C147.284 276.184 148.082 275.974 148.958 275.974C149.822 275.974 150.572 276.16 151.208 276.532C151.844 276.904 152.318 277.372 152.63 277.936V276.136H154.286V286H152.63V284.164C152.306 284.74 151.82 285.22 151.172 285.604C150.536 285.976 149.792 286.162 148.94 286.162C148.064 286.162 147.272 285.946 146.564 285.514C145.856 285.082 145.298 284.476 144.89 283.696C144.482 282.916 144.278 282.028 144.278 281.032ZM152.63 281.05C152.63 280.306 152.48 279.658 152.18 279.106C151.88 278.554 151.472 278.134 150.956 277.846C150.452 277.546 149.894 277.396 149.282 277.396C148.67 277.396 148.112 277.54 147.608 277.828C147.104 278.116 146.702 278.536 146.402 279.088C146.102 279.64 145.952 280.288 145.952 281.032C145.952 281.788 146.102 282.448 146.402 283.012C146.702 283.564 147.104 283.99 147.608 284.29C148.112 284.578 148.67 284.722 149.282 284.722C149.894 284.722 150.452 284.578 150.956 284.29C151.472 283.99 151.88 283.564 152.18 283.012C152.48 282.448 152.63 281.794 152.63 281.05ZM161.95 275.956C162.694 275.956 163.366 276.118 163.966 276.442C164.566 276.754 165.034 277.228 165.37 277.864C165.718 278.5 165.892 279.274 165.892 280.186V286H164.272V280.42C164.272 279.436 164.026 278.686 163.534 278.17C163.042 277.642 162.37 277.378 161.518 277.378C160.654 277.378 159.964 277.648 159.448 278.188C158.944 278.728 158.692 279.514 158.692 280.546V286H157.054V272.68H158.692V277.54C159.016 277.036 159.46 276.646 160.024 276.37C160.6 276.094 161.242 275.956 161.95 275.956ZM169.414 274.534C169.102 274.534 168.838 274.426 168.622 274.21C168.406 273.994 168.298 273.73 168.298 273.418C168.298 273.106 168.406 272.842 168.622 272.626C168.838 272.41 169.102 272.302 169.414 272.302C169.714 272.302 169.966 272.41 170.17 272.626C170.386 272.842 170.494 273.106 170.494 273.418C170.494 273.73 170.386 273.994 170.17 274.21C169.966 274.426 169.714 274.534 169.414 274.534ZM170.206 276.136V286H168.568V276.136H170.206ZM177.803 275.956C179.003 275.956 179.975 276.322 180.719 277.054C181.463 277.774 181.835 278.818 181.835 280.186V286H180.215V280.42C180.215 279.436 179.969 278.686 179.477 278.17C178.985 277.642 178.313 277.378 177.461 277.378C176.597 277.378 175.907 277.648 175.391 278.188C174.887 278.728 174.635 279.514 174.635 280.546V286H172.997V276.136H174.635V277.54C174.959 277.036 175.397 276.646 175.949 276.37C176.513 276.094 177.131 275.956 177.803 275.956ZM183.899 281.032C183.899 280.024 184.103 279.142 184.511 278.386C184.919 277.618 185.477 277.024 186.185 276.604C186.905 276.184 187.709 275.974 188.597 275.974C189.365 275.974 190.079 276.154 190.739 276.514C191.399 276.862 191.903 277.324 192.251 277.9V272.68H193.907V286H192.251V284.146C191.927 284.734 191.447 285.22 190.811 285.604C190.175 285.976 189.431 286.162 188.579 286.162C187.703 286.162 186.905 285.946 186.185 285.514C185.477 285.082 184.919 284.476 184.511 283.696C184.103 282.916 183.899 282.028 183.899 281.032ZM192.251 281.05C192.251 280.306 192.101 279.658 191.801 279.106C191.501 278.554 191.093 278.134 190.577 277.846C190.073 277.546 189.515 277.396 188.903 277.396C188.291 277.396 187.733 277.54 187.229 277.828C186.725 278.116 186.323 278.536 186.023 279.088C185.723 279.64 185.573 280.288 185.573 281.032C185.573 281.788 185.723 282.448 186.023 283.012C186.323 283.564 186.725 283.99 187.229 284.29C187.733 284.578 188.291 284.722 188.903 284.722C189.515 284.722 190.073 284.578 190.577 284.29C191.093 283.99 191.501 283.564 191.801 283.012C192.101 282.448 192.251 281.794 192.251 281.05ZM196.063 281.032C196.063 280.024 196.267 279.142 196.675 278.386C197.083 277.618 197.641 277.024 198.349 276.604C199.069 276.184 199.867 275.974 200.743 275.974C201.607 275.974 202.357 276.16 202.993 276.532C203.629 276.904 204.103 277.372 204.415 277.936V276.136H206.071V286H204.415V284.164C204.091 284.74 203.605 285.22 202.957 285.604C202.321 285.976 201.577 286.162 200.725 286.162C199.849 286.162 199.057 285.946 198.349 285.514C197.641 285.082 197.083 284.476 196.675 283.696C196.267 282.916 196.063 282.028 196.063 281.032ZM204.415 281.05C204.415 280.306 204.265 279.658 203.965 279.106C203.665 278.554 203.257 278.134 202.741 277.846C202.237 277.546 201.679 277.396 201.067 277.396C200.455 277.396 199.897 277.54 199.393 277.828C198.889 278.116 198.487 278.536 198.187 279.088C197.887 279.64 197.737 280.288 197.737 281.032C197.737 281.788 197.887 282.448 198.187 283.012C198.487 283.564 198.889 283.99 199.393 284.29C199.897 284.578 200.455 284.722 201.067 284.722C201.679 284.722 202.237 284.578 202.741 284.29C203.257 283.99 203.665 283.564 203.965 283.012C204.265 282.448 204.415 281.794 204.415 281.05ZM213.026 279.718C213.026 278.494 213.302 277.396 213.854 276.424C214.406 275.44 215.156 274.672 216.104 274.12C217.064 273.568 218.126 273.292 219.29 273.292C220.658 273.292 221.852 273.622 222.872 274.282C223.892 274.942 224.636 275.878 225.104 277.09H223.142C222.794 276.334 222.29 275.752 221.63 275.344C220.982 274.936 220.202 274.732 219.29 274.732C218.414 274.732 217.628 274.936 216.932 275.344C216.236 275.752 215.69 276.334 215.294 277.09C214.898 277.834 214.7 278.71 214.7 279.718C214.7 280.714 214.898 281.59 215.294 282.346C215.69 283.09 216.236 283.666 216.932 284.074C217.628 284.482 218.414 284.686 219.29 284.686C220.202 284.686 220.982 284.488 221.63 284.092C222.29 283.684 222.794 283.102 223.142 282.346H225.104C224.636 283.546 223.892 284.476 222.872 285.136C221.852 285.784 220.658 286.108 219.29 286.108C218.126 286.108 217.064 285.838 216.104 285.298C215.156 284.746 214.406 283.984 213.854 283.012C213.302 282.04 213.026 280.942 213.026 279.718ZM231.844 286.162C230.92 286.162 230.08 285.952 229.324 285.532C228.58 285.112 227.992 284.518 227.56 283.75C227.14 282.97 226.93 282.07 226.93 281.05C226.93 280.042 227.146 279.154 227.578 278.386C228.022 277.606 228.622 277.012 229.378 276.604C230.134 276.184 230.98 275.974 231.916 275.974C232.852 275.974 233.698 276.184 234.454 276.604C235.21 277.012 235.804 277.6 236.236 278.368C236.68 279.136 236.902 280.03 236.902 281.05C236.902 282.07 236.674 282.97 236.218 283.75C235.774 284.518 235.168 285.112 234.4 285.532C233.632 285.952 232.78 286.162 231.844 286.162ZM231.844 284.722C232.432 284.722 232.984 284.584 233.5 284.308C234.016 284.032 234.43 283.618 234.742 283.066C235.066 282.514 235.228 281.842 235.228 281.05C235.228 280.258 235.072 279.586 234.76 279.034C234.448 278.482 234.04 278.074 233.536 277.81C233.032 277.534 232.486 277.396 231.898 277.396C231.298 277.396 230.746 277.534 230.242 277.81C229.75 278.074 229.354 278.482 229.054 279.034C228.754 279.586 228.604 280.258 228.604 281.05C228.604 281.854 228.748 282.532 229.036 283.084C229.336 283.636 229.732 284.05 230.224 284.326C230.716 284.59 231.256 284.722 231.844 284.722ZM240.694 272.68V286H239.056V272.68H240.694ZM245.124 272.68V286H243.486V272.68H245.124ZM256.915 280.69C256.915 281.002 256.897 281.332 256.861 281.68H248.977C249.037 282.652 249.367 283.414 249.967 283.966C250.579 284.506 251.317 284.776 252.181 284.776C252.889 284.776 253.477 284.614 253.945 284.29C254.425 283.954 254.761 283.51 254.953 282.958H256.717C256.453 283.906 255.925 284.68 255.133 285.28C254.341 285.868 253.357 286.162 252.181 286.162C251.245 286.162 250.405 285.952 249.661 285.532C248.929 285.112 248.353 284.518 247.933 283.75C247.513 282.97 247.303 282.07 247.303 281.05C247.303 280.03 247.507 279.136 247.915 278.368C248.323 277.6 248.893 277.012 249.625 276.604C250.369 276.184 251.221 275.974 252.181 275.974C253.117 275.974 253.945 276.178 254.665 276.586C255.385 276.994 255.937 277.558 256.321 278.278C256.717 278.986 256.915 279.79 256.915 280.69ZM255.223 280.348C255.223 279.724 255.085 279.19 254.809 278.746C254.533 278.29 254.155 277.948 253.675 277.72C253.207 277.48 252.685 277.36 252.109 277.36C251.281 277.36 250.573 277.624 249.985 278.152C249.409 278.68 249.079 279.412 248.995 280.348H255.223ZM263.145 275.974C263.997 275.974 264.741 276.16 265.377 276.532C266.025 276.904 266.505 277.372 266.817 277.936V276.136H268.473V286.216C268.473 287.116 268.281 287.914 267.897 288.61C267.513 289.318 266.961 289.87 266.241 290.266C265.533 290.662 264.705 290.86 263.757 290.86C262.461 290.86 261.381 290.554 260.517 289.942C259.653 289.33 259.143 288.496 258.987 287.44H260.607C260.787 288.04 261.159 288.52 261.723 288.88C262.287 289.252 262.965 289.438 263.757 289.438C264.657 289.438 265.389 289.156 265.953 288.592C266.529 288.028 266.817 287.236 266.817 286.216V284.146C266.493 284.722 266.013 285.202 265.377 285.586C264.741 285.97 263.997 286.162 263.145 286.162C262.269 286.162 261.471 285.946 260.751 285.514C260.043 285.082 259.485 284.476 259.077 283.696C258.669 282.916 258.465 282.028 258.465 281.032C258.465 280.024 258.669 279.142 259.077 278.386C259.485 277.618 260.043 277.024 260.751 276.604C261.471 276.184 262.269 275.974 263.145 275.974ZM266.817 281.05C266.817 280.306 266.667 279.658 266.367 279.106C266.067 278.554 265.659 278.134 265.143 277.846C264.639 277.546 264.081 277.396 263.469 277.396C262.857 277.396 262.299 277.54 261.795 277.828C261.291 278.116 260.889 278.536 260.589 279.088C260.289 279.64 260.139 280.288 260.139 281.032C260.139 281.788 260.289 282.448 260.589 283.012C260.889 283.564 261.291 283.99 261.795 284.29C262.299 284.578 262.857 284.722 263.469 284.722C264.081 284.722 264.639 284.578 265.143 284.29C265.659 283.99 266.067 283.564 266.367 283.012C266.667 282.448 266.817 281.794 266.817 281.05ZM280.241 280.69C280.241 281.002 280.223 281.332 280.187 281.68H272.303C272.363 282.652 272.693 283.414 273.293 283.966C273.905 284.506 274.643 284.776 275.507 284.776C276.215 284.776 276.803 284.614 277.271 284.29C277.751 283.954 278.087 283.51 278.279 282.958H280.043C279.779 283.906 279.251 284.68 278.459 285.28C277.667 285.868 276.683 286.162 275.507 286.162C274.571 286.162 273.731 285.952 272.987 285.532C272.255 285.112 271.679 284.518 271.259 283.75C270.839 282.97 270.629 282.07 270.629 281.05C270.629 280.03 270.833 279.136 271.241 278.368C271.649 277.6 272.219 277.012 272.951 276.604C273.695 276.184 274.547 275.974 275.507 275.974C276.443 275.974 277.271 276.178 277.991 276.586C278.711 276.994 279.263 277.558 279.647 278.278C280.043 278.986 280.241 279.79 280.241 280.69ZM278.549 280.348C278.549 279.724 278.411 279.19 278.135 278.746C277.859 278.29 277.481 277.948 277.001 277.72C276.533 277.48 276.011 277.36 275.435 277.36C274.607 277.36 273.899 277.624 273.311 278.152C272.735 278.68 272.405 279.412 272.321 280.348H278.549Z" fill="#6D6A7C"/>
<path d="M176.816 326.832C178.171 325.744 179.232 324.853 180 324.16C180.768 323.456 181.413 322.725 181.936 321.968C182.469 321.2 182.736 320.448 182.736 319.712C182.736 319.019 182.565 318.475 182.224 318.08C181.893 317.675 181.355 317.472 180.608 317.472C179.883 317.472 179.317 317.701 178.912 318.16C178.517 318.608 178.304 319.211 178.272 319.968H176.864C176.907 318.773 177.269 317.851 177.952 317.2C178.635 316.549 179.515 316.224 180.592 316.224C181.691 316.224 182.56 316.528 183.2 317.136C183.851 317.744 184.176 318.581 184.176 319.648C184.176 320.533 183.909 321.397 183.376 322.24C182.853 323.072 182.256 323.808 181.584 324.448C180.912 325.077 180.053 325.813 179.008 326.656H184.512V327.872H176.816V326.832ZM186.195 322.096C186.195 320.261 186.494 318.832 187.091 317.808C187.688 316.773 188.734 316.256 190.227 316.256C191.71 316.256 192.75 316.773 193.347 317.808C193.944 318.832 194.243 320.261 194.243 322.096C194.243 323.963 193.944 325.413 193.347 326.448C192.75 327.483 191.71 328 190.227 328C188.734 328 187.688 327.483 187.091 326.448C186.494 325.413 186.195 323.963 186.195 322.096ZM192.803 322.096C192.803 321.168 192.739 320.384 192.611 319.744C192.494 319.093 192.243 318.571 191.859 318.176C191.486 317.781 190.942 317.584 190.227 317.584C189.502 317.584 188.947 317.781 188.563 318.176C188.19 318.571 187.939 319.093 187.811 319.744C187.694 320.384 187.635 321.168 187.635 322.096C187.635 323.056 187.694 323.861 187.811 324.512C187.939 325.163 188.19 325.685 188.563 326.08C188.947 326.475 189.502 326.672 190.227 326.672C190.942 326.672 191.486 326.475 191.859 326.08C192.243 325.685 192.494 325.163 192.611 324.512C192.739 323.861 192.803 323.056 192.803 322.096ZM195.858 317.76V316.432H198.866V328H197.394V317.76H195.858ZM200.983 317.76V316.432H203.991V328H202.519V317.76H200.983ZM212.812 321.52V322.752H206.428V321.52H212.812ZM215.129 326.832C216.483 325.744 217.545 324.853 218.312 324.16C219.081 323.456 219.726 322.725 220.249 321.968C220.782 321.2 221.049 320.448 221.049 319.712C221.049 319.019 220.878 318.475 220.537 318.08C220.206 317.675 219.667 317.472 218.921 317.472C218.195 317.472 217.63 317.701 217.225 318.16C216.83 318.608 216.617 319.211 216.585 319.968H215.177C215.219 318.773 215.582 317.851 216.265 317.2C216.947 316.549 217.827 316.224 218.905 316.224C220.003 316.224 220.873 316.528 221.513 317.136C222.163 317.744 222.489 318.581 222.489 319.648C222.489 320.533 222.222 321.397 221.689 322.24C221.166 323.072 220.569 323.808 219.897 324.448C219.225 325.077 218.366 325.813 217.321 326.656H222.825V327.872H215.129V326.832ZM224.508 322.096C224.508 320.261 224.806 318.832 225.404 317.808C226.001 316.773 227.046 316.256 228.54 316.256C230.022 316.256 231.062 316.773 231.66 317.808C232.257 318.832 232.556 320.261 232.556 322.096C232.556 323.963 232.257 325.413 231.66 326.448C231.062 327.483 230.022 328 228.54 328C227.046 328 226.001 327.483 225.404 326.448C224.806 325.413 224.508 323.963 224.508 322.096ZM231.116 322.096C231.116 321.168 231.052 320.384 230.924 319.744C230.806 319.093 230.556 318.571 230.172 318.176C229.798 317.781 229.254 317.584 228.54 317.584C227.814 317.584 227.26 317.781 226.876 318.176C226.502 318.571 226.252 319.093 226.124 319.744C226.006 320.384 225.948 321.168 225.948 322.096C225.948 323.056 226.006 323.861 226.124 324.512C226.252 325.163 226.502 325.685 226.876 326.08C227.26 326.475 227.814 326.672 228.54 326.672C229.254 326.672 229.798 326.475 230.172 326.08C230.556 325.685 230.806 325.163 230.924 324.512C231.052 323.861 231.116 323.056 231.116 322.096ZM234.379 326.832C235.733 325.744 236.795 324.853 237.562 324.16C238.331 323.456 238.976 322.725 239.499 321.968C240.032 321.2 240.299 320.448 240.299 319.712C240.299 319.019 240.128 318.475 239.787 318.08C239.456 317.675 238.917 317.472 238.171 317.472C237.445 317.472 236.88 317.701 236.475 318.16C236.08 318.608 235.867 319.211 235.835 319.968H234.427C234.469 318.773 234.832 317.851 235.515 317.2C236.197 316.549 237.077 316.224 238.155 316.224C239.253 316.224 240.123 316.528 240.763 317.136C241.413 317.744 241.739 318.581 241.739 319.648C241.739 320.533 241.472 321.397 240.939 322.24C240.416 323.072 239.819 323.808 239.147 324.448C238.475 325.077 237.616 325.813 236.571 326.656H242.075V327.872H234.379V326.832ZM243.758 322.096C243.758 320.261 244.056 318.832 244.654 317.808C245.251 316.773 246.296 316.256 247.79 316.256C249.272 316.256 250.312 316.773 250.91 317.808C251.507 318.832 251.806 320.261 251.806 322.096C251.806 323.963 251.507 325.413 250.91 326.448C250.312 327.483 249.272 328 247.79 328C246.296 328 245.251 327.483 244.654 326.448C244.056 325.413 243.758 323.963 243.758 322.096ZM250.366 322.096C250.366 321.168 250.302 320.384 250.174 319.744C250.056 319.093 249.806 318.571 249.422 318.176C249.048 317.781 248.504 317.584 247.79 317.584C247.064 317.584 246.51 317.781 246.126 318.176C245.752 318.571 245.502 319.093 245.374 319.744C245.256 320.384 245.198 321.168 245.198 322.096C245.198 323.056 245.256 323.861 245.374 324.512C245.502 325.163 245.752 325.685 246.126 326.08C246.51 326.475 247.064 326.672 247.79 326.672C248.504 326.672 249.048 326.475 249.422 326.08C249.806 325.685 250.056 325.163 250.174 324.512C250.302 323.861 250.366 323.056 250.366 322.096Z" fill="#888597"/>
<path d="M162.44 316.44H159.5V315.16C159.5 315.072 159.437 315 159.36 315H158.38C158.303 315 158.24 315.072 158.24 315.16V316.44H153.76V315.16C153.76 315.072 153.697 315 153.62 315H152.64C152.563 315 152.5 315.072 152.5 315.16V316.44H149.56C149.25 316.44 149 316.726 149 317.08V330.36C149 330.714 149.25 331 149.56 331H162.44C162.75 331 163 330.714 163 330.36V317.08C163 316.726 162.75 316.44 162.44 316.44ZM161.74 329.56H150.26V321.96H161.74V329.56ZM150.26 320.6V317.88H152.5V318.84C152.5 318.928 152.563 319 152.64 319H153.62C153.697 319 153.76 318.928 153.76 318.84V317.88H158.24V318.84C158.24 318.928 158.303 319 158.38 319H159.36C159.437 319 159.5 318.928 159.5 318.84V317.88H161.74V320.6H150.26Z" fill="#888597"/>
<defs>
<filter id="filter0_d_563_16" x="781" y="20" width="475" height="250" filterUnits="userSpaceOnUse" color-interpolation-filters="sRGB">
<feFlood flood-opacity="0" result="BackgroundImageFix"/>
<feColorMatrix in="SourceAlpha" type="matrix" values="0 0 0 0 0 0 0 0 0 0 0 0 0 0 0 0 0 0 127 0" result="hardAlpha"/>
<feOffset dx="28" dy="28"/>
<feGaussianBlur stdDeviation="25"/>
<feComposite in2="hardAlpha" operator="out"/>
<feColorMatrix type="matrix" values="0 0 0 0 0.0509804 0 0 0 0 0.152941 0 0 0 0 0.313726 0 0 0 0.16 0"/>
<feBlend mode="normal" in2="BackgroundImageFix" result="effect1_dropShadow_563_16"/>
<feBlend mode="normal" in="SourceGraphic" in2="effect1_dropShadow_563_16" result="shape"/>
</filter>
<filter id="filter1_d_563_16" x="781" y="388" width="475" height="250" filterUnits="userSpaceOnUse" color-interpolation-filters="sRGB">
<feFlood flood-opacity="0" result="BackgroundImageFix"/>
<feColorMatrix in="SourceAlpha" type="matrix" values="0 0 0 0 0 0 0 0 0 0 0 0 0 0 0 0 0 0 127 0" result="hardAlpha"/>
<feOffset dx="28" dy="28"/>
<feGaussianBlur stdDeviation="25"/>
<feComposite in2="hardAlpha" operator="out"/>
<feColorMatrix type="matrix" values="0 0 0 0 0.0509804 0 0 0 0 0.152941 0 0 0 0 0.313726 0 0 0 0.16 0"/>
<feBlend mode="normal" in2="BackgroundImageFix" result="effect1_dropShadow_563_16"/>
<feBlend mode="normal" in="SourceGraphic" in2="effect1_dropShadow_563_16" result="shape"/>
</filter>
<filter id="filter2_d_563_16" x="0" y="188" width="475" height="250" filterUnits="userSpaceOnUse" color-interpolation-filters="sRGB">
<feFlood flood-opacity="0" result="BackgroundImageFix"/>
<feColorMatrix in="SourceAlpha" type="matrix" values="0 0 0 0 0 0 0 0 0 0 0 0 0 0 0 0 0 0 127 0" result="hardAlpha"/>
<feOffset dx="28" dy="28"/>
<feGaussianBlur stdDeviation="25"/>
<feComposite in2="hardAlpha" operator="out"/>
<feColorMatrix type="matrix" values="0 0 0 0 0.0509804 0 0 0 0 0.152941 0 0 0 0 0.313726 0 0 0 0.16 0"/>
<feBlend mode="normal" in2="BackgroundImageFix" result="effect1_dropShadow_563_16"/>
<feBlend mode="normal" in="SourceGraphic" in2="effect1_dropShadow_563_16" result="shape"/>
</filter>
</defs>
</svg>
